<?xml version="1.0" standalone="no"?>
<!DOCTYPE svg PUBLIC "-//W3C//DTD SVG 1.1//EN" "http://www.w3.org/Graphics/SVG/1.1/DTD/svg11.dtd" >
<svg xmlns="http://www.w3.org/2000/svg">
<metadata></metadata>
<defs>
<font id="rebelregular" horiz-adv-x="897" >
<font-face units-per-em="2048" ascent="1536" descent="-512" />
<missing-glyph horiz-adv-x="659" />
<glyph horiz-adv-x="0" />
<glyph horiz-adv-x="682" />
<glyph unicode=" "  horiz-adv-x="659" />
<glyph unicode="&#x09;" horiz-adv-x="659" />
<glyph unicode="&#xa0;" horiz-adv-x="659" />
<glyph unicode="!" horiz-adv-x="616" d="M264 481q-9 4 -36 24.5t-33 26.5q-4 3 -13.5 15.5t-11.5 17.5q-2 7 -15.5 45t-15.5 45q-3 11 -7 36t-3 28l33 203l274 712l90 138q1 0 5 2t8.5 4.5t7.5 3.5h6q16 0 22 -6q2 0 7.5 -5t5.5 -6q2 -2 2 -12q2 -3 6 -12.5t7.5 -17.5t4.5 -9t21.5 -27t21.5 -30q4 -4 11.5 -21 t9.5 -24q0 -13 -4 -17q-59 -87 -84 -180l-4 -6l-166 -430l-6 -6l-84 -273q-22 -26 -17 -112q1 -7 8.5 -48t8.5 -48q-10 -14 -26 -18t-34 7zM362 741q0 2 10.5 22t10.5 23q1 5 20 119q0 3 19 51q11 11 12 11l4 -4q-2 -3 -8 -20.5t-8 -20.5q0 -31 -4 -39q0 -2 -4 -11l-8 -18 t-3 -10q-2 -4 -6 -27.5t-7.5 -48t-4.5 -27.5q-7 -22 -14 -23q-2 0 -4 1q-3 1 -5 10t0 12zM500 1178q0 1 1 8t1 8l80 168l2 -16l-54 -152q0 -19 -8 -23q-2 4 -2 10.5t1 13.5t1 9q-3 2 -6 0.5t-2 -4.5q-2 -2 -4.5 -15t-3.5 -14h-6v7zM532 1245q-5 0 0 -9l3 -3q6 0 3 7 q-3 4 -6 5zM606 1419q4 8 4 19l56 129q2 1 8.5 1t9.5 -1q6 0 12 -6q-1 -2 -6 -13.5t-6 -13.5q-4 -7 -17 -12t-18 -17q-3 -6 -16.5 -40t-14.5 -40q-10 -10 -12 -10v4zM190 -4q-35 23 -53.5 58.5t-13.5 72.5q4 14 28.5 80t24.5 67q21 38 45 45q31 10 86 -34q44 -39 47 -80 q-1 -11 -10 -28.5t-10 -20.5q-3 -6 -5 -22.5t-5 -22.5q0 -1 -2.5 -4t-5 -5.5t-1.5 -3.5q-12 -24 -12 -35l-4 -4q-1 -3 -6.5 -19t-10.5 -30t-8 -18q-27 -34 -84 4z" />
<glyph unicode="&#x22;" horiz-adv-x="407" d="M47 1155q-50 35 -45 90q0 23 6 29l51 100q0 2 39 41q16 14 52 -12q21 -13 34 -51.5t-2 -61.5l-100 -129q-1 -3 -10.5 -7.5t-12.5 -4.5q-6 0 -12 6zM205 1087q-50 35 -45 91q0 22 6 28l51 101q0 2 39 41q15 13 51 -13q21 -13 34.5 -51t-1.5 -61l-100 -129q-1 -3 -10.5 -8 t-12.5 -5q-6 0 -12 6z" />
<glyph unicode="#" horiz-adv-x="731" d="M401 1128q13 15 35 19q8 -19 13 -55.5t4 -59.5q0 -9 -7.5 -92.5t-7.5 -91.5v-41q0 -22 13 -27q4 0 24 -3t23 -3q6 -1 19 0t21.5 -0.5t14.5 -7.5q29 -29 29 -31q2 -5 2 -24t-2 -27q-13 -25 -17 -33l-6 -8q-17 -9 -51 -12.5t-51 -12.5q0 -55 -4 -79q0 -1 0.5 -24t0.5 -43.5 t-1 -25.5q0 -33 -23 -51q-51 -41 -68 -8q-1 2 -3.5 8.5t-4.5 12t-2 6.5v63q-6 38 -14 115q-1 14 -6 20l-299 9q-11 1 -15 5t-5.5 13.5t-4.5 15.5l45 60q24 28 45 37q14 4 86 28q4 -4 23 -4q79 0 100 6q3 -2 10.5 0.5t8.5 5.5q4 2 5 5.5t0 10.5l-1 7q14 147 18 158 q0 20 27 118q2 11 26 41zM203 508q-13 -15 -35 -19q-7 17 -12.5 54t-3.5 59q14 140 14 186v41q0 23 -10 25q-32 8 -47 8q-5 0 -15 -0.5t-15.5 -0.5t-13 2t-12.5 7q-6 4 -18 16.5t-12 14.5q-1 5 -1 24t1 27q12 25 16 33l6 8q17 8 51 11.5t51 11.5q0 45 7 80q0 3 -1 26 t-1.5 40t0.5 26q0 35 22 53q49 45 68 10l10 -30q2 -4 2 -64q1 -7 12 -115q0 -5 2.5 -12.5t3.5 -7.5l301 -6q9 -1 13 -4t4.5 -7t2 -11.5t3.5 -12.5q-3 -4 -22.5 -29.5t-22.5 -29.5q-24 -28 -45 -37q-3 -1 -86 -29q-4 4 -23 4q-58 0 -100 -6q-12 0 -18 -6q-5 -2 -5 -25 q-1 -12 -5 -53.5t-7 -70.5t-4 -33q0 -12 -29 -117q-1 -10 -26 -41z" />
<glyph unicode="$" horiz-adv-x="972" d="M270 -225q-10 0 -16 6l-6 4v41l28 248v16q-19 1 -57 -2t-63 2t-50 25q-22 16 -42.5 45.5t-24.5 54.5q-1 6 -1 23t1 22q0 11 12 35v84q0 9 27 63l6 4l109 177q8 4 10 6q16 0 22 6q6 2 21.5 10.5t27 12.5t24.5 6t20.5 -7t9.5 -28q5 -52 -13 -74l-118 -158 q-15 -5 -28.5 -26.5t-16.5 -24.5q-1 -1 -11.5 -6t-11.5 -6t-16 -39q-16 -49 0 -74q3 -4 12 -13t10 -9t6.5 2t13 4.5t9.5 3.5l129 96q7 5 12 19l39 170l6 10l62 465v49q-5 2 -36.5 -12t-47.5 -11q-27 9 -52 19q-19 5 -34 28q-1 1 -16 28.5t-17 33.5q-12 25 -15 56t-1.5 71 t0.5 59l-7 17v28l33 142l96 198q3 3 17.5 22.5t17.5 22.5q0 7 6 13l142 145q3 2 22.5 14.5t22.5 14.5q10 10 10 12q16 33 22 61v7q1 9 6.5 59t6.5 59q17 23 45 17q13 -1 18.5 -18t3.5 -33q0 -2 -3 -19.5t-3 -19.5v-74h6q1 1 11.5 6t11.5 6q50 10 51 10q9 2 49 2t53 -2 q45 -3 78 -45q4 -4 11 -13l8 -9v-51q-1 -5 -6.5 -56.5t-6.5 -56.5q-1 -7 -7 -35.5t-3 -44.5q-28 -69 -74 -158q-41 -66 -67 -102q-11 -15 -47 -6q-1 1 -19 6t-20 6q-16 5 -21.5 24.5t-1.5 37.5q24 48 39 73q2 3 9 10t10 7l90 137q3 5 12 28.5t10 32.5q6 17 13 90v35h-41 q-39 0 -45 -6q-4 -1 -18 -10t-17 -12l-107 -148q-3 -3 -14 -29t-14 -38q0 -2 -3.5 -17t-7.5 -35t-6 -28q-1 -3 9.5 -16.5t7.5 -32.5l-33 -205v-33h4q6 0 70 16q61 7 129 -34q84 -84 96 -158v-148q0 -26 -6 -32l-203 -488q-10 -10 -16 -22q-6 -9 -18.5 -25t-21 -29t-12.5 -26 q-8 -8 -54 -56.5t-54 -56.5q-4 -7 -51 -39q-3 -2 -16 -11t-20 -17t-9 -17l-29 -237q3 -32 -11 -75.5t-38 -55.5h-6q-7 0 -13 6zM424 475l6 -4q2 0 6 4.5t4 5.5q9 12 27 39t18 29l193 465q0 1 4 29t9.5 66t8.5 56q0 19 -6 19h-123q-15 0 -28.5 -8t-16.5 -21l-41 -141v-13 q0 -4 -5 -45t-5 -45v-16q-6 -24 -6 -86v-4q0 -7 -3.5 -35t-2.5 -45zM338 1257v-79h6q1 0 11.5 5t11.5 5q2 1 22.5 6t22.5 6q4 1 15 12.5t13 16.5q11 112 17 141q0 1 6 16.5t11 29t5 16.5q25 104 19 159h-6q-22 -56 -58 -80l-74 -170q2 -1 2 -6t-2 -6q0 -6 -22 -72z" />
<glyph unicode="%" horiz-adv-x="1159" d="M418 334q-1 0 -9 3.5t-15 7t-9 5.5q-13 13 -57 68q-14 18 -21 59.5t-2 65.5q11 71 23 106q1 3 9 17.5t17.5 32.5t12.5 24q7 14 22 29l6 10q1 2 8.5 12t8.5 12l-11 11q15 29 23 39q0 2 2 4t4 2q72 37 168 40.5t170 -28.5q11 -22 12 -23q0 -16 6 -22q2 -5 8 -13t14.5 -16.5 t10.5 -11.5q43 -53 55.5 -97.5t-4.5 -111.5q-4 -8 -26 -39t-31 -41q-7 -9 -46.5 -42t-53.5 -42q-28 -20 -90 -51l-7 -6q-3 -2 -32 -8.5t-41 -7.5q-9 -2 -44 -2t-46 2q-11 0 -35 12zM61 440h-6l-7 6q-8 5 -9 7l883 1622q10 10 10 12q3 3 15 22t14 23q17 21 29 29t38 16h12 q81 -47 68 -113q-1 -4 -8 -25.5t-8 -25.5q-2 -3 -17.5 -25.5t-17.5 -25.5q-1 -2 -8.5 -22.5t-8.5 -22.5q-2 -2 -9 -12t-7 -11v-12q-1 -2 -5 -12.5t-5.5 -14.5t-6 -13t-8 -13.5t-9 -10t-11.5 -8.5l-86 -143l-6 -4l-62 -115q-19 -12 -28 -49l-527 -901l-10 -10l-57 -96 q-11 -18 -42.5 -34.5t-60.5 -23.5h-10q-12 6 -29 6zM418 469q55 -30 112 -12l7 6q155 57 237 153q11 13 15.5 36t1.5 42q-7 45 -23 68l-4 6q-4 2 -18 8t-19.5 8t-16 5.5t-19.5 5t-19 2.5h-74q10 -22 6 -58h-22q-1 0 -8.5 3t-8.5 3q-12 2 -21.5 -1t-22.5 -11t-17 -10 q-2 -1 -11 -5t-12 -5.5t-10.5 -5.5t-10.5 -5.5t-9.5 -6t-9.5 -7.5t-8 -7.5t-8 -9t-6.5 -10.5t-6.5 -12q0 -1 -2.5 -9.5t-5 -19.5t-3.5 -16v-6q0 -2 3.5 -19.5t3.5 -19.5q0 -1 -0.5 -15.5t-0.5 -26.5t1 -15q0 -27 10 -33zM434 1679q-20 10 -39 29q-36 30 -45.5 65t-5.5 93 q14 52 64 186q2 8 32 68q1 2 8.5 12t8.5 12q55 44 73 56q27 19 54.5 23t60.5 -1q14 -4 32 -20.5t17 -30.5l86 -96q2 -2 9 -17t8 -22q10 -24 6 -51q-7 -7 -24.5 -33.5t-20.5 -34.5q-1 -3 -6.5 -31t-6.5 -31q0 -4 -10 -34q-6 -14 -28 -58q-16 -16 -68 -55q-68 -51 -164 -41 q-3 1 -20.5 6t-20.5 6zM446 1792q20 -10 51.5 -7.5t51.5 13.5q37 25 55 39l23 23q15 22 25.5 49t10.5 58.5t-18 51.5q-43 4 -63 -6q-7 -4 -48.5 -25.5t-48.5 -25.5q-28 0 -32 -10q-9 -20 -17 -50t-8 -64.5t18 -45.5zM508 2081q-10 -10 -10 -17h6q4 2 25 9.5t24 7.5 q22 3 60 -2t55 -4q-3 3 -17.5 17t-17.5 17q-8 8 -15.5 18.5t-11 14t-10 6t-14.5 0t-23 -9.5q-4 -4 -25.5 -28.5t-25.5 -28.5z" />
<glyph unicode="&#x26;" horiz-adv-x="1499" d="M360 -6q-7 0 -40 8.5t-46 13.5q-42 14 -51 23l-127 102q-4 3 -21 27.5t-24 36.5q-1 2 -4.5 13t-7 23.5t-4.5 14.5q-4 10 -6 10q-27 107 -27 109v10q-2 8 -7 49t-5 47q-3 101 28 178q4 12 19.5 45.5t19.5 38.5l150 191l22 16l170 187q3 12 21 18.5t24 15.5q3 4 28 38.5 t30 41.5q3 16 -9 42t-10 38l-39 129v6q-1 5 -11 49.5t-11 49.5q-6 24 -6 73q-1 31 3.5 95.5t2.5 97.5l39 149q16 32 28 52q1 3 11.5 11.5t13.5 10.5q55 35 105.5 48t109.5 3q8 -2 27.5 -7t38 -10t20.5 -5q26 -13 98 -58q32 -23 58 -74t20 -91q0 -2 -3 -20t-3 -19v-47 q-21 -72 -33 -101q-1 -1 -6 -11t-6 -11q-1 -3 -8 -29t-8 -29l-11 -22q-63 -84 -65 -86q-10 -20 -10 -25l-7 -4q0 -1 -3 -6t-3 -6q-19 -23 -67 -90l6 -6l-35 -33v-12q-11 4 -20.5 -9.5t-18 -34t-12.5 -24.5q-2 -3 -9.5 -10.5t-11.5 -14.5t-2 -16h7l10 25q4 -15 -5 -31.5 t-5 -28.5l73 -221q0 -1 6.5 -12.5t15 -26.5t11.5 -22l6 -7l238 -454l14 14q1 1 10.5 19t22 40.5t18.5 34.5q0 1 2 8.5t2 8.5q1 9 1 28.5t-1 22.5q-2 6 -12 27.5t-14 27.5q-9 12 -40 47.5t-40 44.5q-13 3 -62 27l-12 12q-1 1 -8 6.5t-8 6.5q-2 5 -10 32.5t-9 30.5 q-3 14 13 23h45q7 -1 23.5 -10t27.5 -7q11 -5 46 -23t44 -24q7 -4 28.5 -26t28.5 -31q50 -75 80 -125q2 -4 7 -24t5 -21v-29q0 -1 3.5 -11t3.5 -11q1 -18 -2 -38t-6.5 -32.5t-11.5 -35t-11 -32.5q-66 -92 -68 -96q-16 -24 -12 -35q1 -2 10.5 -15t18 -24.5t12.5 -15.5 q1 -3 18.5 -18t28.5 -23q15 -12 39 0q5 3 34 20.5t34 20.5q3 1 14 1t14 -1t12 -10.5t11 -12.5q6 -6 12 -36q1 -4 0 -8.5t-3 -10.5t-3 -10q0 -2 -2 -9.5t-2.5 -9.5t-2.5 -9t-3.5 -9.5t-4 -8t-5.5 -9t-6.5 -7t-8.5 -6.5q-15 -10 -51 -28q-43 9 -51 12q-8 4 -33 17t-44 22.5 t-22 11.5q-11 7 -49 40t-51 46q-9 4 -18 -2t-19 -16t-14 -13q-8 -4 -54.5 -27.5t-54.5 -27.5q-8 -13 -41 -29q3 -8 -2.5 -14.5t-17.5 -12.5l-12 -7q-3 -1 -35.5 -13.5t-38.5 -13.5h-6q-147 -14 -246 -12q-89 0 -107 6zM365 135q4 0 39.5 -3t39.5 -3h93q85 8 90 12 q48 13 137 52q25 14 78 47t59 39l29 32l-371 729v23q0 1 -2.5 1t-3.5 -1l-4 -10q-12 -6 -23 -6l-69 -68l-13 -23l-202 -245q-2 -5 -14.5 -32t-14.5 -32q-13 -13 -23 -33q0 -1 -4 -15t-8 -26.5t-6 -15.5q-1 -2 -9 -16.5t-9 -16.5q-1 -59 -1.5 -107.5t8.5 -101t29 -100.5 q29 -47 62 -57q4 -1 47.5 -11t54.5 -12h11zM571 1389l17 -13q3 3 17.5 22.5t17.5 22.5q10 20 22 29l74 109l123 272q6 6 6 35q7 28 1.5 68.5t-34.5 56.5q-14 8 -42.5 21t-31.5 13h-118l-35 -16q-5 -3 -24.5 -27t-26.5 -36q-37 -74 -41 -86q-2 -6 -2 -26t2 -26q0 -5 9 -48 t9 -48q2 -19 2 -84.5t-2 -87.5q16 -22 28 -75t29 -76z" />
<glyph unicode="'" horiz-adv-x="530" d="M274 1380q-50 35 -45 90q0 5 3 16.5t4 12.5l51 100q0 2 39 41q15 13 51 -12q21 -13 34.5 -51t-1.5 -61l-101 -130q-1 -3 -10 -7.5t-12 -4.5q-7 0 -13 6z" />
<glyph unicode="(" horiz-adv-x="671" d="M365 -236q-16 4 -54 19.5t-43 19.5l-100 91l-47 73l-68 199l-39 334q-2 8 -2 81.5t2 110.5q0 33 6 51v5l97 442l90 199l231 260q25 13 51 32l13 13q11 9 30 15.5t38.5 8t35 -7.5t19.5 -29q1 -5 1 -20t-1 -19l-11 -22q-21 -33 -63 -86l-33 -33l-205 -327q-7 -15 -4 -29 q4 4 8.5 -6t8.5 -6q2 -6 -1.5 -14.5t-9 -18t-6.5 -13.5q-21 -56 -35 -112q-6 0 -10 5t0 11q2 8 17 47t16 43q9 27 6 47q-9 -6 -14.5 -17t-10 -31t-4.5 -21t-5 -13.5t-5 -13.5q-6 -12 -6 -35q0 -1 -5 -10.5t-7 -11.5q-1 -3 -8.5 -28.5t-8.5 -28.5q-11 -25 -16 -46 q-4 -15 -6 -31.5t-3.5 -38t-2.5 -32.5q-4 -53 -23 -203l6 -61l6 -6l17 -205q10 -20 10 -39q1 -2 1 -6t-1 -4l-16 33q-5 -32 12 -84q10 13 10 45q16 -27 13 -45h-7q-4 -32 7 -64l73 -197q0 -1 2 -4.5t4.5 -8t3.5 -5.5q3 0 13 -10q1 -3 1 -5t-0.5 -4t-1 -3t0.5 -2.5t4 -2.5 l125 -51q4 -1 12 -8t10 -10q1 -2 1 -13t-1 -14q-1 -6 -4.5 -10.5t-6.5 -7.5t-9.5 -6t-9.5 -4t-11.5 -4t-9.5 -3h-4q-54 6 -63 6zM274 -27v-6h7v6h-7zM264 2l4 -6q2 2 2 6t-2 6q-9 36 -22 62v-17q8 -30 18 -51zM229 98l11 -22q2 9 -1 19t-8.5 23t-7.5 19q-2 -19 6 -39z M217 182q-3 0 -3 -5t3 -5q5 0 5 5t-5 5zM217 432v39q6 36 6 74l13 -221h-7q-1 0 -3 19t-5 48t-4 41zM223 754l13 51q8 -3 4 -10q0 -38 -11 -93v-16q0 -3 3.5 -28.5t3.5 -28.5q0 -9 -3 -27t-4 -18h-6v170zM258 805l55 215q2 8 23 29v-7l-78 -260v23zM313 1128q-3 0 -3 -6 t3 -6q5 0 5 6t-5 6zM506 1415q0 1 8.5 14t20 30.5t16.5 25.5q10 10 12 10v-6q-35 -55 -51 -78q0 -1 -2 -3.5t-4 -2.5v10z" />
<glyph unicode=")" horiz-adv-x="712" d="M78 -254l-4 4q-1 1 -9.5 3t-9.5 3l-4 17l-6 12t-5 10.5t-2.5 10.5t1.5 12q3 10 14.5 35t14.5 28l276 334l125 311q5 13 20.5 112.5t18.5 141.5q2 9 2 86.5t-2 112.5q0 3 -2 34t-2 34v10l-35 160l-80 163q-2 5 -23.5 29t-31.5 33q-3 2 -29 20.5t-29 20.5q-1 0 -6 5t-6 5 q-3 3 -18.5 12t-20.5 11q-1 0 -8 3t-8 3q-47 25 -73 51t-30 67v62l3 5q3 5 6 9t7 7t7 1l135 -61l176 -147v6q0 2 -11 20t-17 25l-39 39q-12 18 0 18q12 -10 47 -45.5t43 -46.5q8 -8 34 -47.5t33 -52.5q10 -18 27.5 -60.5t17.5 -48.5v-10l-16 16v-12q39 -65 62 -147.5 t29 -161t7.5 -165t-2.5 -159.5q0 -50 -6 -74v-6q-3 -49 -33 -203l-11 -33t-22.5 -66.5t-17.5 -53.5q0 -1 -5 -11t-7 -12v-4l-55 -119v-18q14 14 16 18q33 44 39 56q26 42 41 118l4 -6l12 13l29 67l51 385q11 18 4 62q0 3 -2 22.5t-2 22.5q0 6 -6 18l-6 10q-10 40 -10 68 q-2 16 10 35l29 -201l-29 -313l-29 -115l-96 -209l-61 -74v13q-5 3 -9.5 -4t-7.5 -15q-94 -120 -125 -151q-14 -15 -119 -109q-11 -8 -48.5 -29.5t-47.5 -25.5q-12 -6 -29 -6q-9 -2 -28 12zM645 1159q-2 10 -3.5 29.5t-4.5 34t-10 26.5q0 1 -10.5 6.5t-6.5 12.5h6 q2 8 -6 24.5t-6 24.5q7 -4 14 -14.5t9 -18.5l45 -176q2 -3 6.5 -9.5t7.5 -11.5t4.5 -10.5t-2 -9t-12.5 -4.5v-84q-13 59 -31 180zM571 1358q-9 13 -6 28h6q13 -28 17 -40v-5l-4 4q-5 4 -8.5 7.5t-4.5 5.5zM553 1352q-3 0 -3 -5.5t3 -5.5q5 0 5 5.5t-5 5.5zM549 1358 q-3 0 -3 -3t3 -3q1 2 1 4t-1 2zM537 1380q-3 0 -3 -3t3 -3q3 2 3 4t-3 2zM520 1397q0 -2 4.5 -6.5t5.5 -4.5q2 6 0.5 13.5t-6.5 12.5t-10 1q0 -10 6 -16zM504 1436l10 -4v4q-21 52 -51 73v-4z" />
<glyph unicode="*" horiz-adv-x="692" d="M266 950q0 15 -6 45v84q0 3 3 26t3 25q2 12 -6 23q-10 -10 -22 -16l-10 -11l-18.5 -18.5t-10.5 -9.5q-34 -25 -58 -35q-11 1 -13.5 1t-11.5 -4.5t-14 -6.5q-3 -3 -6 0q-4 4 -6 4q-2 1 -9 2t-7 3.5t6 12.5l96 119q3 3 1 8.5t-7 7.5q-31 -2 -84 7t-74 10q-10 3 -6 14 l154 53q-6 6 -6 13q-33 33 -39 45q-4 4 -13 22q-2 8 -3 14t-2.5 19t1.5 19.5t11 5.5l45 -13l106 -102h6q-7 67 17 170q19 23 38 14t25 -37q10 -50 10 -73h6q9 11 119 108q28 21 58 33q3 2 14 2t14 -2q14 0 17 -16v-33l-148 -160v-6q7 0 45.5 -2t44.5 -2q12 -6 23 -6 q0 -11 -6 -17q-6 -8 -21 -23.5t-18 -17.5l-103 -22l-4 -6l4 -4q51 -34 52 -35q7 -6 20.5 -21.5t13.5 -17.5v-17q0 -4 -28 -18q-17 -5 -48.5 9.5t-48.5 8.5q0 -6 -6 -12q-6 -32 -14 -96t-14 -96q-3 -11 -17.5 -13t-21.5 2q-3 3 -12 18.5t-11 20.5z" />
<glyph unicode="+" horiz-adv-x="727" d="M451 256q-26 26 -27 33q-29 98 -29 108q-3 10 -18 152q0 1 0.5 5.5t0.5 7.5t-1 5.5t-4 3.5q-1 1 -8.5 1t-10.5 -1q-18 -3 -100 -26q-20 -10 -23 -13h-86q-21 2 -45 23l-45 45q2 6 3.5 13.5t2 11t4.5 8t13 8.5l299 107q1 0 3.5 8.5t2.5 13.5q12 117 12 119v63l11 33 q18 40 67 12q23 -11 23 -45v-92q6 -30 6 -78q17 -3 51 5.5t51 5.5q4 -5 6 -7l17 -26q1 -8 1 -27t-1 -24q0 -5 -29 -41q-6 -8 -14.5 -12.5t-22 -8.5t-18.5 -6q-3 -1 -47 -23q-11 -8 -11 -28v-41q0 -27 17 -180q2 -22 -4 -60.5t-13 -58.5q-22 -4 -34 6z" />
<glyph unicode="," horiz-adv-x="237" d="M66 342q-23 12 -33 27t-13 41v22l148 164h16q3 0 20 -17t25 -28q27 -38 17 -84q-33 -55 -45 -70l-4 -4q-33 -26 -64 -45q-5 -1 -16 -4t-18 -5t-16.5 -1.5t-16.5 4.5z" />
<glyph unicode="-" horiz-adv-x="598" d="M96 430q-34 27 -47.5 57t-9.5 72q0 3 2.5 7.5t3.5 4.5l356 56h74q4 -11 4 -17v-10q6 -6 6 -22q0 -2 -2.5 -4.5t-3.5 -2.5q-2 -3 -6 -19.5t-10 -21.5q-2 0 -12 -4.5t-11 -5.5q-2 -2 -13 -14t-19 -14l-267 -68q-5 -2 -22.5 -0.5t-22.5 6.5z" />
<glyph unicode="." horiz-adv-x="219" d="M63 289q-12 9 -28 33t-29 32q-4 43 1.5 72.5t31.5 50.5q5 5 23 16l18 11q9 0 49 -8q10 -4 17.5 -15t10.5 -21t7 -26.5t6 -21.5q3 -9 11 -22t11.5 -20.5t7 -22t-2.5 -25.5q-10 -26 -61.5 -37.5t-72.5 4.5z" />
<glyph unicode="/" horiz-adv-x="999" d="M39 -207q-1 1 -8 11.5t-8 11.5q-5 4 -7 6q-16 32 -16 39q-2 7 -2 27.5t2 23.5l752 1577l118 170l35 35h17q10 -2 18 -5.5t14.5 -10t11 -12t9.5 -15.5l7.5 -15t7 -16.5t5.5 -15.5q5 -11 7 -30t-1 -28q-5 -20 -28 -51q16 0 -22 -43q-53 -58 -58 -73q-1 -6 0 -9l25 29h4v-4 q0 -6 -45 -70q-5 -4 -7 -4q-2 -4 -19.5 -35t-19.5 -35q-4 -4 -6 -4v4l35 64v10l-317 -582q3 -10 -2.5 -24.5t-14.5 -20.5l-6 7q-20 -40 -22 -48v-4l16 15l-45 -107v-4l51 96q3 -20 -6 -35l-129 -253v10l102 256v4l-307 -627q-6 -26 6 -41l17 23v-10l-45 -125q-5 -3 -20 -32 t-25 -36h-52q-16 0 -22 6zM147 -111q-2 1 -3 -3q-1 -9 3 -9q1 1 1 6t-1 6zM154 -94v-6q8 4 10.5 21t-0.5 24q-10 -20 -10 -39zM299 201l35 73v-12q-5 -25 -23 -61q-4 -9 -12 -6v6zM459 539q-5 0 -5 -5.5t5 -5.5t5 5.5t-5 5.5zM532 721l-6 -6h6v6z" />
<glyph unicode="0" horiz-adv-x="1560" d="M342 8q-12 10 -45.5 33.5t-52.5 42.5q-90 94 -138 165t-74 162t-26 212q0 67 8 146t16.5 135t24.5 148t23 138q23 41 69 131t86.5 161.5t79.5 121.5q42 54 104 115t141.5 132t115.5 107q45 45 145.5 85t167.5 40h12q7 -3 60 -19q20 -15 57 -40t60.5 -42.5t52 -42 t48.5 -53t32 -61.5q61 -161 80.5 -247t19.5 -232q0 -142 -33 -228l-233 -618q-4 -10 -20 -33t-19 -39q-59 -47 -133 -166l4 -18q-1 -1 -13 -20.5t-19.5 -29.5t-20.5 -26t-25 -24.5t-23 -10.5q-24 -54 -112 -113t-154 -59q-104 0 -266 47zM326 195q12 -11 110 -36.5 t115 -25.5q46 0 65 1t49.5 11.5t55.5 32.5q41 37 77 78t71 91t58 86t61.5 100t58.5 96q3 5 13.5 42.5t14.5 45.5q20 46 62 128t51 101q4 47 52 204.5t48 211.5v68t0.5 53t-1.5 42t-2 35.5t-6 32t-9 34t-15 38.5t-20 49t-27 62q-7 14 -30.5 22t-40.5 6l-19 11q-16 0 -47 5 t-47 5q-34 0 -85 -17.5t-87 -38.5h-6q-2 -1 -29 -18t-37 -25q-34 -32 -109 -98.5t-133 -123t-98 -107.5q-4 -6 -95 -166.5t-95 -169.5q-88 -185 -88 -469q0 -51 2 -86.5t11.5 -70t17.5 -55.5t31.5 -55.5t42 -57t59.5 -72.5zM602 1591q-32 -28 -51 -53h6q37 27 45 47v6z M758 1735v-6q42 37 118 74.5t123 37.5q99 0 148 -16l2 2q0 5 -5 10t-14 10.5t-15.5 9t-16.5 8.5l-11 5l-47 2q-63 0 -158.5 -46.5t-123.5 -90.5zM1171 1825l-4 -6q0 -4 4 -4v10z" />
<glyph unicode="1" horiz-adv-x="1005" d="M205 -133h-12q-20 9 -39.5 28.5t-29 33t-26.5 38.5q-1 1 -5.5 11t-4.5 12q-2 1 -8.5 8t-13.5 14l-7 8q-22 40 -32 101q-1 4 -15.5 64t-7.5 89l137 650l271 602h-6l-242 -223q-2 -2 -19 -9t-24 -8h-33q-3 0 -23.5 -6t-23.5 -6h-25q-4 3 -14.5 13.5t-13.5 15.5q-13 17 0 28 l538 467l183 213q4 4 12 4.5t18 -1t11 -1.5l6 6q18 9 39 5.5t33.5 -9.5t33.5 -20l4 -6q0 -3 8 -18.5t11 -16.5q3 -6 4 -17t4 -18l-59 -125l-7 -6l-106 -172q0 -13 -12.5 -21.5t-14.5 -13.5q-6 -11 -15 -28.5t-14.5 -28t-15.5 -24t-22 -25.5l-178 -351v-4l-166 -514 q-2 -1 -4 -14t-4.5 -29.5t-4.5 -21.5v-29q-6 -22 -28 -150v-129q23 -132 28 -149v-29q0 -5 13.5 -37.5t21.5 -44.5q0 -5 27 -41q2 0 6 -4.5t4 -7.5q3 0 3 -4t-3 -6q-6 -6 -10.5 -5.5t-13.5 3.5t-13 2q-3 -38 -57 -49h-6q-1 0 -18.5 3t-18.5 3zM276 -39q20 -41 23 -41h6 l-29 53v-12zM270 -16q-2 0 -2 -3.5t2 -3.5q3 0 3 3.5t-3 3.5zM231 39q1 -3 10.5 -12t12.5 -11q6 18 -12 58q-1 -2 -5.5 -12.5t-5.5 -12.5v-10zM236 104l-1 -7l1 -1q3 0 3 4t-3 4zM231 117q-5 0 -5 -6.5t5 -6.5q3 0 3 6.5t-3 6.5zM231 127q-5 0 -5 -5t5 -5q3 0 3 5t-3 5z M225 156l6 -6v6q0 8 -5 27.5t-7 21.5l-2 12q-8 -38 8 -61zM219 233q-1 0 -1 -6t1 -6q5 0 5 6t-5 6zM217 246l2 -6v28h-2q-3 -3 -3 -11.5t3 -10.5z" />
<glyph unicode="2" horiz-adv-x="1536" d="M188 -184q-1 2 -8 5.5t-15.5 7.5t-10.5 5q-4 1 -20 7t-27 10.5t-23.5 11.5t-17.5 14q-3 7 -11.5 20.5t-15 24t-6.5 12.5v11l-37 161l63 267l945 1181q0 2 53 119q0 3 3 13t3 12v45l-41 106q-8 11 -10 17q-4 4 -6 4q-8 7 -42.5 26.5t-45.5 24.5q-3 1 -20.5 4.5t-34.5 7 t-23 4.5h-101q-5 -2 -25.5 -11.5t-35.5 -10.5q-88 -59 -117 -84q-3 -2 -16 -16.5t-28 -32t-21 -23.5q-5 -6 -15.5 -22t-19.5 -23l-60 -135q-3 -1 -7.5 -21t-4.5 -28v-66l35 -157v-43q0 -5 -12 -11q-5 -5 -15.5 -11.5t-13.5 -6.5q-16 -3 -53 6q-7 1 -21 7.5t-14 8.5l-66 78 q-3 3 -14 41.5t-14 59.5q-15 58 4 143q2 7 14 43t14 43q9 21 33.5 63.5t28.5 45.5l123 129q2 0 8 5.5t6 6.5q2 2 30.5 27.5t33.5 27.5q12 9 71 39q54 22 135 41q14 -3 53 5.5t52 2.5l211 -88q27 -10 60 -55t44 -55q9 -13 37.5 -66t34.5 -68q10 -17 16 -42.5t2 -41.5 l-36 -178l-78 -157l-219 -250l-17 -10l-112 -123h-15l299 333q3 6 5 9.5t5.5 7.5t6.5 8q4 3 15 18t13 19q3 5 11.5 22t9.5 23q3 0 3 2t-3 4l-688 -790h12l125 143h6q-78 -108 -106 -139l-17 -17q-20 -26 -50 -85t-52 -87l-64 -155l-12 -17q0 -24 -16 -112v-29q0 -1 -2.5 -11 t-2.5 -12q-1 -1 -1 -9t1 -11l11 6l157 121l220 106l636 160h23l201 29q15 3 30.5 -9t8.5 -28q-8 -17 -34 -38t-34 -32l-897 -248q-9 -3 -61.5 -31.5t-69.5 -39.5q-16 -11 -54.5 -43t-45.5 -41q-24 -27 -80 -117q-10 -18 -23 -22t-33 4zM201 35q0 -12 4 -12h6v26l6 17 q1 7 4 61.5t12 79.5l72 176q2 3 19.5 29.5t19.5 31.5q29 58 29 64v10l-25 -22l-110 -213l-43 -160v-35q0 -6 3 -29t3 -24zM389 545q-1 0 -3 -4t-4.5 -8.5t-4.5 -6.5q2 2 9 9.5t9 9.5v6q-6 0 -6 -6zM406 567q-3 0 -3 -6t3 -6q4 0 4 6t-4 6zM573 752l48 45v-13l-43 -45h-5v13z M645 827l62 64h6v-6q-11 -11 -17 -23q-5 -4 -14.5 -14t-17 -17.5t-9.5 -7.5h-10v4zM1112 1386v-4q10 0 6 9q-4 -5 -6 -5z" />
<glyph unicode="3" horiz-adv-x="1482" d="M530 -27h-34q-6 0 -40 8t-38 11h-17l-196 71q-6 1 -45.5 48t-59.5 75q-2 1 -13.5 21.5t-27.5 50.5t-20 37q-6 12 -6 18q-2 10 -7 42t-6.5 41t-6 40.5t-5 40.5t-3.5 40.5t-1.5 41.5t0.5 43q3 6 17.5 32t17.5 32q4 2 6 6q3 2 13.5 8t19.5 11t10 5q10 5 40 16.5t38 12.5 q7 5 22 -10q4 -2 8.5 -4t7 -3t5 -2.5t4.5 -4t4.5 -6t5.5 -9.5v-6l-6 -8q0 -2 1.5 -3.5t3.5 -2.5h1q1 -7 -5.5 -19.5t-6.5 -15.5v-17q-4 -14 -36.5 -36t-41.5 -35q-4 -8 -4 -19q-5 -51 10 -116q4 -9 6 -13q9 -36 9 -43q2 -3 2 -12.5t-1 -20.5t-1 -12q2 -2 9 -16.5t9 -16.5 q1 -2 28 -33.5t33 -39.5q5 -7 33 -21q11 -5 58 -18t65 -17q45 0 160 -16h18q83 25 123 45q19 8 63.5 35.5t49.5 32.5l237 276q6 8 29 52.5t29 60.5q6 36 20 106q9 74 -26 207q-5 1 -8.5 9.5t-4.5 9.5q-5 12 -21 39.5t-18 29.5q-48 48 -65 60q-98 78 -172 61q-2 0 -6.5 -2 t-5.5 -2q-9 -1 -31.5 -1t-26.5 1q-13 2 -26.5 11.5t-29 24t-22.5 19.5q-14 6 -16 6q-23 13 -43 37q-10 10 -16 35q-3 16 4 16q30 -3 82.5 7.5t66.5 11.5h88q45 0 70 22q53 33 94 66q10 3 27 29q4 6 63 100q0 1 2 15t2 16q10 113 -28 157q-61 75 -129 105h-9q-70 -8 -116 -8 q-2 -1 -47 -18.5t-54 -22.5q-9 -4 -36 -24t-35 -28q-3 -2 -34 -32.5t-36 -32.5q-1 -2 -19 -15l-18 -14l-12 -10l-10 -16l-41 -41q-4 -4 -15.5 -8.5t-15.5 -8.5q-3 0 -29 -26q-2 -2 -5.5 -9t-6 -9.5t-9.5 -6t-14 1.5q-5 4 -17 17t-13 18q-3 2 -3 21t3 28q0 5 10 45q0 3 7 17 t7 16l129 145q2 1 24.5 17.5t51.5 37t43 29.5q34 17 43 23q1 0 16.5 1t16.5 1q11 7 55 22h6q5 3 36 8t38 5q22 2 69.5 2t51.5 -2l41 -13q7 -2 50.5 -29.5t59.5 -41.5q9 -8 46 -44.5t49 -49.5q30 -45 39 -60q21 -41 24 -102.5t-2 -104.5q0 -10 -6 -28q-1 -6 -23 -50 q-7 -12 -36 -42t-29 -31l-12 -6l-101 -78v-6q4 -14 11.5 -19.5t22.5 -9t24 -8.5q21 -26 71 -68q5 -4 20.5 -14.5t22.5 -18.5q11 -24 42 -95.5t38 -92.5q20 -88 33 -172l16 -23v-112q0 -42 -6 -51q-34 -123 -43 -138q-8 -21 -40.5 -78t-45.5 -71q-7 -14 -44 -57.5t-50 -55.5 q-1 -1 -4.5 -3t-6.5 -4t-3 -3q-61 -61 -80 -72q-16 -11 -74.5 -45t-75.5 -41q-6 -3 -41 -13.5t-43 -12.5q-58 -21 -110 -23q-9 -1 -23.5 -4.5t-19 -3.5t-23.5 2q-7 0 -37.5 7t-34.5 9zM979 100v-2l29 15q13 5 96 88q1 5 23.5 37.5t23.5 35.5q25 25 29 27l96 174q6 3 6 11 t-6 10q-12 -2 -12 -21l-101 -174l-178 -188q-1 0 -3.5 -5.5t-2.5 -7.5zM1294 590v-19q6 0 6 15q0 4 -6 4zM1300 625q-1 2 -1 0l1 -11q4 2 4 6t-4 5zM1300 680v-37h7v47q-7 -8 -7 -10zM1294 774l-1 -10l1 -10q4 3 4 10.5t-4 9.5zM1292 797q-4 0 -4 -5.5t4 -5.5q2 0 2 5.5 t-2 5.5zM1286 844q-4 0 -4 -3t4 -3q3 0 3 3t-3 3zM1276 866l4 -6v6h-4zM1276 881q-4 0 -4 -6.5t4 -6.5q3 0 3 6.5t-3 6.5zM1270 897v-10h6zM1257 926q0 -1 2.5 -3.5t4.5 -2.5q0 11 -7 18v-12zM1251 954q-1 -1 0 -6q3 0 3 2t-3 4zM1241 975q2 -8 6 -12q14 11 0 18q-6 0 -6 -6 zM1241 991q-3 3 -3 -0.5t3 -3.5q4 4 0 4zM1157 1126q-5 0 -5 -5t5 -5t5 5t-5 5z" />
<glyph unicode="4" horiz-adv-x="1792" d="M799 -184q-33 14 -70 37q-5 26 -20 63q-11 43 -11 111q0 4 -3 42t-3 42v10q0 2 3 22t3 21v47q0 15 2 37t2 35h-28l-373 -101q-5 -3 -41 -21.5t-41 -21.5q-32 -15 -56 -2t-50 45l-5 8q-6 8 -8 9q-1 2 -11 9.5t-11 8.5q-8 -4 -10 0q-15 14 -19 16l-8 3l-16 18l-7 16 q-3 3 -10.5 15t-7.5 14q-2 11 -2 34.5t2 26.5l6 5l438 1093l84 551q9 8 13 10q21 16 73 -16q27 -18 27 -23q1 -2 10 -13.5t17.5 -24t11.5 -17.5q0 -10 6 -16q0 -2 6 0t13 4t10 0q0 -2 2.5 -13t3 -18t-0.5 -16t-5 -13v-100q0 -1 -3 -11t-3 -11q-1 -6 -1 -29t1 -29l-35 -237 v-47l-51 -172q-5 -6 -10.5 -41.5t-4.5 -47.5l-45 -122q-9 -9 -14 -17.5t-10 -21.5t-11 -23l-2 -6q-6 0 -6 -10q-2 -3 -9 -33.5t-9 -32.5q-25 -62 -62 -129q-2 -3 -14.5 -11t-20.5 -16.5t-4 -15.5l-131 -291l471 101l123 450q8 9 10 13q8 4 18.5 5t25 0t18.5 -1q1 0 5 -2 t5 -2q36 -30 41 -35l55 -94v-50l-43 -172v-94q88 3 209 -12h17q138 -12 213 -12q26 -2 114.5 -2t114.5 2l31 -5v-18q2 -1 9 -5t9 -5l4 -6q3 -5 8 -23t5 -20t-3.5 -12t-3.5 -11v-12q0 -1 -7.5 -5.5t-8.5 -6.5q-14 -15 -18 -17q-15 -2 -17 -6q-2 0 -8 -4.5t-6 -5.5l-174 -21 q-6 -6 -14 -6q-5 0 -44 3t-43 3h-10q-70 0 -180 11h-221l-4 -5q20 -25 4 -41q0 -10 0.5 -30.5t0.5 -34t-1 -31.5t-4 -33l-6 -8q-6 -16 -6 -35t3 -42t3 -35q4 -48 1 -102.5t-20 -98.5q-1 0 -10.5 -3t-11.5 -3l-21 -10q-1 0 -25 -3.5t-32 -3.5h-29q-18 9 -18 13zM924 -96 q-4 0 -4 -6.5t4 -6.5t4 6.5t-4 6.5zM918 -80l6 -10v49q0 -27 -6 -33v-6zM924 39q3 -9 3 -35t-3 -35h6q6 21 6 29q1 9 0 16.5t-3 16.5t-3 16v41h-6q-6 -4 -6 -14t3 -21.5t3 -13.5zM924 154v-43h6q6 24 6 71v6l-6 -6q0 -19 -6 -28zM551 1073q0 -5 -10 -45q10 5 10 16l57 173 v22l-57 -154v-12zM621 1280v-12q2 10 2 12q2 4 41 121q-7 69 13 202t15 199h-6q-4 0 -12 -53.5t-8 -83.5v-90zM686 1890l6 -28v28h-6z" />
<glyph unicode="5" horiz-adv-x="1720" d="M625 -39q-9 2 -30 3t-37.5 5t-27.5 15l-215 61q-42 14 -57 29q-14 14 -18 14q-1 1 -16.5 9.5t-30 15.5t-19.5 8q-8 7 -52.5 52.5t-53.5 53.5q0 2 -5 9.5t-11.5 17t-8.5 14.5q-6 0 -6 11l-35 133v28l6 6q1 1 5.5 18t6.5 19q1 7 12.5 27t16.5 25q3 6 21.5 25t25.5 24 q26 7 36.5 -1t12.5 -36v-25q3 -1 11.5 -18t11.5 -27q6 -2 6 -6v-2q0 -4 -4 -21t-6 -20q0 -1 2 -8t2 -8q3 -19 -1.5 -54.5t-2.5 -52.5q4 -8 4 -12q5 -4 21.5 -19.5t19.5 -17.5q44 -33 84 -57q4 -2 4 -6l369 -105q33 0 53 4q4 2 43 12.5t43 12.5h8l92 28l228 144 q4 2 20.5 18.5t39 40t28.5 29.5q5 7 22 31t19 26l59 144l41 229v106q0 6 -4.5 26t-7.5 24q-6 15 -25 53t-27 47q-2 4 -6 4q-27 45 -82 78l-39 22l-194 54q-19 -3 -58.5 5.5t-58.5 4.5l-366 -101l-201 -100q-22 -19 -32.5 -27.5t-28.5 -15.5t-39 -8h-48q-7 7 -49 35 q-18 12 -18.5 33t14.5 38q2 3 14.5 11t14.5 12v22l143 435q12 15 17 65q0 16 16 64v10h-211q-12 0 -27 11t-22 22q-6 7 -16.5 26.5t-12.5 24.5q-9 21 -6 55t18 55q2 3 11 12t12 9q1 1 5.5 1.5t10 0t10.5 -0.5l5 -1q25 1 73 3.5t77.5 4t70 5.5t74.5 10q2 0 3.5 1.5t1.5 2.5 l1 2q0 2 6 17.5t6 16.5q1 1 8 15.5t8 15.5q0 5 5 24t8 23q0 8 16 29q4 2 4 6l10 2l41 -8l66 -70q2 -2 7 -14t5 -16v-35q2 -14 94 6q87 6 111 6l6 4q125 -4 394.5 7.5t412.5 4.5q-4 -1 -5.5 -15t-2 -31t-2.5 -23l-17 -15q-1 -2 -5.5 -7.5t-6.5 -8t-6 -7t-7 -7t-7.5 -6 t-9 -5.5t-9.5 -4q-2 0 -13 -3t-13 -3l-6 -6q-6 -1 -17.5 -7.5t-11.5 -8.5q-7 -1 -39.5 -11t-36.5 -10q-45 -8 -122 -14t-91 -8h-6l-6 -6l-332 -35q-44 4 -123 -4q-184 -20 -184 -25l-10 -2l-177 -485h15l65 39q7 4 20 5t19 5l269 90q2 0 16 2t16 2q1 0 16.5 6t16.5 6 q9 1 21 0t19.5 0t14.5 6h152l201 -57l90 -49l153 -150q5 -2 47 -73q0 -5 11 -27q2 -3 16 -28.5t16 -28.5q1 -1 5.5 -12.5t10 -26.5t7.5 -21v-6q1 -3 5 -27.5t5 -27.5v-168q-8 -47 -4 -72l-61 -229l-95 -150q-6 -9 -57.5 -53t-77.5 -63q-21 -17 -76.5 -50.5t-68.5 -39.5 l-199 -66q-1 0 -10.5 -1.5t-22 -3t-18.5 -1.5h-35q-3 0 -32.5 -5t-32.5 -5h-84q-2 0 -11.5 3.5t-20.5 7.5t-13 5z" />
<glyph unicode="6" horiz-adv-x="1736" d="M834 -23l-195 101l-107 90l-108 149q-4 6 -21.5 46t-23.5 59q-2 5 -9.5 42.5t-9.5 41.5q0 12 -10 22h-6l-8 -6l-195 -194q-22 -32 -39 -48t-47 -30h-6q-46 16 -49 55v51q6 42 16 62l244 282l84 72v29l35 200l110 267l150 219l195 182l206 129l385 139l15 3q14 2 20 2 q8 2 23.5 9t23.5 9q5 0 21.5 3t27 4t23 -2t18.5 -11q17 -17 17 -23v-37q0 -6 -10 -15t-7 -13q-47 -68 -106 -84l-533 -289l-241 -262l-2 -10q-10 -17 -41 -58l-101 -221q-1 -10 -7 -27t-5 -30h6l191 51q10 0 22 16q25 -1 70.5 2t67.5 2q3 0 25.5 -2t25.5 -2h35q4 -4 43 -4h6 l278 -86l166 -143q5 -9 17.5 -23.5t17.5 -23.5q12 -21 32.5 -63t20.5 -46q4 -9 12.5 -56t10.5 -67v-57q0 -2 -2 -13.5t-2 -13.5v-16l-33 -113v-6l-45 -82q-1 -1 -19.5 -18.5t-41 -39t-33.5 -32.5q-2 -1 -16.5 -10.5t-18.5 -11.5l-15 -7q-4 -1 -37.5 -17.5t-37.5 -18.5 q-1 -1 -25 -6t-29 -5l-12 -6q-5 -3 -21 -7.5t-18 -4.5h-55q-3 0 -25 -3t-24 -3h-86q-114 15 -178 28zM817 199q83 -22 146 -49h43q172 21 176 24l143 59q1 1 10 8t20 15.5t15 11.5q40 32 49 66l45 160v41q-3 17 -11 43.5t-11 27.5l-123 107q-7 7 -59 28q-4 1 -31.5 6.5 t-55 10t-38.5 4.5h-66q-1 0 -14 2t-15 2h-6q-3 3 -33.5 7.5t-37.5 4.5q-29 2 -89 -6q-62 0 -65 -6q-12 0 -12 -4q-13 0 -61.5 -10.5t-67.5 -16.5q-5 -2 -26.5 -13t-27.5 -15l-69 -50v-106l12 -23l33 -139l39 -61l145 -117q6 -4 22 -6.5t21 -5.5zM729 205q6 -6 10 -6 q0 4 -3.5 6t-6.5 0zM717 217v-6h6zM709 227q-5 0 -5 -5t5 -5t5 5t-5 5zM561 356l6 -6q6 6 -6 12v-6zM557 379q-5 0 -5 -5t5 -5q3 0 3 5t-3 5zM551 389q-3 2 -3 -2t3 -4q1 1 1 3.5t-1 2.5zM539 399q6 0 6 -6v13h-6v-7z" />
<glyph unicode="7" horiz-adv-x="1814" d="M397 -43l-6 6l-45 12q-4 4 -15.5 16.5t-14.5 15.5t-11 13t-10 15t-6.5 14.5t-5.5 18t-2.5 20t-1.5 25.5q0 124 81.5 381.5t147.5 355.5q68 99 177.5 234.5t250 301.5t194.5 232h-10q-15 -7 -83 -38.5t-88 -40.5t-83 -36.5t-89.5 -37.5t-85 -32t-91.5 -31t-86.5 -23.5 t-94 -20t-89 -10.5t-94.5 -5h-146q-40 17 -64 58t-24 86q0 11 10 31q42 0 124.5 8t123.5 8q108 0 293 59.5t283 122.5h22l244 111q12 15 43 31.5t43 31.5l108 56h13l28 16q35 46 125.5 97.5t134.5 51.5h7q12 -12 48.5 -32t56.5 -45.5t20 -71.5q0 -33 -12 -58t-27 -38 t-40 -33t-40 -37l-602 -668l-2 -12q-5 -7 -34 -44.5t-53 -68.5t-26 -32q-30 -53 -81 -142q-143 -249 -188 -351.5t-176 -475.5q-11 -30 -16 -45l-12 -4zM408 12l6 -26h6q14 58 14 77v13h-8q-16 -54 -18 -64zM475 219q-35 -88 -41 -133h6l39 115v18h-4zM686 709 q-3 -19 -24.5 -47.5t-26.5 -40.5l-150 -392q13 6 67.5 125.5t119.5 266.5t92 194l-12 -6q-6 -12 -33.5 -54.5t-32.5 -45.5zM813 881q-23 -18 -27 -31z" />
<glyph unicode="8" horiz-adv-x="1359" d="M389 -16q-1 1 -14 8.5t-15 9.5l-143 37q-4 1 -63 35q-8 5 -28.5 24t-37.5 25v4q-22 26 -55 76q-7 6 -10.5 22t-6.5 21q-2 8 -9 58t-9 58v91q0 4 6 22q1 4 6 14t11 19t6 10l184 217q57 45 78 84l168 139l-174 273l-50 143q-9 12 -4.5 63.5t4.5 61.5l43 182l58 113l106 107 l193 59q19 6 43.5 6.5t41.5 -1t47.5 -6t41.5 -5.5h5q4 1 8 1.5t8.5 0t5.5 -1.5q13 0 16 -6q29 -5 35 -11q30 -24 30 -43q3 -5 3 -27t-3 -28q0 -10 -11.5 -19.5t-18.5 -9.5l-148 -16q-10 -4 -16 -6l-8 -6q-23 0 -23 -6q-3 -1 -14.5 -13.5t-13.5 -15.5h-29q-6 -14 -12 -14 q-5 -2 -17 -5t-17 -5t-13.5 -6.5t-15.5 -11.5t-15 -17q-3 -5 -9.5 -27t-15.5 -29q-7 -11 -17 -52.5t-12 -57.5q-3 -14 -3 -54.5t3 -52.5q0 -5 37 -145q8 -17 33.5 -61.5t34.5 -53.5q0 -6 6 -6q8 -6 12 -6l4.5 -9t5.5 -10.5t6 -7t9 -2.5t12 6l189 150q2 2 9 11t9 11 q48 48 72 68l135 178q11 21 16 43q0 6 5 28.5t8 28.5q3 46 -11.5 72.5t-52.5 61.5v38q-6 15 -6 19q0 6 12 14q48 35 128 -56l5 -5q2 -1 5.5 -6.5t8 -13t5.5 -9.5q4 -11 13 -62t11 -69q3 -9 3 -34.5t-3 -31.5q-1 -19 -11 -60.5t-13 -51.5l-129 -178l-320 -281v-2 q3 -9 6.5 -14t11 -11t11.5 -10l6 -12q73 -104 84 -117q51 -71 78 -100l45 -133q1 -1 8 -8.5t8 -8.5q5 -10 5.5 -12t-4 -9t-5.5 -13v-7q0 -10 4 -22v-144q0 -7 -10.5 -39t-17.5 -42q-1 -4 -24 -35t-34 -43q0 -2 -9 -12t-9 -11q-2 0 -3.5 -3t-1.5 -6l-1 -3q-4 -4 -28.5 -27 t-29.5 -28l-20 -17l-6 -6l-180 -88q0 -2 -3.5 -3.5t-7.5 -2.5h-4q-18 -4 -66 -10t-57 -6h-65q-3 0 -15.5 2t-13.5 2zM594 25q0 2 -10 0q0 -3 2 -4t4.5 0t3.5 4zM750 113q-4 0 -4 -5.5t4 -5.5t4 5.5t-4 5.5zM784 133q-4 0 -4 -5t4 -5t4 5t-4 5zM807 145q-2 2 -6 -1.5t0 -4.5 q6 0 6 6zM348 184q36 -9 123 0l6 6q1 0 13 3.5t16 3.5l172 94q1 0 10 11.5t19 26.5t14 23q4 3 10 18.5t6 20.5v113q0 25 -4 37q-2 7 -13.5 48t-12.5 46q-9 27 -17 35l-135 159h-18q-1 0 -9 -4t-10 -6l-129 -100q-25 -42 -72 -72q-17 -15 -59.5 -60t-52.5 -59 q-12 -14 -42 -58t-36 -58q-4 -78 20 -109q55 -55 58 -57q46 -37 143 -62zM227 209q-5 0 -5 -6t5 -6t5 6t-5 6zM862 209q-4 0 -4 -6t4 -6q3 0 3 6t-3 6zM221 213q-3 0 -3 -5t3 -5q5 0 5 5t-5 5zM956 612q-2 1 -3 -2q-1 -8 3 -10q2 3 2 7.5t-2 4.5zM721 948l229 -330 q2 24 -12 58q-2 5 -8.5 18t-7.5 13l-113 151q-8 10 -8 12q-4 1 -19 25t-16 25q-2 4 -12.5 14.5t-23.5 22.5t-15 14q0 -5 6 -23zM526 1221q-3 0 -3 -3.5t3 -3.5q4 0 4 3q-1 3 -4 4zM489 1255q3 -7 14.5 -17.5t14.5 -10.5h4v4q-10 20 -10 24q-6 0 -6 5q-30 67 -41 190 q0 1 -2 18.5t-2 18.5q0 18 10 46.5t12 37.5q0 2 2.5 14t5 26.5t3.5 20.5v6h-5q-3 0 -15 -27t-19 -46q-6 -19 -6 -21v-12q-1 -11 -5 -36t-5.5 -36.5t-3 -36.5t0.5 -37q2 -3 4.5 -12t5 -19t3.5 -12q2 -2 9 -14.5t7 -13.5q2 -3 9 -25t9 -24zM494 1671v-20h6l18 24q0 6 -6 6 t-12 -6zM543 1729v-7l12 11q-4 0 -12 -4zM600 1753q-6 0 -6 -6q21 0 24 6q-3 3 -9 3t-9 -3z" />
<glyph unicode="9" horiz-adv-x="1275" d="M946 -33q-10 4 -20.5 9.5t-17.5 10.5t-17 15l-14.5 14.5t-14.5 18t-12.5 17t-14 20t-12.5 18.5l-8 21l-41 223v16q0 6 -5 66.5t-5 66.5v117q0 7 5 67.5t5 67.5q6 86 6 266q-1 -3 -11 -17t-11 -17v-11l-84 -98q-1 -4 -16.5 -17.5t-22.5 -17.5q-1 -2 -14.5 -21t-25.5 -35.5 t-15 -18.5q-1 -4 -19 -22.5t-26 -25.5q-10 -5 -21 -16q-2 0 -11.5 -4.5t-10.5 -7.5l-13 -8q-7 -7 -10 -7q-11 -4 -67.5 -15.5t-59.5 -12.5h-80l-18 6l-8 6q-15 0 -35 10q-76 44 -117 115q-89 180 -78 348q14 170 19 178l137 377q10 20 35 55l4 7q5 5 23.5 32t19.5 31 q2 0 12 9t12 9q1 1 3.5 5.5t5 8t2.5 5.5q13 12 63.5 48.5t65.5 45.5q2 1 26.5 12t55.5 25t45 20q19 0 22 7h123q22 -3 65.5 -14t47.5 -15l94 -78q0 -11 10 -25.5t18 -9.5q0 4 3 16t7.5 26t4.5 16l6 8q2 8 9 33.5t11.5 39.5t12 35t16 37.5t19.5 30.5h49q10 0 22 -12 q62 -38 49 -111q0 -5 -16 -53q-3 -7 -12 -64.5t-9 -66.5q0 -1 -3 -8.5t-3 -8.5v-24l-106 -555v-23q-10 -50 -10 -84q-1 -14 -7 -172q0 -1 -3 -17t-3 -18v-10l6 -4q7 -28 7 -35q0 -4 -6.5 -36t-6.5 -35v-174q0 -2 2.5 -8.5t3.5 -6.5q0 -1 3.5 -1t3.5 1v-188l59 -230l6 -6 q15 -31 51 -135q0 -1 3 -13t3 -14q-40 -52 -141 -10zM993 412q-6 9 -6 63q-9 111 -6 283q0 25 6 43v295l6 24q0 -32 6 -41q3 -6 5 -6v-53q-1 -17 -4.5 -85.5t-4.5 -92.5t-3 -83.5t-1.5 -92.5t1 -83t4 -92.5t8.5 -84.5l-5 -13q-6 6 -6 19zM244 807q2 0 9 -3t9 -3h6v12l-32 35 q-1 -8 2 -22t6 -19zM262 848q2 -2 19.5 -17t19.5 -18h25q27 5 59 16q14 6 47.5 27.5t40.5 28.5l225 217q0 1 14 24.5t17 30.5q58 135 64 152l94 450q0 11 -6 17q-39 26 -45 28q-9 8 -13 8l-20 19q-6 6 -33 6h-6q-28 5 -61.5 4t-61.5 -16q-3 -1 -34 -18.5t-34 -18.5 q-3 -6 -16 -6l-121 -101l-151 -284q0 -1 -2.5 -9t-6 -19.5t-4.5 -16.5v-6q0 -1 -10 -36.5t-12 -41.5v-4q-6 -21 -11 -41t-8.5 -44t-5.5 -37.5t-4 -43t-3 -38.5t-3 -45t-2 -42q-4 -44 6 -72q6 3 6 19q0 28 4 36v35q0 6 13 45v13l-13 8v6q1 12 4.5 42.5t5.5 52t3 22.5 q0 1 8 41q6 0 6 10v20l12 13l4 10q7 7 7 0v-35l-7 -18q0 -60 -4 -76q0 -13 -12 -49v-54q0 -4 -3 -32t-3 -31v-107q6 0 6 -10zM225 891q-5 0 -5 -6t5 -6q3 0 3 6t-3 6zM999 1157q0 12 6 55.5t9 55.5q2 -3 2 -18t-2 -19q0 -4 -15 -94q-3 1 -3 9t3 11zM1018 1352q3 6 7.5 33.5 t4.5 35.5v4l41 205q0 2 5.5 2t10.5 -2q7 -4 7 -6l-19 -31l-57 -301v60z" />
<glyph unicode=":" horiz-adv-x="380" d="M213 791q-11 8 -25 29.5t-26 29.5q-1 21 -1 39.5t7 37t22 31.5q4 3 13.5 8.5t17 9.5t8.5 5q13 0 43 -6q9 -4 16 -14t9.5 -19t5.5 -23t4 -18q3 -7 10.5 -19.5t11 -19.5t6.5 -20.5t-3 -22.5q-9 -23 -54 -32.5t-65 4.5zM219 352q-10 7 -25.5 29t-25.5 29q0 22 -1 41t7 37.5 t25 31.5q3 4 18 13t16 10q31 0 43 -8q12 -4 19 -17.5t12 -32t8 -24.5q3 -9 12 -26t11.5 -25.5t-0.5 -28.5q-10 -23 -54.5 -33t-64.5 4z" />
<glyph unicode=";" horiz-adv-x="409" d="M147 240q-23 12 -32.5 26t-12.5 41v23l148 164h16q3 0 20.5 -17.5t24.5 -27.5q27 -38 17 -84q-33 -55 -45 -70l-4 -4q-33 -26 -64 -45q-5 -1 -16 -4t-18.5 -5t-17 -1.5t-16.5 4.5zM193 766q-11 9 -27.5 32t-28.5 31q0 23 -0.5 43.5t8 40.5t25.5 33q4 4 21 14.5t18 12.5 q13 0 45 -8q13 -5 20.5 -17.5t14 -37t6.5 -25.5q3 -9 13.5 -27.5t12 -27t-1.5 -31.5q-10 -24 -58 -35.5t-68 2.5z" />
<glyph unicode="&#x3c;" horiz-adv-x="540" d="M444 397q0 -1 -2 -3.5t-4 -2.5q-4 -1 -15 -1t-13 1l-367 203q-21 12 -21.5 32.5t11 38.5t26.5 31q6 6 13 6q3 0 30.5 5.5t30.5 5.5q1 0 6 3t6 3q6 6 17 6l198 102h5q2 0 17 5.5t17 5.5h35q8 -5 10 -7l7 -4v-34l-45 -45l-191 -113l133 -86l103 -119l6 -29q-1 0 -6.5 -2 t-6.5 -2z" />
<glyph unicode="=" horiz-adv-x="727" d="M195 526q-1 1 -8.5 6.5t-17 12.5t-13.5 10q-2 0 -4 2.5t-2 3.5q-2 3 -9.5 16t-13 22.5t-6.5 10.5v23q0 1 2.5 3.5t3.5 2.5l526 115h6q2 0 6.5 -9.5t4.5 -15.5q2 -5 2 -17.5t-2 -15.5q0 -2 -29 -45q-3 -7 -16 -11t-17 -7q-3 -2 -22.5 -16t-22.5 -17q-6 -6 -12 -6l-277 -80 q-17 -4 -40.5 -0.5t-38.5 12.5zM150 741q-23 8 -46 23q-10 5 -34 29q-22 22 -17 51q4 4 6 4q4 3 13.5 9t17 10t8.5 5l295 84h10l177 35h45q2 -8 7.5 -23.5t7.5 -24t-1 -21t-14 -23.5l6 -4l-39 -47l-352 -113h-62q-16 0 -28 6z" />
<glyph unicode="&#x3e;" horiz-adv-x="473" d="M45 397q-1 0 -6 2t-6 2l6 29l102 119l133 86l-190 113l-45 45v34q4 4 6 4l10 7h35q2 0 17.5 -5.5t17.5 -5.5h4l199 -102q10 0 16 -6q1 0 6 -3t6 -3q3 0 31 -5.5t31 -5.5q6 0 12 -6q15 -13 26.5 -31t11 -38.5t-21.5 -32.5l-366 -203q-2 -1 -13 -1t-16 1q-1 0 -3.5 2.5 t-2.5 3.5z" />
<glyph unicode="?" horiz-adv-x="1255" d="M303 -20q-29 29 -33 34q-7 7 -13 15t-12 19t-9 17.5t-9 20.5t-8 18q-11 24 -20.5 72t-14.5 64q14 39 97 12l6 -6q3 -2 12.5 -9.5t13.5 -11t11.5 -10t12 -11.5t9.5 -12t8 -14q20 -92 23 -115v-4q16 -48 16 -51q1 -4 1 -18t-1 -17q-1 -7 -13 -13t-20 -3q-33 11 -57 23z M207 387q-4 4 -7 9.5t-5.5 13.5t-4.5 12q-6 16 -16 90q-2 3 -2 14.5t2 14.5q1 14 16.5 69.5t22.5 71.5q7 18 33.5 63.5t34.5 55.5l436 418l10 6l221 231q8 8 41 65t45 83q7 15 26.5 69t24.5 72q0 1 3.5 25t7.5 56l6 48v6q-5 47 -16 74.5t-42 50.5q-3 3 -23 14.5t-28 14.5 q-30 10 -32 10q-9 2 -31 2t-27 -2l-119 -33l-266 -182l-141 -141q-2 -2 -17.5 -8.5t-26.5 -16t-7 -21.5h6q3 -3 -1 -5.5t-9.5 -5.5t-6.5 -5q-1 -3 -6 -17.5t-6 -17.5q2 -14 0 -16q0 -1 -5 -11.5t-5 -11.5q-12 -35 -19 -79q-1 0 -7.5 -2.5t-8.5 -2.5l-10 5q-2 1 -4 1t-2 -1 q-2 -3 0.5 -7t5.5 -7l4 -3q54 -18 74 -22q5 -2 17.5 -2t16.5 2q47 24 80 51q12 12 68 84q37 61 39 67q-1 2 -1 7t1 6q23 22 56.5 -1t52 -67t3.5 -74q0 -4 -26 -39q-18 -22 -35 -22q-61 -43 -102 -64q-20 -10 -74 -28h-29q-36 6 -49 6q-26 7 -102 39q-82 66 -74 227 q0 33 6 45q0 3 16 35q1 1 3.5 11.5t3.5 11.5q4 4 6 4l10 6q20 31 23 41l278 254l164 102l192 49q3 1 20.5 1t24.5 -1q6 0 28 -6.5t28 -9.5q12 -5 70.5 -36t60.5 -32q0 -1 2 -3.5t4 -2.5q14 -10 16 -10q56 -56 56 -57l69 -130q0 -2 2 -14t2 -14q1 -13 1 -46.5t-1 -39.5 q0 -6 -6.5 -30t-9.5 -32q-16 -32 -23 -39q-6 -18 -6 -24l13 -4q-1 -2 -11 -25t-12 -26q-8 -17 -12 -17q0 -1 -2 -1t-4 1v17q-11 -11 -23 -17l-4 -6q3 -2 4 -6t0.5 -7.5t-2.5 -9t-2 -6.5q-9 -19 -34 -55t-34 -57l-143 -160q-29 -17 -39 -23q-4 2 -6 0q-16 -11 -16 -32 l-222 -267h-10l-41 -51q-6 6 -4 13l-18 -13l-97 -112l-10 -23l17 10v-4q-4 -5 -12 -13.5t-11 -8.5q-1 -2 -5.5 -2t-4.5 2q-28 -33 -74 -97q-10 -16 -21 -44t-20 -42l-39 -135q12 -49 -16 -80q-6 -6 -41 -6q-5 5 -45 35zM1012 1436l-404 -506h6l301 368q4 1 19 12.5t20 16.5 q99 92 136 168h-5l-57 -59h-16z" />
<glyph unicode="@" horiz-adv-x="1529" d="M643 281q-1 0 -61 20q-19 14 -21 16q-1 0 -10.5 2.5t-11.5 2.5q-99 53 -142 75q-15 13 -48 45t-40 43q-92 152 -119 299v205q0 39 9 53q72 214 243 328q68 34 88 41q1 3 9.5 5.5t11.5 2.5q10 1 110.5 14.5t120.5 14.5h17q1 0 24 -6t27 -6q2 -1 11 -1h18t18 0.5t10 0.5 q10 -2 42 -11.5t40 -13.5q16 -6 48 -19.5t34 -15.5l164 -215q9 -22 74 -147q1 -3 10.5 -16.5t9.5 -14.5q3 0 1 -5q-1 -1 -1 -2v-1q3 -5 5.5 -41t2.5 -49v-13q0 -3 -2.5 -12t-5.5 -10q0 -5 -3 -33.5t-3 -32.5v-92q-1 -4 -8 -20t-16 -36t-11 -24q-4 -4 -35.5 -41.5 t-40.5 -46.5q-1 -1 -26.5 -23t-32.5 -26l-12 -10l-180 -45q3 -2 12 -17t10 -22v-49q-2 -17 -45 -39q-5 -1 -18.5 -4t-25.5 -5.5t-15 -2.5q-1 0 -32 -2t-71.5 -4t-60.5 -3h-13q-57 7 -59 9zM649 406q3 -2 30 -5.5t36 -3.5h147q37 0 60 23q2 2 2 4t-2 2q-20 7 -39.5 25.5 t-32.5 27.5q-28 14 -31 17q-32 22 -47 62.5t-12 84.5q-3 3 -12 -5t-20.5 -19.5t-18.5 -14.5q-5 0 -26.5 -5.5t-27.5 -8.5q-1 -1 -34 -23q-7 -4 -17 -19.5t-22 -23.5q-21 -13 -43 0q-33 20 -53 50t-26 70t-6.5 71t3.5 76q8 67 16 90q7 27 49 139q12 28 68 98l147 117 q16 1 48 17.5t44 13.5q5 -5 39 -27t39 -27q12 -6 25 -28q1 -3 14 -45.5t15 -51.5v-8q0 -1 -3.5 -10t-3.5 -10q-3 -4 -8 -14.5t-9.5 -20t-4.5 -10.5q-2 -2 -5.5 -6t-5.5 -6.5t-3 -2.5q-24 -12 -31 15q-1 3 -4.5 25t-3.5 26q-2 2 -11.5 18t-9.5 19q-2 4 -6 16.5t-9 19.5t-14 9 h-55q-25 -3 -41 -21.5t-21 -36.5t-10 -48.5t-8 -41.5q-1 -2 -6.5 -14.5t-10.5 -24.5t-5 -16q-7 -21 -9.5 -64t-13.5 -67q0 -1 -7 -8t-7 -8v-13q-8 -16 -8 -24v-6q-2 -5 -7.5 -14t-8.5 -14.5t-4.5 -15t-0.5 -18.5l185 144l43 96q1 0 9 2.5t19 5.5t17 4q17 5 30.5 -6t19 -24 t9.5 -29q2 -17 2 -34t-2 -36.5t-3 -32.5t-5.5 -35.5t-7 -33t-8 -36.5t-7.5 -34q0 -3 -9.5 -37t-4.5 -51q2 -4 14 -16h90l23 7q23 7 29 9l30 12l119 135l31 58q0 26 6 125v69q-3 11 -33 72t-33 68q-15 24 -70 95t-73 91q-14 14 -20 14q-8 3 -29 10.5t-32 11t-31 10t-34 9 t-32 5.5t-34.5 2.5t-31.5 -3.5l-243 -45l-136 -88l-49 -76l-67 -176v-43q0 -31 3 -89.5t5 -61.5q3 -20 26 -83t33 -77q0 -3 6 -14t7 -13q6 -5 28 -22.5t40 -31.5t22 -17l21 -11q21 -11 45.5 -23.5t37.5 -18.5l21 -5l8 -8q6 -5 20.5 -12t26 -12.5t12.5 -5.5z" />
<glyph unicode="A" horiz-adv-x="1935" d="M1651 -74q-2 2 -22.5 13t-22.5 12q-15 2 -15 4l-22 14l-135 176l-43 82l-58 269v147q0 3 3 29t3 28q6 79 7 84l5 19q5 19 5 22q2 9 4 30t2 24q0 2 3 14.5t3 13.5v62l-18 4h-230q-1 0 -12 -2t-25.5 -4.5t-21.5 -3.5l-17 -7l-243 -321l-357 -340q-13 -7 -51 -35 q-8 -8 -12 -8q-7 -7 -41.5 -27.5t-46.5 -25.5q-3 0 -19.5 -5t-17.5 -6q-3 0 -7.5 -2t-4.5 -4q-7 -1 -47 -8t-47 -8h-80q-11 2 -24 10.5t-19 18.5v10q-1 3 -3.5 9t-3 9t1 7.5t5.5 9.5q36 5 88 20h6l72 16l94 70l6 8l495 531q7 8 7 12v4h-7l-100 -33h-16q-3 0 -19.5 -10.5 t-19.5 -13.5q-3 0 -20.5 -4.5t-18.5 -5.5q-12 -4 -23.5 -9.5t-23.5 -14.5t-18.5 -14t-21.5 -17.5t-20 -16.5q-2 -2 -7 -4t-8.5 -5.5t-6.5 -9.5q-3 -12 3 -44t-3 -44q-6 -10 -21 -11.5t-22 5.5q-7 6 -20.5 18.5t-14.5 16.5q-2 2 -15 28.5t-16 37.5q-12 30 -3 65.5t28 56.5 q61 68 70 68l460 174q2 0 8 0.5t8 1t8 1t8.5 1.5t7.5 2t8 3t6.5 4.5t6.5 6t5 7.5l579 903q11 6 20.5 29.5t14.5 29.5q0 2 15 17q3 2 17 12t17 12q0 -6 7 -6h28q13 0 37 -12q7 -3 13 -7t13 -11t13 -11q2 -1 19.5 -8t19.5 -8l10 -8q2 -4 7 -11t8.5 -12t3.5 -6q1 -5 1 -21.5 t-1 -25.5q-7 -8 -7 -10v-33q0 -8 -11 -68t-11 -61q2 -8 0 -10q0 -2 -5 -9.5t-5 -9.5q-11 -44 -11 -65v-29l-47 -156h7l40 113h7q-2 -7 -12.5 -47t-12.5 -47l-4 -13l4 -6q2 -6 0.5 -10.5t-5.5 -12t-5 -10.5q-2 -3 -9.5 -24.5t-9.5 -24.5v72l-4 -12l-26 -125v-19 q-13 -65 -13 -67l-4 -10q-2 -8 -9 -58.5t-9 -58.5v-17l6 5l43 212v7q6 6 6 24q2 -6 2 -31t-2 -34q-25 -127 -26 -129q2 -9 -7.5 -40.5t-3.5 -47.5q0 -2 3.5 -9t8.5 -15t5 -9q10 -28 2 -55t-31 -46q-4 -4 -16 -4q-7 -10 -7 -12q-2 -6 -9 -42.5t-9 -41.5v-29 q-4 -40 -15.5 -120t-15.5 -123v-45q-1 -4 -6.5 -36t-5.5 -36v-12q-4 -8 -4 -29v-143l24 -101v-4l76 -153l47 -47q51 -34 54 -35q23 -20 11.5 -42t-40.5 -24h-61q-4 0 -19 2t-16 2zM1556 449q0 -7 7 -21l43 391v31q12 72 12 76q0 2 4 15t3.5 22t-7.5 16l-6 -10 q-15 -76 -21 -107v-6q-2 -8 -9 -50t-7 -50q-6 -32 -8 -93.5t-4 -84.5q0 -1 -3.5 -11.5t-3.5 -11.5v-106zM1190 1151v-6h215l51 262q26 29 19 74l30 143v14l-127 -196q-1 0 -5.5 -5t-4.5 -7q-3 -4 -20.5 -30t-20.5 -30q0 -12 -6 -18q0 -13 -10 -23q-2 -3 -30.5 -35.5 t-31.5 -36.5q0 -2 -4.5 -11.5t-5.5 -10.5q-3 -4 -17 -23.5t-21 -32.5t-11 -28zM1776 1690l53 247v11l6 43l12 12q4 -2 4 -12l-65 -303q-1 -4 -4.5 -6.5t-5.5 -0.5v9z" />
<glyph unicode="B" horiz-adv-x="1898" d="M426 -203q-14 7 -23 19l-14 14q-7 10 -28.5 48.5t-26.5 49.5l2 -2q-4 8 -12.5 34.5t-8.5 29.5v2l-2 2q-41 8 -67 24q-13 5 -50.5 31t-50.5 37l7 -2q-17 11 -19 22q-15 10 -31 39l-32 45q-5 11 -13 27l-8 16q-37 84 -45 134v92q0 7 6 22q0 12 13 25l-3 -2q3 0 3 -2v12 q8 21 10 23l69 63q6 5 12.5 7.5t9.5 3t12 0t11 -0.5h11l20 -18q1 1 4 -2q13 -20 15 -25q8 -16 -4 -43v2l-5 -12q0 -13 -10 -18q5 3 7.5 2.5t3.5 -2.5l1 -2l-10 -21q-26 -32 -23 -38q0 -1 3 1q-4 -21 0 -33q0 -16 6 -59.5t10 -54.5v2q25 -61 109 -96v98l94 448l430 881l51 66 q4 8 17 8h22q39 0 55 -25q2 -4 2 -8q8 -18 26.5 -50t25.5 -46q0 -29 -9 -47q-13 -30 -38.5 -86.5t-46.5 -103.5t-37 -85q-17 -21 -43 -84v2l-13 -37l-4 -6v-2v2q-6 -6 -8 -6q4 0 6 2q-29 -44 -35 -61q-2 -2 -6 -13t-4 -14q-20 -46 -20 -47l-3 -5l-4 -7h23l53 18h-2 q45 18 66 25l69 12l35 6h14q3 10 19 10q59 0 61 2q7 7 15 7q12 4 26 8l39 10v2q6 6 15 6h16l143 37q7 0 13 2l14 6q38 19 74 27q10 7 39.5 23.5t37.5 19.5q2 0 0 -2q12 6 13 6q41 41 71 61l-2 -2l13 6q14 18 67 77l6 7q13 22 41 76.5t33 73.5q1 3 14.5 50.5t14.5 55.5v17 q-8 17 -17 51v2l-8 25l-8 14q-11 16 -12 20l-58 58q-5 5 -25.5 24.5t-29.5 26.5l2 -2q-36 28 -72 43h-20q-8 0 -98 10h-111l-274 -63l-13 -13q-28 -8 -51 -16l-78 -29l2 2q-5 -2 -39 -8l-34 -18l2 2q-38 -25 -45 -25q-2 0 -14 -3.5t-13 -4.5q-3 0 -43 -24q-34 -17 -39 -17 q-12 -8 -14 -8l-29 -14l-16 -15l-11 -8l-12 -6q6 0 -6 -6q-8 -4 -12 -4l-19 -11l-168 -170l-104 -155q0 -8 -8 -19q-5 -43 3.5 -71t39.5 -47h-2q5 -5 16 -5q34 -15 44 -27t16 -46q0 -6 2 -8q7 -14 2 -27l2 2q-9 -48 -88 -43h-7q-47 7 -96 39q-5 3 -22 20q-10 15 -15 15 q-8 0 -14 6l-45 45q-7 14 -21 94q-8 16 -8 23q0 49 23 108q1 4 4 9t5 8l3 2l2 4l8 10q3 14 15 33l12 28l16 13h-4l58 94l223 219l407 223l400 107h98q3 0 9.5 -1t10.5 -1q66 -3 136 -11l39 -12h-2q32 -8 63 -18l135 -86h-2q12 -8 29 -29l10 -14h2q4 -3 9.5 -8t8.5 -9l3 -4 l47 -43l4 -12l8 -6q16 -15 20 -29v4l19 -37l6 -10.5t4.5 -8.5l3.5 -7t0 -2q13 -7 13 -13l12 -45q18 -65 18 -80q0 -24 2 -36q4 -24 4 -39q2 -8 1 -27t-5 -24l-2 -5q0 -16 -20 -86q-5 -12 -18 -34.5t-19 -26.5q-12 -10 -47 -48t-41 -48l-10 -13q-11 -13 -29 -28 q-13 -4 -16 -17q-3 -6 -9.5 -10t-11.5 -2l-31 -31q-19 -16 -77 -59t-76 -53q-24 -13 -96.5 -45.5t-92.5 -38.5q-5 0 -20.5 -2.5t-16.5 -3.5q-7 -7 -14 -7l-6 -4l-12 -4q-2 -2 -49 -2q-8 -2 -27 -2l-12 -6l67 -41l174 -170l-6 4q4 -3 21 -31.5t22 -40.5l19 -47l16 -39l4 -6 q4 -4 4 -14v-98q0 -11 -6 -23l2 -2q-7 -17 -37.5 -68.5t-42.5 -70.5l2 4l-12 -14q-2 -2 -9.5 -10t-12.5 -13t-7 -6l-104 -86l-248 -107l-412 -55q-10 0 -40 -2.5t-33 -5.5q-6 -6 -15 -6h-12q-9 0 -29 4q-1 0 -3 1t-3 1v-8v-25l15 -28q31 -61 31 -82q0 -35 -50 -41h-45 l-29 18zM18 500q0 2 2 2zM817 1116q-2 0 -2 -2zM539 -29l12 35q-2 2 -8 2l24 4q17 0 17 -20.5t-17 -20.5h-28zM575 -20q-3 0 -3 14t3 14q5 0 5 -14t-5 -14zM637 0v-8l-4 4l2 -16h-19l15 16l-21 14l19 8l4 -22zM670 -6v6l-21 20h27l10 7v0q29 0 39 2q-6 -6 -6 -11l20 -20h-20 l-62 -12zM805 23h35q0 -1 -17.5 -1t-17.5 1zM971 31l-121 -21l6 37q19 0 23 2q6 0 34 4t37 4zM1051 66l-19 16l8 4q15 0 15 -20.5t-15 -20.5h-8zM1040 86l29 -14q0 11 -10.5 16t-18.5 -2zM1176 96l-31 13l41 24l18 -35l-41 -20zM510 221v-49q11 -4 41 -4l121 18l-4 -2l39 19 l254 51l339 186q3 0 3 -2l43 76q0 32 -21 66l2 -2l-151 165l-64 23q-24 -8 -51 12q-3 2 -11 7.5t-14 9t-10 4.5h-35q-43 0 -53 4l-16 8h-17q-1 0 -7 1t-9 1q-8 2 -19 2h-73l-15 6l-20 1q-3 0 -6 1h-8l-23 13q-31 21 -29 32l-151 -448v-19zM510 170l-4 4q2 -2 4 -2v-2z M514 168l-4 2zM1137 903l16 33q3 -7 47 12q1 0 5 1t5 1l-14 -35q0 -2 8 -2q-4 -4 -12 -4l-23 -4q-12 -2 -32 -2zM1278 934q-4 0 -4 14.5t4 14.5q6 0 6 -14.5t-6 -14.5zM1364 952q0 5 2 11l-25 14q31 12 37 14q16 3 23 8q4 0 8 2t9 5t9 4l-2 -2l27 8h-6l121 67l20 25l12 -33 q-20 4 -51 -22q-8 -11 -24 -19l-17 -6l-8 -8q-2 -2 -8.5 -10.5t-12.5 -12.5t-14 -4l6 8q-18 -14 -32 -14q-18 -6 -54 -24q-11 -11 -18 -11h-2zM1698 1165l-12 -14l-68 -45l-2 16l12 8q28 14 43 29l15 17h12v-11zM1686 1149l2 2h-2v-2zM1700 1178q-2 0 -2 -2q2 0 2 2z" />
<glyph unicode="C" horiz-adv-x="1490" d="M309 -33l4 -4v2l-65 25h2l-74 28q-10 5 -22 17l-13 12q-32 25 -57 59q-11 14 -35.5 57t-28.5 56q-21 56 -38 127q-12 54 -5 123q5 50 5 72l98 430l338 600q6 6 10 12v-2l12 16q17 17 25 31q15 30 22 37q9 10 59 59.5t62 63.5q1 4 8 16l7 11l192 157l164 72l-4 -4 q9 9 18 12h-4q6 4 29 11.5t31 7.5h34q-3 0 4 6h41q14 0 44.5 -5t41.5 -10q36 -10 52 -20l47 -23l117 -127l4 -18v4q4 -12 8 -18v-86q-2 -13 -25 -129l-88 -211q-2 -1 -3.5 -5t-5 -11t-7.5 -13l-15 -14q-9 -19 -30 -29l6 2q-5 -4 -29 -10t-28 -6q-5 0 -54 14q-8 4 -12 12 q2 -6 4 -6q-20 12 -20 14q-16 11 -25 43v-2q-6 17 -8 27l125 256q14 71 20 125v10q-8 0 -13 4.5t-9 14t-6 12.5l-2 6q-22 4 -35 0l-21 -14l2 2l-39 -25q3 1 -6 -6q-3 -3 -12 -10q-17 -13 -23 -19v2l-14 -14q-4 -6 -32 -24.5t-42 -24.5l-4 -2q-8 -6 -10 -6l-80 -74l-16 -12 q-9 -10 -43.5 -51t-53.5 -60l-12 -10l-10 -12l-86 -82q3 -9 -2 -19q-13 -15 -41.5 -52.5t-32.5 -47.5l-6 -10l-23 -23l-225 -420l-18 -16l-10 -31l-41 -100l2 2l-9 -45q0 -6 -2 -21t-2 -20q-2 -19 -6 -19v-6q0 -1 -14 -127l-4 -8v-18l-6 -52q-13 -80 -13 -102q0 -46 23 -96 q0 -10 18 -37l2 -2l9 -12q5 -5 6 -7l14 -6l14 -4l-4 2l92 -24l162 45l182 96l187 182q7 11 65.5 97t85.5 127q3 6 9 6l4 2q7 4 30.5 7t36.5 1q8 -3 19.5 -12.5t15.5 -16.5l-10 6q18 -18 18 -32l-2 4q0 -24 -14 -47l12 8l-133 -199l-334 -336l-16 -8l6 4l-10 -6l-8 -8 l-31 -15h2l-35 -18q-10 -5 -16 -2q-9 3 -25 -8l-10 -6q-15 -11 -37 -11l-6 -6l-35 -6h2q-24 -6 -31 -6h-49q-8 0 -16 -2l-17 -2h-18q-1 0 -5.5 1t-6.5 1q-54 6 -60 8h2l-2 2zM350 913l-8 2q-2 -2 -4 -2h12zM231 465q7 0 13 6q-6 -6 -13 -6zM573 8l-14 -6l-8 -4l-14 29 q2 0 13.5 -5t12.5 -6l17 -8h-7zM922 256l-23 27q-11 -11 -2 -23l14 -6zM213 479q-6 0 -6 13.5t6 13.5q5 0 5 -13.5t-5 -13.5zM219 504v37q1 0 1 -18.5t-1 -18.5zM236 588q-4 0 -4 14t4 14q6 0 6 -14t-6 -14zM221 616l10 -8l7 15zM244 635l6 -6l-12 -6zM215 614v9l6 -7z M236 604q-1 0 -3.5 -1t-3.5 -1l2 6zM254 641l-21 4l9 -18zM221 649l8 6l4 -10zM244 621h-8l6 6zM289 782l6 15l-21 8l-16 -10q6 10 8 18t8 18q1 3 2.5 4.5t3.5 2.5h1q2 8 10 29.5t12 27.5v4l19 -18q8 0 8 2l-25 -56q-1 -4 -4.5 -15t-6.5 -19.5t-5 -10.5z" />
<glyph unicode="D" horiz-adv-x="1857" d="M274 -61q-15 5 -53.5 23.5t-46.5 25.5q-12 12 -54.5 60.5t-53.5 62.5q-57 102 -62 120q0 5 -4.5 21t-7.5 20l-6 7q-9 16 -9 37t4 35t13 40h-2q2 4 6 21l6 16q0 6 12 12q7 4 20 17t17 16q34 38 68 49q53 13 94 -8q10 -5 25 -35l6 -14q0 -64 -17 -86l-28 -35l-13 -55v-13 l7 -38l43 -76q0 -5 57 -25q10 0 22 -4l33 -8q4 0 16 -1t19 -1q23 -2 59 -2h54q32 3 96 16q21 6 65.5 23t47.5 20l331 266l348 539l107 309q0 35 2 43q2 4 2 19q-3 23 -9.5 90.5t-6.5 79.5v53q0 4 -4 20v3l-84 161l-7 4q-7 7 -51 36t-61 36q-4 3 -35.5 13t-40.5 12 q-5 5 -19.5 12t-15.5 8q-2 0 -10.5 2.5t-13.5 3.5h-43q-17 0 -23 2l-10 4q-16 -12 -25 -12q-4 -2 -24 -2t-29 2l-119 -33q-4 -2 -9 -6t-9 -6l-25 -10h4q-44 -25 -127 -73.5t-116 -67.5l-15 -9l6 2l-34 -20q-17 -10 -49 -31l-29 -28l-35 -17q-6 -6 -6 -2q0 -20 -21 -20l-4 -7 l-14 -14l-4 -8v2l-4 -12l-6 -11q-1 -3 -2.5 -8.5t-3 -9t-1.5 -4.5v-57q0 -4 23 -50l-2 5q62 -52 51 -72l-39 -62q-8 -8 -14 -8h-25q-14 1 -27.5 6.5t-19.5 9t-26 17.5q-130 112 -111 209q5 30 17.5 84.5t15.5 68.5l28 46l211 176q23 11 37 28l287 150l236 61q32 4 57 -2 q24 -4 39 -4l153 -29l238 -120l127 -121q7 -7 32 -43.5t31 -48.5l35 -103q0 -2 6 -8q5 -14 14.5 -68.5t10.5 -76.5q3 -21 2 -68.5t-4 -58.5l2 2l-37 -168l-111 -242l-12 -16l-47 -125l-207 -332q-5 -3 -10 -14l-270 -291l-232 -166q-13 -3 -24 -18q-12 -5 -101 -35v2 q-48 -12 -57 -12q-10 -7 -12 -7q-5 -1 -25.5 -4t-39 -5.5t-25.5 -2.5h-185q-8 0 -37.5 8t-40.5 13zM403 1569q0 -1 -1 -3t-1 -3q2 2 2 6zM598 -47q-3 0 -3 14.5t3 14.5t3 -14.5t-3 -14.5zM608 -47v33h8l80 20l15 6q11 0 26 6l25 11q40 16 57 43l15 -33q2 -2 0 -2h2 q-20 -10 -31 -10q-13 -15 -17 -15l-16 -10q-20 -9 -45 -12q-24 -3 -43 -13q-2 5 -2 7q-4 -19 -18 -19l-8 -1q-9 -1 -15 -1q-16 -4 -20 -4q-12 -6 -13 -6zM879 66v-3l-31 17l98 59l-4 -2q34 31 100.5 94.5t100.5 94.5l360 534v8l37 -10l-201 -323v2q-6 -12 -28 -25 q-12 -4 -17 -16l-207 -258q-11 -16 -30 -25q-9 -5 -15 -14l-8 -11q-6 -6 -14 -6q-1 0 -5 -2t-5 -2zM569 201v2q-25 8 -45.5 22t-32.5 26.5t-30 33.5l-17 16l-18 29q-6 16 -8 22q-4 12 -4 19q0 -1 -6 6q0 1 -1 6t-1 8l-5 47q-6 6 -6 15v114l47 344l193 586l37 72v4q0 2 1 8.5 t1 7.5l86 131l-2 -6q4 8 18.5 22t22.5 19l-2 -2q28 18 77 -7.5t60 -59.5v2q2 -3 5 -22.5t3 -25.5q-25 -112 -92 -221q0 -7 -12 -37v-2l-17 -65l-30 -105q1 -5 -0.5 -9.5t-3 -7.5t-5 -8t-4.5 -7l2 2l-67 -242q-7 -7 0 -27l-54 -219q2 -13 -6 -45v2l-4 -16l-4 -29 q-21 -176 -18 -248q4 -25 16 -41q3 -4 13.5 -14.5t15.5 -13.5q12 -11 7 -46.5t-24 -45.5q-53 -3 -86 6zM625 627q0 6 7.5 48t10.5 54v8l31 164q0 7 12 35l-2 -2l86 291l8 14q8 21 21 30.5t26 -1.5q6 -6 6 -15q0 -3 -4 -20t-4 -21q-2 -10 -12 -24v2q0 -1 -1 -2t-1 -2l2 2 q-2 0 -2 -2q-25 -75 -29 -107q-4 -12 -8 -14q-6 -23 -28.5 -106.5t-32.5 -127.5v-8l-39 -219l-13 -12q-11 -10 -22.5 -5t-11.5 19v21z" />
<glyph unicode="E" horiz-adv-x="1902" d="M580 -123q-54 27 -72 39h2q-19 11 -51 39l-13 16v-4l-24 23q-4 4 -16 55q-9 31 -17 39h-20l-115 -39l-53 -18v2l-72 -37h2q-12 -8 -31 -8q5 3 -5 6q-8 2 -15 2q6 -1 7.5 -8t-3.5 -11q-13 -11 -31.5 -12t-29.5 14v-4q-5 5 -9 23q-6 0 -12 6q-6 12 -6 20v13l-6 16 q4 19 8 23q2 2 4 8q8 21 16 26h-2q10 16 41 52l15 16l284 137v258l58 324q-2 8 2 31q4 16 4 28q-122 -39 -193 -59h2l-57 -29v2l-39 -20h-8q-4 2 -21 -2h2q-12 -6 -20 -2q-20 7 -37 41q0 4 -4 16l-6 23q-6 15 -6 30l4 -4q-9 14 -2 25q21 56 71 90q12 9 50 31t53 30l176 62 q13 13 70 28h-2q15 5 18 5q14 0 14 6l52 178l8 -10l-6 12l2 10q5 11 -13 17l-102 14q-2 0 -8 6q-7 20 -92 8l-45 19q-34 15 -41 22l-9 6q-2 2 -2 9q0 8 -8 24q-8 27 -8 51l2 -4q-3 11 -3.5 14t2.5 9.5t3 7.5q10 17 10 31q11 18 17 26q2 2 3.5 7t2.5 6l20 20l400 117l16 12 l78 209q0 1 1 3t2.5 6.5t2.5 7t2 1.5q2 0 2 2q0 11 10 11l9 2h-9l11 6q17 13 53 8q-3 -5 37 -45q-3 6 3.5 13t12.5 3q21 -15 36 -36.5t7 -38.5q-1 -2 -6 -7l4 -4l-6 -12v-33q0 -11 -18 -63h30l2 4l15 8h30l774 113q13 0 13 -10q0 4 4 0q2 -2 2 -9q0 -6 4 -14l6 -12v-103 q0 -8 -6 -18q-10 -26 -39 -41h4q-4 -4 -24 -4q-3 0 -19 -8h4l-10 -9q-10 -10 -16 -10q-8 -3 -26.5 -2t-27.5 4q-4 -1 -73 -16l-90 -19q-14 4 -27 0l-10 -8l-29 2h-8q-2 0 -5 -1t-5 -1h-19q-8 -5 -23.5 -11.5t-17.5 -6.5q-4 0 -10 -2q-41 -6 -115 -15l-354 -71 q-20 -6 -37.5 -70.5t-7.5 -71.5l321 -45q159 -23 326 -43q19 -14 55 -10h9q24 0 30 -6q21 -25 21 -35l-4 2q8 -12 4 -20q0 -7 -1 -22.5t-1 -16.5q0 -4 -4 -8l-19 -19v-16q0 -5 -10 -21l4 4q-3 -8 -10 -8h-29l-16 -8q-2 0 -8 -1t-9 -1q-6 -2 -18 -2l-29 -8l2 2q-6 -4 -10 -4 l-37 -17l-2 -2h2l-8 -6q-4 -5 -11 -2t-7 10l-5 15q-8 -1 -25.5 -5.5t-25.5 -5.5l-61 -12l-86 -33h-21l-438 -90l-45 -182q0 -21 -4 -33l-2 -12v-43q-24 -138 -33 -229q-2 -12 -2 -68q0 -58 2 -68l-2 -10q26 -19 59 -4l11 4h-4q35 10 49 10l198 41h17q6 6 16 6q2 0 33 9l39 8 l6 6l633 94l76 -2q19 -4 30 -18v-8l13 -11q10 -31 6 -61q-6 -41 -27 -72l-16 -14l-230 -49l-12 -6l-65 -17q-3 0 -10.5 1t-10.5 1q-8 4 -20 4q-36 -6 -106.5 -21.5t-102.5 -21.5l-211 -41h-13l-313 -71l2 2l-18 -11v-36q0 -17 2 -31l4 -25v-28q0 -3 4 -15v-2l20 -41 q-2 6 0 6q2 -1 9 -7q4 -3 6 -5h-2l20 -14l6 -6q32 -29 34 -42q3 -11 -7 -22v2q-11 -16 -23 -20h5q-47 -16 -127 16zM885 2075q-7 5 -17 10l-12 6q2 -2 8 -2zM856 2091l-8 2q2 -2 8 -2zM1376 1165h-2v-2zM1231 1139l55 16h-2l41 12q7 3 11 -7t-3 -13q-6 -2 -20 -2 q-38 -4 -53 -15l-168 -30l6 14l2 -8q1 0 3 1t3 1q36 6 51 10l55 12q6 0 19 9zM471 1425l37 -6l22 -4h9l-4 -18l-9 6q-6 0 -18 4l-74 18l12 11v-11h25zM412 1427l-88 33l8 21q17 -7 48.5 -23.5t47.5 -23.5l-12 -15q-4 4 -4 8zM1352 1174l2 -23q-12 -4 -25 -4q-8 0 -8.5 9.5 t6.5 10.5zM584 408l18 -9v-2q0 -9 -10 -9t-10 9zM1454 330l27 8q4 1 8 -2t4 -8q0 -60 -43 -17q-5 4 -3.5 11t7.5 8zM1362 1186l18 4q0 -4 9 -4q7 -3 4 -13t-11 -8q-20 8 -20 21zM1409 1180l-6 -11l-6 15zM1395 1188l-4 -2l6 -2zM1440 1202q-2 -2 -6 -2q-2 -2 -2 -4q4 0 9 1 l5 1q53 11 57 37q-54 -27 -63 -33zM1425 1219l13 -15l-4 -4q-7 0 -10.5 6.5t1.5 12.5zM1417 1196h15l-5 -12zM741 1288v-14h33q86 12 96 18v11q-97 22 -100 22q-5 3 -9 0t-6.5 -2t-5 -3.5t-3.5 -5.5t-2 -6.5t-1.5 -6.5t-1 -6.5t-0.5 -6.5zM795 1331l4 -4q2 0 6 -1t6 -1 q93 -33 143 -25l9 7q2 2 8 2q12 0 20 4q1 0 4 1t6 1v2q-21 5 -66 14.5t-67 14.5q-17 14 -43 18q9 2 9 8q-1 6 -25 6q7 -2 6.5 -10t-8.5 -8h-37q-6 -3 -5.5 -11t9.5 -14q17 -4 21 -4zM1018 1325q-3 0 -3 -5t3 -5q4 0 4 5t-4 5zM287 1495l-4 -4q4 -4 14 -4q-2 8 -10 8z M479 1540q4 -8 4 -10h2q11 -6 17 -8q19 -13 26 -13q27 -7 41 0q1 2 15 31q0 6 2 8q0 10 -5.5 18.5t-11.5 8.5l-24 -6q-12 -4 -25 -4l-43 -23h4zM477 1532l6 -2l2 -2z" />
<glyph unicode="F" horiz-adv-x="1622" d="M438 -49q-22 11 -61 37q-4 5 -64 75q-24 48 -24 54l-51 329v144q1 37 5 125.5t5 128.5l-6 2l-205 -88q-17 -7 -27.5 -8.5t-17 8.5t-9 16t-8.5 29v6l7 49q0 4 22 33q18 18 21 24h6v-10l250 107l-11 8l13 12l88 410v6l35 115l-64 43h-10q-4 0 -24.5 -4t-35 -3.5t-24.5 7.5 q-21 14 -27.5 58.5t4.5 68.5l13 10l4 12h18l240 60l127 241q21 20 28 23h23q38 -5 81 -33t46 -61q1 -9 1 -23.5t-1 -17.5l-11 -16q-10 -16 -10 -19q-3 -6 -1 -13t0 -14t-11 -10l68 12q8 8 10 8h18q9 6 11 6q0 2 2.5 2t3.5 -2l250 46h6q4 2 49 9t51 9h10l428 66q29 -3 86.5 8 t85.5 8q18 -1 32.5 -16.5t19.5 -34.5v-21q0 -1 3 -11t3 -11q2 -21 -7 -48t-28 -30q-58 -9 -123 -6l-516 -68q-11 -4 -36 -7.5t-30 -0.5l-163 -29h-7l-260 -53q-8 3 -25.5 -2t-21.5 -12l-24 -74q-4 -1 -3.5 -12.5t7.5 -14.5l801 -295q6 -1 14 -15t8 -19q8 -28 -6 -47 q-2 -8 -15 -12t-16 -7q-16 -16 -16 -22q-15 -13 -58 -29q-5 -1 -35.5 -8.5t-35.5 -8.5h-13l-194 -38h-6l-221 -52h-7l-340 -88q-13 0 -22 -14q0 -27 -6 -51q-8 -185 -4 -551q0 -4 5 -28.5t5 -28.5q2 0 2 -4.5t-2 -4.5q0 -3 -2 -3t-4 3l-4 9q-2 -3 -2 -13.5t2 -13.5 q0 -9 10 -57t10 -50q5 -11 19.5 -20t27.5 -8q7 33 31 53q8 -3 8.5 -12.5t-2.5 -12.5v-4.5v-5.5v-6.5t-0.5 -6.5l-1.5 -6t-2.5 -5.5t-3.5 -4t-5 -1.5t-7 1v-18h26q0 -27 -39 -18v-13l7 -6q0 -9 18 -45v-6q-2 0 -6.5 -5t-7.5 -10l-4 -5v-7l-11 -28q-22 -11 -28 -11 q-46 -8 -101 17zM496 57q4 -8 26.5 -2t32.5 15q-9 10 -25.5 12t-19.5 6q-3 7 -5.5 19t-4.5 16l-33 213l2 266v16l14 201q2 10 6 12q0 36 7 50v45q-7 -8 -11.5 -24t-7.5 -21q-14 -43 -22 -119q0 -2 -0.5 -35.5t-1 -73t-0.5 -57.5v-29l-4 -202q9 -50 6 -95l34 -200 q0 -13 7 -13zM483 446q-5 0 -5 -5t5 -5t5 5t-5 5zM489 702q-2 1 -3 -3q-5 -12 1 -19q1 -1 2 0q1 2 1 11t-1 11zM489 725q-5 0 -5 -3t5 -3q1 0 1 3t-1 3zM489 743q-5 0 -5 -4.5t5 -1.5q3 0 0 6zM489 774l7 -12v12h-7zM539 1141v-25l288 66h7l444 94q3 0 0 6q-4 6 -6 6 q-2 1 -23.5 11t-25.5 12q-5 1 -55.5 12t-55.5 12q-26 9 -66.5 43t-66.5 41l-193 58h-8l-129 28q-16 3 -23.5 -8t-12 -30t-9.5 -25l-55 -221v-4q-7 -29 -10 -76zM805 1442v18h16l191 -78q7 -5 -8 -11q-8 -2 -11 -1z" />
<glyph unicode="G" horiz-adv-x="1366" d="M41 -532l-23 8q-44 22 -84 57q-39 39 -43 45q-6 6 -6 14l-12 17q-2 4 -7.5 13t-11 21t-12.5 33q-2 3 -2 7q-4 12 -4 20v74l10 57l11 45q13 36 42 63.5t62 18.5q15 -6 31 -22q4 -6 13 -25t9 -23q14 -11 21 -24q0 -17 -12 -37v-18q0 -1 -1.5 -5t-3 -9.5t-2.5 -8.5l2 2 l-2 -10v-72q1 1 4 -4l-2 2l39 -55q4 -4 9 -4q4 -1 7 -2.5t4.5 -2t2.5 -1t2 -0.5q89 0 182 22h-2q16 7 39 22t27 23l299 467l-2 -2l22 55l-143 -75l-162 -31l4 2q-5 -2 -33.5 -2.5t-40.5 0.5q-12 0 -18 4l-4 2h-17q-55 10 -122 53q-3 4 -11.5 13.5t-9.5 11.5q-2 0 -6 4 q-17 13 -18 16q-1 1 -4 3.5t-4.5 4t-2.5 3.5l2 -2q-11 16 -33.5 55.5t-27.5 58.5l-12 53l-9 35v152q3 8 11 51.5t8 54.5l33 207q0 10 6 25l-2 -2q3 8 0 20l55 176l90 221l289 383l246 211l174 101q29 6 37 8q47 14 79 14l185 -18l12 -8l25 -11l37 -18l8 -6q1 0 10.5 -4 t13.5 -6q-2 2 0 2l72 -56q8 -4 8 -16l4 -12q0 -6 6 -21l17 -88q2 -17 -6 -47l2 2q-1 -3 -3 -15l-3 -12v-12l-13 -57l-12 -49q-9 -24 -45 -105v-14l-53 -94q-17 -33 -78 -29q-56 12 -92 59t-6 97q6 12 18 24q47 105 61 133v31l31 174q3 13 -15 18t-40 3q-21 -7 -43 -7 q-22 -5 -68.5 -21.5t-58.5 -23.5l-6 -4l-4 -6q-12 -7 -56.5 -39t-58.5 -43q-2 -7 -13.5 -15.5t-13.5 -10.5q-16 -12 -18 -17l-174 -174l-9 -9q-4 -4 -6 -7l-12 -29l-12 -22q-4 -5 -8 -9l-23 -26l-14 -10q-3 -4 -35 -50.5t-37 -54.5q-8 -8 -8 -10l-18 -21l8 2v0l-4 -6l-7 -4 q0 -10 -12 -18l-14 -29l-6 -6l-8 -10l-9 -15l2 2l-114 -350q-1 -2 -3.5 -4.5t-5.5 -4.5t-4 -3q7 -7 7 -27q0 -5 -7 -12q7 -7 7 -14l-29 -176l-4 -5l-13 -79q-2 -49 17 -129q0 -2 6 -22t10 -28l2 -2q9 -15 51 -57q5 -2 15.5 -4t22 -3.5t14.5 -2.5l184 65l217 221l78 156 q4 12 18 12h19q41 -3 80 -18q10 -5 14 -16v8l10 -8l11 -11l19 -19l13 -13q7 -4 13 -17l2 -4l-5 2q4 -4 8.5 -9.5t6.5 -9.5l2 -3q3 -13 1 -35.5t-5 -32.5l2 4l-252 -633l-21 -32l-41 -58q-1 -1 -14 -8q10 0 14 4q-5 -11 -12 -14v4l-100 -150q-7 -5 -21.5 -20t-17.5 -21 l-10 -12l-2 -6l-111 -100l-22 -13h4q-48 -27 -58 -28q-68 -15 -147 -21zM440 1282l-6 -12q6 6 6 12zM266 817q0 -2 2 -2zM432 1270h2h-2z" />
<glyph unicode="H" horiz-adv-x="1579" d="M1120 -430q-6 0 -22 8q-7 7 -26.5 23t-22.5 18l-45 86q-20 102 -27 170q-1 10 -1 87.5t1 109.5q0 43 6 55v4l72 430v6l94 404l-455 -133q-9 0 -20.5 -4.5t-7.5 -12.5h10q50 10 78 17h12q8 1 32.5 10t39.5 8l-13 -12l-172 -43q-8 -15 -10 -23q0 -3 -7.5 -25.5t-10.5 -25.5 q0 -5 -7 -12l-75 -287q-14 -18 -33 -57q-4 -10 -5 -21.5t-5 -17.5l-64 -209q3 -17 -6 -29q7 -2 20.5 2t20.5 2l4 -4h14v-22h11q8 -23 10 -29v-12q-6 -12 -6 -29l6 -2q-7 -8 -22 -39t-35 -43q-13 -7 -23 -11t-23 -4t-17.5 0.5t-23.5 5t-24 5.5h-10q-26 7 -51 28t-39 46l-6 8 q-5 8 -5 12q-4 8 -4 19q-6 3 -6 10q-3 0 -7.5 3.5t-4.5 6.5q-6 6 -6 31v61l-123 609q0 9 -23 40q-3 5 -14 16.5t-20.5 22t-18 22.5t-8 23t11.5 19v65q8 9 12 9q1 1 16.5 3.5t20.5 2.5q25 1 163 2.5t210 7.5q12 12 12 16q33 96 33 97v4l55 192q12 16 29 64q2 8 16.5 48.5 t18.5 47.5q0 1 7 15t9 16q0 6 6 18v6l150 355q0 21 6 24q4 16 43 94q7 13 23 35q17 19 49 17t51 -17q3 -1 45 -43q25 -32 18 -69l-106 -312l-6 -12q-9 -36 -23 -78q0 -2 -6 -11.5t-6 -10.5q0 -2 -3 -14t-3 -13l-47 -127l-6 -6q0 -4 -3.5 -22t-3.5 -21q-4 -22 -40 -113 q-1 -5 -9 -46.5t-8 -43.5q-1 -6 -4 -13t-2 -18q5 -2 13 -2t10 2q6 0 38 10.5t33 10.5h6l349 123q34 17 43 26q2 0 6 6.5t4 10.5l356 923l35 21q1 3 18 -4t27 -13q1 0 5 -2.5t8.5 -5.5t6.5 -4q5 -5 19.5 -21.5t15.5 -17.5q22 -55 23 -57q0 -44 -6 -68l-84 -215l6 4 q3 3 24.5 46.5t30.5 64.5q1 7 13.5 43.5t15.5 42.5q0 1 2.5 7.5t3.5 7.5t4 6.5t5 5t7 2t9 -1.5q-1 -3 -12.5 -23.5t-12.5 -23.5q-14 -27 -25 -80q-1 -5 -10 -20t-6 -23l-29 -90l-6 -7v43l-4 -5q-4 -5 -4 -9q-4 -9 -10 -29t-6 -26v-8l10 2v-2q-1 -5 -3.5 -15.5t-4.5 -19 t-2 -10.5q-2 -4 -9 -5.5t-10 -5.5q-4 -3 -10 -13.5t-6 -12.5q-2 -3 -9.5 -33.5t-9.5 -34.5q0 -3 -4 -11.5t-6 -10.5l-65 -224q-8 -12 -12.5 -41.5t-16.5 -42.5l-107 -366q2 0 2 -3t-2 -3q-2 -7 -7 -21.5t-9 -26t-4 -12.5l-12 -8q-2 8 5.5 23.5t6.5 23.5q4 9 16.5 47t14.5 47 q6 9 6 45q2 0 5 5t5 9l2 5q2 5 5.5 19.5t8 27t9.5 18.5l65 240q6 3 6 10q12 24 23 90q-4 1 -7 -2l-3 -2q-13 -13 -13 -18l-30 -125q-3 -1 -8 -11t-5 -12q-1 -5 -14 -50t-14 -50q0 -1 -17 -35v-8l-84 -285q10 -37 -16 -77q-3 -8 -9 -36t-12.5 -60t-7.5 -36v-51l4 6l47 199 q0 13 9 29q4 8 8 4v-6l-94 -500v-18q-1 -8 -8.5 -84t-8.5 -91q-5 -13 -18 -96q0 -6 -10 -6v12q5 34 28 168v78q0 1 2 12.5t2 12.5v12q0 7 8 48.5t11 45.5v17h-6q-13 -13 -13 -17v-41q0 -2 -2 -13.5t-2 -12.5v-7q-2 -4 -12 -42t-12 -42v-22q-4 -14 -4 -16v-68q0 -2 -3 -12 t-4 -11l-12 -12v-22q0 -27 -6 -27v-29l12 -47l6 -6v-164q1 -6 4.5 -28t7.5 -45t5 -27q0 -6 25.5 -19.5t31.5 -29.5v-31q-6 -15 -29 -23q-3 0 -18.5 -2t-19.5 -2h-19q-58 15 -78 23zM1255 397q0 -2 3 -8t4 -6q0 -3 3 -3t3 3q21 66 16 111l-10 -7v-36q-12 -7 -16.5 -23.5 t-2.5 -30.5zM281 477q4 -17 15 2q10 17 7 27l72 264v8q0 4 -29 10h-4l-14 -6h-76q-9 -10 -14 1q-7 13 12 21l14 3q-16 7 -42 6.5t-42 -6.5q-3 -16 13 -37zM1284 508v-2h4v2h-4zM281 801q20 -4 28 -6q25 0 33 6q0 1 -6 3.5t-8 2.5h-47v-6zM365 807q-5 0 -5 -6t5 -6t5 6t-5 6z M932 874q3 3 63 23h9q-1 -2 -15 -9t-16 -9q-2 0 -10 -2.5t-18 -5t-13 -3.5h-6zM1528 1409v-12q15 22 12 41q-6 0 -6 -6q-6 -19 -6 -23zM1622 1698l-76 -244l10 6l13 39v6l59 168v31zM1634 1720q-4 0 -4 -5t4 -5t4 5t-4 5zM1640 1737q-6 -6 -6 -13q4 -3 8.5 5t4.5 12z" />
<glyph unicode="I" d="M-121 -242l-24 15l-15 8l-16 20l-8 15l-13 24q-4 16 7 23l268 205q0 4 6 10l78 78q15 26 69.5 120t85.5 144v-2l62 153l37 58q2 4 14 8l-12 -4l47 164q0 1 4 9.5t4 12.5l43 139v27l66 438v148q-4 32 -4 74q-2 10 -8.5 30.5t-8.5 30.5q-3 12 -9 40l-9 38l2 -6 q-10 15 -25 30l-10 -6l-31 -10l-2 -2l-20 -16l-21 -17q-4 -2 -18 -2v-2l2 2q-55 -48 -55 -51q-31 -52 -31 -66q0 -15 -12 -18q-20 -80 -25 -119q0 -1 -4 -51q-2 -26 -5 -78t-3 -59v-53q-1 -3 -2 -3q11 -34 -2 -57q-39 -55 -86 -41q-15 4 -15 21v108q0 15 2 25l4 16v53l4 17 v51q0 8 -2 14l-2 4v29l7 31l4 12q0 33 6 57l78 189l-2 -6q0 7 10 22q141 187 307 150q15 -4 38.5 -16.5t31.5 -24.5l-2 2l90 -103q27 -31 30 -88q3 -39 17 -59q7 -61 20 -107q8 -48 4 -118q-1 -26 -3 -79.5t-3.5 -93.5t-1.5 -42l-65 -310l-156 -434l-16 -16l2 2 q-21 -40 -84 -154q-15 -9 -19 -28q-1 -3 -4 -13.5t-5 -15.5t-7.5 -12.5t-13.5 -12.5l-19 -45l2 4l-10 -28l-21 -23l-8 -8q-1 -6 -9.5 -21t-10.5 -20v2l-17 -33l-96 -100l-242 -168l-6 -6l-90 -35q-1 0 -9.5 2t-19 4.5t-14.5 3.5zM315 1618l-6 -4l8 4h-2z" />
<glyph unicode="J" horiz-adv-x="1044" d="M92 -53h-4q-35 10 -63 47h2q-11 11 -15 18q-14 19 -14 29q-4 2 -4 4l-12 35l10 100q3 16 10 33q10 29 8 43q0 9 5 33t12 51t8 33l18 37q22 40 31 49q5 15 14 33q22 59 56 98l-4 -10q4 8 14 18l8 10l10 19l8 10q-8 -4 10 8l33 23l31 20l12 4l-8 -2q30 15 54 21 q22 3 45.5 -11t29.5 -34q1 -4 2 -7.5t1.5 -6.5t-0.5 -6.5t-1 -5.5t-2 -5t-2.5 -4t-3 -4t-3 -3.5t-4.5 -3.5l-3 -4q-8 -8 -8 -14l-72 -80q-25 -61 -69 -178.5t-56 -148.5v6q-1 -2 -3.5 -4t-2.5 -4q8 2 8 0q0 -1 4 -5l-2 5q11 -5 15.5 -10.5t1 -12.5t-7 -11t-11.5 -12 q0 -3 0 3l-2 -35q4 -2 4 -4q7 -7 13 -11l6 -6q24 -4 63 35q36 36 57 64q1 7 11.5 28.5t13.5 24.5l18 16q37 95 131 335t144 370q-6 9 4 22l88 307v-2l72 326l-436 -416l-70 -108q-2 -2 -7.5 -18.5t-6.5 -24.5q0 -6 -5 -31t-8 -31v-2l-12 -45l12 19q0 -2 -12 -50 q-14 -39 -63 -18q-14 3 -32 19.5t-24 31.5q-12 84 -12 105q3 19 13 53t16 41v-2l96 145q25 15 29 25l102 96q2 2 6 9t6 9l107 111q4 4 14 4q-2 -2 -2 -4q0 6 6 12q74 65 84 78l23 27q1 0 3.5 2.5t4.5 3.5l4 2l162 145l-4 -4q27 20 57 27q-2 0 0 2q13 23 20 29q45 20 62 14 l-4 2l43 -8q21 -6 28 -6q19 -4 50 -45q15 -22 23.5 -54t2.5 -55l-28 -113l-7 -8q-4 -20 -6 -28q-3 -23 -16 -41q-8 -33 -23.5 -103.5t-23.5 -103.5l-285 -926l-33 -68v5l-2 -7q0 -14 -4 -30l-24 -39l-2 -12q-1 -1 -3.5 -5t-6.5 -10t-5 -8q-6 -6 -6 0l-14 -31l-13 -18 q-78 -128 -165 -199l-7 -4q-12 -12 -24 -14q-46 -16 -88 -23h-17q-53 4 -182 23zM162 106v-14q-2 0 -6 -4l-5 -10q-7 -8 -10 -6q-20 15 -20 34q0 15 20.5 15t20.5 -15zM166 94l8 3q-3 1 -10 -3h2zM164 94l-2 -2q0 2 2 2zM164 88l-2 4q0 -4 2 -4zM154 266l-9 -8q4 -4 5 -4 l12 -10q0 -1 -1 -2t-1 -2l4 -13h-37l4 11q-6 6 -6 14v27q25 42 25 59l32 -16q-11 -9 -16 -25l2 2q-4 -21 -14 -33zM170 250l-6 -6q4 -3 5 -0.5t1 6.5zM145 276l1 4q-2 -2 -3 -8zM211 362l-6 -6q-8 -8 -18 -3.5t-13 14t4 18.5l4 6q12 11 26.5 -3t2.5 -26zM250 471l-12 21 l30 12q-4 -25 -18 -33zM233 502q-7 -3 3 -10h2zM315 567l-24 19q3 0 11.5 2.5t8.5 3.5l25 -6q-18 -11 -21 -19zM821 1458l13 27q-20 0 -23.5 -7.5t10.5 -19.5z" />
<glyph unicode="K" horiz-adv-x="1107" d="M139 -70q-28 14 -37 23q-12 8 -38.5 31t-30.5 30q-19 22 -32.5 58.5t-16.5 68.5q-3 17 -3.5 45.5t3.5 40.5l329 1401q3 10 31.5 71t42.5 87l37 55l18 17l9 8q26 26 30 28q3 -1 19 -2.5t24 -3.5l15 -6q28 -5 60.5 -31.5t39.5 -54.5l-2 2q12 -36 -10 -82l-9 -30 q13 -9 9 -25q0 -13 -6 -37l-3 -8l-118 -291l-43 -174q-6 -27 -16 -39.5t-19 -7.5q-8 -24 -8 -31l135 92q15 24 35 29l395 332q0 1 2.5 3.5t3.5 4.5l10 12l76 76l6 14l88 101q14 3 17 12v-8q0 1 1 3t1 3q0 18 20 18l29 13q17 6 22 -17q14 -11 5 -26q-3 -3 -3 -29v-27l-4 -51 l-16 -16l-25 -49q-38 -70 -38 -76q-8 -11 -23 -23q-12 -12 -14 -20l-263 -244l-403 -264l4 -2q2 -3 5.5 -6.5t6 -6.5l5 -6t3 -4t-0.5 -2q3 -9 32 -30q1 -7 16.5 -37t20.5 -35l6 -12v6l17 -25q60 -126 407 -506l277 -194q4 -3 71 -31t82 -33q7 -4 54 -20l34 -12q13 -7 23 -11 h6l25 -6l20 -4l8 -6q48 0 72 -6h29l88 26l-2 -2q63 24 73 60q7 7 7 43q7 27 26 49q8 12 19 8q6 -2 8 0q25 10 35 10q45 0 61 -4l12 -6l15 -8q5 -3 9 -7t6.5 -7.5t3.5 -9t2 -9t-0.5 -10t-2 -9.5t-2.5 -10t-3 -9t-4 -9t-3 -8v-8l-2 -7q-4 -24 -12 -32q-17 -27 -37 -47l-15 -15 q-16 -16 -14 -26q2 -8 -4 -15t-16 -8q-7 -17 -52 -49l2 2q-45 -27 -77 -35q-1 0 -3.5 -2t-3.5 -2q-40 -27 -125 -27q-131 0 -407 68q-103 27 -206 81.5t-184 116.5t-161 143t-134.5 146t-108.5 141t-77.5 114t-46.5 77l-36 -200v-17q-17 -157 -17 -164v-41l-8 -22v2 q-4 -4 -4 -25v-135q-6 -10 -2 -31v-32l-2 -9v-18q-13 -43 -76 -43q-49 0 -74 14zM1253 1749q2 2 2 6q0 -1 -1 -3t-1 -3zM1767 -201l-16 31q49 10 76 20q17 21 55 37l-4 -4q-4 -4 2 -14l23 -6zM264 72l-12 -6l-14 4v77q-3 1 -5 3l31 16v-94zM295 465q-35 -188 -31 -272 l-33 -13q6 43 19.5 131t19.5 131q0 17 11 74l12 78v-2l6 35l-6 -15q0 5 6.5 33.5t9.5 34.5v43q0 17 19.5 17t19.5 -17l-4 -6q0 -5 -4 -11.5t-8 -7.5q6 -3 0 -34l-29 -146q0 -4 -2 -15.5t-2 -15.5zM408 1182l8 8l10 6q-9 2 0 39l6 14v8l37 -4l-29 -90zM528 1438l-41 -2 q0 11 7 20v-2l34 -14v-2z" />
<glyph unicode="L" horiz-adv-x="813" d="M180 -279q-8 6 -21 24.5t-22 25.5h-63q-45 13 -54 22l-6 12l-6 7v49l84 458v7l135 477l4 12l62 295q-7 14 6 23l154 628q3 5 22.5 10t24.5 3q8 -4 50.5 -29.5t43.5 -26.5l12 -12q13 -12 17 -16q8 -11 13 -21t6.5 -22t1.5 -20t-0.5 -24t-0.5 -26q0 -2 2 -24t2 -23 q0 -21 -4 -29l-12 -24q0 -1 -1 -10t-1 -13v-8q-2 -6 -12.5 -56.5t-12.5 -56.5v-10l-76 -330h-10l64 295q0 16 -7 17l-4 -5l-90 -378v-7q-6 -36 -22 -116v-15l-31 -147q-9 -11 -14.5 -37t-3.5 -41l-146 -461q3 -13 -2 -61t-4 -60h6l64 236l10 70l72 219q-3 10 8 36t10 40 l31 159l6 13l45 225q0 5 4 7t8 -1v-8l-135 -602q-7 -11 -14.5 -36.5t-14.5 -35.5q-29 -211 -77 -315l6 -7h22l291 41h23l432 82h6q8 0 45.5 5t42.5 8h55q55 0 70 6h53q9 -19 29 -19q-7 -4 -10 -10t-4 -15t-3 -14q-2 -4 -9.5 -8t-12 -8t-0.5 -8q10 0 10 -4l-29 -10v-5l13 -12 l-62 -16q-6 -11 -17.5 -18t-28.5 -12.5t-25 -10.5l-111 -23q-11 -8 -35 -8v-12l-301 -70q-13 -9 -46 -11.5t-48 -12.5l-309 -56q-3 -1 -25 -16q-3 -6 -10 -6q-9 -4 -35.5 -10.5t-30.5 -6.5q-27 -9 -47 4zM575 1329v-12l7 16zM582 1376v-24q6 2 6 6q1 1 5.5 20.5t6.5 22.5v16 l31 144v16q-4 4 -9.5 -3.5t-5.5 -12.5q-2 -5 -7 -31t-5 -29q0 -2 -5 -17t-5 -18q-6 -9 -6 -65q0 -2 -3 -12.5t-3 -12.5z" />
<glyph unicode="M" horiz-adv-x="1832" d="M1395 -180h2q-22 11 -31 20l-8 10q-18 18 -23 33l-137 336l-20 129q-2 14 -2 119q0 125 2 156q0 24 8 110l12 111v10l109 434q-20 -45 -62.5 -135.5t-62.5 -134.5q0 -1 -13 -51l-6 -23l-28 -49l-17 -37q-1 -6 -5 -22.5t-5 -22.5q-1 -1 -2.5 -5.5l-3.5 -10.5t-4 -9l-4 -8 q0 -4 -4 -12q4 -4 4 -10v-39l-86 -270v-9l-35 -147v-14q-8 -40 -8 -91v-79q0 -12 -5 -19t-10.5 -9t-15.5 -5l-14 -4l8 2l-8 -6l-15 -11q-2 0 -2 -2l2 2l-2 -2h-2h2q-6 -6 -12 -6h-17q-10 2 -18 5t-17 7.5t-13.5 7t-16 10.5t-16.5 11q-18 3 -21 16q-22 33 -33 72 q-5 33 -17 105t-17 110q3 15 -5 45q-6 21 -6 54l-63 460v170l47 338q-52 -117 -57 -131l-113 -254v-12l-199 -569q-3 -5 -6 -9.5t-5 -10t-3.5 -9t-2.5 -11t-1.5 -9.5t-1.5 -11t-1 -10.5t-0.5 -11.5t-0.5 -11q0 -4 -1 -13t-1 -13q0 -38 -4 -58q-49 -220 -70 -331 q-9 -24 -21 -39q-22 -43 -69 -43q-39 0 -92 35q-34 22 -37 84l16 98l19 100q1 14 4 36t4 30q12 81 14 125l6 86q6 81 6 84q0 10 1 61t1 80q0 35 -1 86t-1 59q-2 50 -14 162l-8 68v12q0 8 -8 82q-1 13 -3.5 30t-3.5 26.5t-1 13.5q-15 30 -15 51l10 20l2 4q3 18 21 25l4 2 q6 6 14 6h54q16 -4 26 -10l35 -17q5 -4 20.5 -16t28.5 -23t17 -16q10 -18 14 -22q6 -6 6 -13v-10q0 -4 -4 0q6 -6 6 -39q19 -86 19 -117l-15 13q10 -17 10 -39l5 12q4 -35 9 -66.5t9 -66.5q319 767 328 789q10 24 65 106l-2 -2l31 31l24 26q16 8 21 13q6 6 14 6q5 0 35 6 q39 0 74 -17l26 -24l15 -14q9 -9 6 -19l10 -22v6q6 -23 6 -43l-6 -105q-3 -35 -33 -161q-13 -11 -10 -27v-19q0 -8 -2 -12q-4 -12 -4 -18l-1 -28l-1 -19q-7 -10 -12 -37q12 -4 12 -19v-90q0 -14 -12 -18l6 2v-62q0 -6 -2 -8l-6 -10v-344q0 -17 2 -31l12 -112v-15v-6l313 811 l115 156q2 3 50 46t71 60q9 7 28 18.5t27 12.5q7 1 25 1t24 -1h-4q13 0 19 -6q32 -13 45 -27q3 -3 10.5 -21t9.5 -26v-43q0 -11 -4 -27l-4 -12v2q-24 -74 -147 -432l2 4l-103 -696q3 -39 13.5 -138t13.5 -153q9 -19 80 -184l75 112l27 25q14 10 23 6.5t12 -11.5l4 -9 q29 -24 36 -46.5t3 -52.5q-4 -28 -2 -45q-6 -9 -17 -41l-14 -39q-19 -54 -86 -86q-10 -4 -42 -4.5t-44 2.5l2 -2q-4 0 -61 23zM907 63q0 -1 -1 -3t-1 -3zM932 172q6 2 8 8v-12q1 -2 3.5 -8t2.5 -8q0 -17 -20.5 -17t-20.5 17v36zM913 227l11 -6q-9 9 -9 15q-4 -7 -2 -9z M932 215q-5 0 -8 6zM926 242q-5 0 -11 -6l3 2q4 4 8 4zM956 317q-4 -4 -4 -26l-32 -6q11 22 8 45zM967 385q0 -21 4 -25l-37 -8q0 9 4 17h2q0 21 10 69q1 4 13 66l30 -21q-13 -9 -24 -77q0 -3 -1 -6t-1 -5v-10zM881 565l2 -8q0 -4 4 -20q0 -2 1 -5.5t0 -4t-7 0.5l-27 -18v63 q-4 14 -15.5 75t-13.5 75v149q0 62 2 109q0 15 0.5 38.5t1 41.5t0.5 20v62q0 12 2 20l5 13v8l-5 16q-2 8 -2 25l29 -19q-2 -2 -8 -114q0 -46 -2 -52q0 -4 -4 -20l-2 -12v-179l28 -178v-18q0 -19 4 -51v-4zM1001 520l-20 -20q-1 0 -1.5 5t0.5 11t3 10l-16 -12l2 14q1 1 12 33 q0 -2 2 -2l21 -2q8 3 8 6q0 -8 -6 -14v-1q1 0 2 -2.5t0 -6.5zM1020 600l6 -12l-14 2l10 -4q-4 -2 -18 -15l-23 33l12 4q8 3 16 0.5t11 -8.5zM1030 657q-4 0 -4 14.5t4 14.5t4 -14.5t-4 -14.5zM1036 670q-4 0 -4 13t4 13q3 0 3 -13t-3 -13zM1061 709v-9l-35 13q9 13 6 24 l35 -6q-4 -14 -6 -22zM870 1266v-13q0 -17 -20.5 -17t-20.5 17v13q0 17 20.5 17t20.5 -17zM1337 1386l-24 23q6 6 8 2l33 -4z" />
<glyph unicode="N" horiz-adv-x="1456" d="M852 -203q-9 0 -33 19l4 -4q-17 8 -26 20l-23 21q-11 17 -16 33.5t-5.5 26t-0.5 34.5v80v-2q54 169 117.5 425.5t109.5 451.5t120.5 419.5t160.5 382.5l-222 -242v2l-4 -10q-56 -56 -65 -74q-99 -147 -99 -155v-23l-309 -567v2l-12 -29q-10 -20 -10 -28q-2 -10 -17 -25 l15 8l-13 -22l2 2q-8 -12 -10 -25q-69 -124 -88 -168q-12 -24 -25 -71l-12 -41v4q-3 -13 -29 -45l9 8q-3 -9 -8.5 -27.5t-6.5 -23.5q-17 -57 -28 -80v2l-13 -31q-28 -53 -49 -78l-35 -24q-2 6 -2 10q-3 -16 -20 -16q1 0 1 -1.5t-1 -3.5q-17 -10 -23 -10q-12 -6 -22 -6h-43 q-7 0 -15 8q-70 25 -106 68l-14 53l-11 39q-1 9 -1 51.5t1 61.5q7 52 19 96v10l98 426q0 14 6 29q-3 -3 -4 0l238 792l8 13l12 18l51 127q0 1 7 8q7 10 18 10q10 5 16 9l7 2q19 14 30 14q23 -10 27 -14t10 -4q63 -23 86 -54q20 -40 23 -49q4 -31 0 -53q-1 -2 -15 -31 l-237 -813l375 680q56 102 129 191t146 150.5t145.5 104t135 59.5t107.5 9q15 -4 21 -6h10q70 -35 90 -69.5t10 -116.5q-1 -13 -16 -40.5t-44.5 -91t-67.5 -160t-96 -282.5t-120 -424q-3 -8 -7 -25t-7 -29.5t-4 -14.5l2 6q-2 -15 -4 -23l-2 -10q-4 -10 -18.5 -73t-16.5 -76 q-6 -8 -23 -50v-24q0 -3 -3.5 -13.5t-6.5 -13.5l-29 -63h2l-88 -320q25 14 43 8l13 -10l10 -8q6 -6 6 -14q0 -9 -6 -21v-4q3 1 8 -8l4 -14q0 -64 -26 -82q-10 -8 -33 -23.5t-25 -15.5q-6 -4 -23 -11.5t-22 -7.5h-92zM424 471l-53 -172l420 852l-121 -203v-22zM1337 1790 q-30 -3 -16 -21q0 5 2 7q4 11 14 14zM1169 1700v-2l13 -6v12q-13 0 -13 -4zM420 1720l-2 -2q0 2 2 2zM958 37q-4 -35 -9 -71l-2 -22l1 1l23 -33q-22 -13 -38 3.5t-13 43.5l155 524q-2 19 4 45l6 25v27q7 12 11 18l-2 -4l4 4q0 10 4 10q-2 -1 -1.5 -7t3.5 -7l24 12l-10 -20h2 l-125 -455v4q-1 -4 -3.5 -8.5t-4.5 -6.5l-2 -3v-13q-6 -16 -10 -28q-5 -9 -13 -30zM150 -43l22 16q-10 4 -16 -1t-6 -15zM1147 643l-12 -25l-5 15q-8 -4 -12 0l10 4l-2 8q7 -3 7 -8zM1139 670q-5 0 -5 14t5 14t5 -14t-5 -14zM1139 680q-5 0 -5 14.5t5 14.5t5 -14.5t-5 -14.5 zM1171 737l-41 -6q0 5 7 19l1 2q1 2 1 6l26 -17q6 3 6 -4zM1176 793q-3 0 -3 14t3 14q4 0 4 -14t-4 -14zM561 868l2 -8q0 7 6 15t11 8q-8 3 -13.5 -2.5t-5.5 -12.5zM567 854q-4 4 -4 6zM588 864q-4 0 -4 15.5t4 15.5t4 -15.5t-4 -15.5zM1221 911q-5 0 -5 14.5t5 14.5 t5 -14.5t-5 -14.5zM1251 1038q-1 0 -1 13.5t1 13.5q3 0 3 -13.5t-3 -13.5z" />
<glyph unicode="O" horiz-adv-x="1495" d="M403 -115l-170 82q-11 5 -49.5 41t-50.5 53v-2q-7 8 -86 138l-16 65l-47 332l53 446l211 531l190 256l195 176l172 98l182 49q37 0 51 7h39l140 -46q8 -4 57.5 -37.5t62.5 -41.5l47 -47l37 -54l41 -53l2 -4l6 -10q23 -30 31 -62q12 -57 -25 -71.5t-77 22.5q-30 23 -47 45 l-29 47l-33 51v-2q-19 19 -28 25q-3 2 -5 2l-96 29l-162 -29l-176 -94q-35 -34 -97 -90t-83 -76q-9 -18 -18 -27q-21 -33 -41 -51q-30 -49 -89.5 -148.5t-88.5 -148.5v4l-7 -18l2 2l-4 -12l-16 -35v-6l-27 -72l-4 -12l-98 -271l2 4q-2 -31 -2 -43q-2 -41 -14 -122 q-14 -86 -19 -142v-151q0 -9 6 -33l6 -47v-31q9 -37 11 -47q12 -42 12 -61q0 -1 2 -6.5t2 -6v-2.5l12 -16q7 -11 24.5 -32.5t22.5 -25.5l15 -16l47 -31l-2 2l29 -8l30 -10q18 0 39 6l33 4l39 15h-2q2 2 6 2l4 4l6 8l201 129l-4 -2l164 180q168 323 247 479l84 424v72 l-41 258v2q-2 5 -11.5 18t-16.5 17h-37l-23 4q-22 3 -48 -4.5t-38 -20.5l-55 -53l-6 -12l-31 -66q-24 -24 -33 -30q-20 -12 -43 -7h-2q-12 4 -19 7.5t-14.5 11.5t-7.5 20q-5 74 54 158l20 23l37 38q75 47 88 52l109 22q14 -10 32 -10q23 0 37 -8q3 -1 17 -10l-2 2 q33 -22 41 -33l16 -19q4 -5 17 -18t21.5 -25t12.5 -26q23 -32 23 -43v2l53 -236v-73q0 -5 8 -5q14 -4 14 -18v-53q0 -9 -6 -21v-41q0 -1 -26 -102q0 -7 -9 -16q0 -11 -2 -19l-20 -125q0 -8 -8 -12q-13 -8 -27 -68q-3 -30 -12 -39l-176 -440v-10q-6 -30 -17 -41l-166 -203v-4 q-4 -8 -60.5 -54.5t-90.5 -70.5q-12 -9 -45.5 -28.5t-44.5 -24.5q-36 -12 -39 -12l-123 -33h-45q-2 0 -6 1t-6 1q-79 11 -93 20zM1296 813h-2l-14 6l-14 -10l12 41v-2l4 14l6 17v16l12 -16q10 -5 13 2v-2zM1343 1075l-2 2v2q0 -4 2 -4zM1343 1083q-2 -2 -2 -4zM1362 1094 q-4 0 -4 13t4 13t4 -13t-4 -13zM1389 1149v-21q0 -5 -5 5q-10 15 -16 16q-4 0 -8 -2t-6 -4l-2 -2v41q0 4 -1 17l-1 13l-2 2q14 -14 24 -14l-2 1q3 5 8 3q2 -1 2 -4q9 -45 9 -51z" />
<glyph unicode="P" horiz-adv-x="1089" d="M180 -117q-1 0 -4 1t-4 1q-37 12 -51 33l-103 207l-41 268v148l7 47q6 30 6 41v14l108 504l164 426q2 0 2 10q5 13 32 69t30 64l-2 -4q2 8 12 17q1 1 4 4.5t4.5 5t1.5 0.5q0 8 6 14v6q5 15 16.5 23t20.5 9t25 1l35 -6q8 -4 23 -18t20 -21l-3 6q23 -27 27.5 -45.5 t-2.5 -34.5q-4 -21 -2 -41l-55 -213l-25 -84l-51 -123v-22l-59 -189q0 -7 -11 -12q-1 0 -3.5 -4t-2.5 -6v-21l23 11q18 14 53 18l246 152q35 35 65 43l281 327q80 141 86 152l28 119q7 20 -18 41l6 -2l-127 53q-2 0 -4.5 0.5t-7 1.5t-8.5 2q-88 16 -115 16q-11 2 -49 2 t-45 -2l-166 -32h-16q-50 -20 -146.5 -58t-134.5 -53l-150 -107l-90 -104q-33 -15 -45 -41q-7 -11 -22 -55q-1 -6 -1 -26t1 -25q0 -4 7 -11.5t11 -9.5l21 -12h-2l20 -10l25 -29q16 -28 8 -72q-9 -18 -25.5 -24.5t-31.5 0.5q-25 7 -78 45l-39 41q-15 14 -27.5 37t-15.5 43 q-4 24 -4 51q0 3 -3 19t-3.5 24t-1 22t2 24.5t7.5 18.5v-2l102 174l129 121l178 107q18 3 31 16l330 102q18 0 192 19h31l197 -55l137 -76l51 -45q74 -79 82 -180v-31l-37 -154l-10 -18l-2 -6l-29 -37q-1 -5 -11 -28t-11 -28l-99 -139l-24 -24q-7 -7 -13 -7q-6 -6 -10 -8 q2 0 4 2l-16 -22l-6 -10q-5 -8 -19 -17l-12 -10l-29 -45q-20 -22 -61.5 -64t-56.5 -51q-36 -36 -125 -86l-60 -37h-22q-13 -8 -59.5 -32.5t-49.5 -26.5l-33 -12q-23 -8 -34 -21l-185 -53v2q-2 -4 -2 -8q-16 -47 -16 -150v-45q0 -10 -4 -14v-111q0 -10 -2 -14q-4 -12 -4 -14 v-29q0 -35 6 -47q0 -12 2 -12q4 -38 0 -50q12 -64 6 -96l33 -129v-70q0 -2 2 -4q4 -20 4 -28q-7 -33 -19 -45q-8 -8 -22 -4l-12 -5q0 -2 8 -2q-17 -13 -33 -10q-21 0 -37 4zM1040 1253l-2 -2zM293 952l-8 -4z" />
<glyph unicode="Q" horiz-adv-x="1865" d="M328 -121l-35 21h2l-55 39q0 -2 6 -2l-13 6q-4 4 -36 25t-39 24l-17 24q-43 51 -53 80l-88 271l-10 104l76 496l221 473l227 282l291 209l170 74l217 29q8 0 66 -14t83 -23v2q16 -4 64 -27t63 -33q17 -10 55 -43t52 -49q15 -4 33 -22l6 -13q41 -64 47 -79v4 q18 -34 14 -107q-10 -24 -40.5 -28t-47.5 12q-78 81 -141 110q-53 21 -113 39q-59 19 -92 19q-139 -12 -143 0q-5 -14 -13 -17l-190 -79l-21 -17l-24 -18l-4 -2l-25 -13l-133 -108l-12 -21l-78 -77l2 4l-229 -361q-10 -39 -39 -65q-2 -3 -27 -66l-29 -70q-7 -43 -16 -65 q0 -2 -1 -5t-1 -5l-51 -250v-8q-19 -167 -23 -187q0 -10 2 -16q4 -28 4 -39l50 -152l65 -61l35 -14q10 -5 66 -9l75 -6h92q6 0 38 8t38 11h17l14 6v2l88 43l27 10l51 31l35 33q14 2 14 -4q3 10 14 10q0 -2 -2 -2q1 0 2 1t2 1l84 67l-383 152h-34q-15 0 -65 7.5t-62 12.5 q-2 3 -8 11t-7 8q-14 3 -14 14q0 -12 4 -12q-12 5 -25.5 19.5t-13.5 23.5v29q2 13 9.5 21t13 10.5t18.5 6.5l8 5l8 14l2 -2q3 6 9.5 10t11.5 2l248 -61l24 -15l-4 2v-2q9 0 13 -4q20 -8 38 -14l45 -16h-6q1 0 3 -1t3 -1l72 -29l66 -29l24 -16q9 -1 62 -19l-2 2l59 -26v-2 q4 0 14 10l60 53l-2 -4l166 256q23 64 76 204.5t79 213.5q0 17 4 33q2 6 2 32q-10 60 -10 78v84q-1 7 -5 22.5t-5 22.5l-14 66l-9 26v-2q0 12 -6 21l4 -12q-20 27 -24 28q-3 0 -23 4l-28 9h-37l-172 -35q-42 -17 -56 -23l-108 -78l4 9q-8 -13 -29 -29l8 4l-24 -25 q-2 -2 -11.5 -10t-12 -10.5t-10.5 -10t-11.5 -11t-10 -10.5t-10 -12t-8 -12t-8 -14t-6.5 -14q3 4 -1 -6q-3 -8 -14 -35l-18 -43l-4 -10q0 -7 -6 -37v-12q0 -10 -25 -35l2 2q-41 -31 -71 12q-25 33 -27 41q-16 63 4 162l10 33q2 7 7 18.5t6 13.5q44 74 61 91l178 159l119 62 l16 12l86 21h156q8 0 92 -29l10 -6q83 -65 97 -84l-6 2q7 -4 15.5 -13.5t20 -25.5t15.5 -21l8 -14v4l14 -26l21 -35l69 -283v-55q0 -22 -18 -45l-49 -162v2l-10 -18q-5 -10 -2 -21l-177 -348q0 -1 -0.5 -2t-1 -4t-0.5 -8l-153 -168l-15 -4q3 0 0 -3l-8 -12l2 6l-10 -20 q6 11 21 6q10 -4 22 -12l303 -107h12q150 -26 220 -30q25 -5 71 -5q41 0 76 5q27 2 90 12t72 14l176 72l248 250l84 45h16q6 0 16.5 -19t10.5 -32q-5 -10 -8 -25l-11 -35l-108 -164q-4 -11 -10 -14l-19 -35l-158 -160l-198 -73h-10l-80 -17q-20 -4 -70 -4q-44 0 -68 4 q-10 0 -16 4l-31 7l15 -7q-15 0 -54 13h-34q-6 0 -17 1t-12 1h-12l-330 80l-25 10l-145 41q-12 12 -16 12q-9 0 -15 6q2 -4 -7 -1q-2 0 -5 1l-21 4l-73 39q-1 -1 -5.5 -4.5t-11 -8.5t-10.5 -9l-25 -23q-6 -6 -10 -6l-4 -4v6q-4 -12 -6 -14l-152 -109q-1 0 -1.5 -0.5t-3 -2 t-5.5 -3.5t-9.5 -8t-14 -11.5t-13.5 -9.5l-41 -28l-182 -68l-59 -10l-41 -6h4q-10 -3 -12 0q-2 -3 -7 -8t-8 -5q-10 -2 -67 -2q-54 0 -66 2l-20 5q-58 13 -84 26zM903 190q0 5 4 13q-4 -4 -4 -13zM1022 262l-16 6zM238 -61h2h-2zM723 -57h-2q-12 -6 -14 -6l6 20l8 -10l8 4 q-2 -4 -6 -6v-2zM719 -29q-7 5 -14 -2l8 -12zM752 -37q-4 0 -4 14.5t4 14.5q3 0 3 -14.5t-3 -14.5zM821 -37q-5 0 -5 14.5t5 14.5q3 0 3 -14.5t-3 -14.5zM838 -31l6 4l-19 29h4l33 -22l-14 -9l-2 -2l-2 2zM801 -14l-19 28l9 9l18 -35zM891 35l-19 8l-2 -16q8 -5 14.5 -2 t6.5 10zM874 59l-2 -16l-10 6zM1147 193l-162 -127l4 10l-26 14q23 18 178 141l6 -34v-4zM1292 240q-4 0 -4 14t4 14t4 -14t-4 -14zM1274 246q-3 0 -3 14t3 14q4 0 4 -14t-4 -14zM1298 360q-4 0 -4 14.5t4 14.5q3 0 3 -14.5t-3 -14.5zM1356 426q-1 16 -15 16l2 -14 q15 -10 15 -4l2 8q0 -1 -2 -3t-2 -3zM1325 434l14 23l2 -15zM1368 446q-4 0 -4 13.5t4 13.5q3 0 3 -13.5t-3 -13.5zM567 455q-5 0 -5 15t5 15t5 -15t-5 -15zM1397 473l-13 19l-16 -7q5 6 18 18.5t19 20.5l160 303q0 1 -2 3.5t-2 3.5h36l-38 -99l-101 -188l-18 -15 q-43 -54 -43 -59zM1466 608q-4 0 -4 14.5t4 14.5q2 0 2 -14.5t-2 -14.5zM1501 731l12 -18q-16 7 -12.5 19.5t15.5 12.5q8 0 14 -6q-8 6 -18.5 2t-10.5 -10zM1606 868l8 6v-10zM1602 866q2 0 4 2l-15 6zM1581 879v4l10 -9zM1636 909h2q0 -15 -19.5 -15t-19.5 15v11zM1647 967 q-9 -18 -9 -27q0 6 -26 6q0 11 2 21v12l20 -18q7 0 13 6zM1649 969l-2 -2q2 0 2 2zM1686 1112l-3 -2q0 8 -12 8l-20 -18v28q0 17 19.5 17t19.5 -17q0 -8 -4 -16zM1530 1276h-2q5 -14 2 -19q2 3 2 9.5t-2 9.5zM1528 1282v-6v6zM1530 1255v2v-2zM1661 1303q1 -2 8 -37 q1 -2 2.5 -6t2.5 -6.5t1 -4.5q0 -17 -20.5 -17t-20.5 17v27q11 4 15 4l8 4zM1649 1356l6 -15q0 -3 -2.5 -7.5t-3.5 -4.5l-21 -18q0 3 -4.5 17t-7.5 18l-1 6q-1 7 -1 12l39 -8h-4zM1630 1407l2 -6l2 -6l-18 -27q-3 13 -13.5 35t-13.5 31l37 2q0 -21 4 -29zM1602 1436 q-4 0 -4 14t4 14t4 -14t-4 -14z" />
<glyph unicode="R" horiz-adv-x="1601" d="M2763 -76h-2q-343 -221 -701 -221q-154 0 -303 40.5t-272 110.5t-222 151.5t-178 174.5q-14 19 -30 37q-31 35 -35 45l2 -4l-51 74q-105 156 -133 211l-13 14l-90 162q-7 11 0 18l-26 27l-111 209q-6 13 -19 59.5t-14 63.5v-2q-3 12 -3 38t3 37q5 20 23 23q20 2 45 -6h-2 l24 -6l19 -31l22 -39q2 0 4 -4.5t2 -7.5q3 -2 7 -4l10 -15l104 -80q35 -22 85.5 -30t95.5 -2q14 0 20 4l20 6q47 -12 115.5 33.5t130.5 122t106 183t44 204.5q0 53 -19 112q-44 145 -176.5 227.5t-320.5 82.5q-116 0 -254.5 -40t-276.5 -114l-31 -19l-47 -26l-73 -64l-2 -4 q-1 -2 -4 -6.5t-5 -8t-4 -5.5l-10 -13q-1 -1 -1.5 0t-0.5 3q-3 -14 -16 -17q-4 0 -4 -2l-37 -37l10 8q-2 -3 -2 -24v-8q6 -48 14 -80l-2 2q4 -11 31 -29q21 -15 32 -29t11 -38l-2 -43q-4 -19 -21 -19h-51q-10 0 -16 6q-30 -4 -39 2q-29 11 -53 29q-54 54 -64 66l-10 18 q-15 62 -10 121q0 11 14 16q4 76 23 115q6 2 6 4l51 84l22 22q7 7 31.5 32.5t41 41.5t24.5 21q27 24 77 59.5t60 36.5l-4 -2l297 115q16 6 137 24q2 0 12.5 1t28 2t35.5 1q58 0 117 -6.5t145 -30.5t160.5 -63.5t151 -114t128.5 -174.5q58 -128 58 -262q0 -133 -49.5 -267 t-127.5 -234t-178.5 -163t-197.5 -63q-78 0 -140 37l11 -2l-18 3l-34 5q133 -193 277 -340t344 -309q133 -90 284.5 -136.5t286.5 -46.5q91 0 185.5 15.5t161.5 35.5t126.5 44t86 38t34.5 19q5 3 66 72v-2q58 74 121 61q1 0 3 -1t3 -1q37 -13 55.5 -34.5t22.5 -63.5 q6 -33 -11 -71t-49.5 -72t-55 -54.5t-46.5 -38.5zM1610 -51h2q40 -10 55 -10h6q-2 -5 -2 -7q1 4 7.5 8.5t9.5 4.5q2 0 9.5 -2.5t12.5 -3.5h14l-8 -2q-3 -2 -6 -7t-2 -6l14 -6h-112l-19 -4l8 39q4 -4 11 -4zM1503 -53l33 -8q0 12 -6 17.5t-14 3t-13 -12.5zM1585 -78 q-3 0 -3 16.5t3 16.5q5 0 5 -16.5t-5 -16.5zM1499 -72q-5 0 -5 15.5t5 15.5t5 -15.5t-5 -15.5zM283 -63q-97 57 -117 112l-2 8q0 7 -4 19l-13 53q0 29 -6 152v16l4 37q11 89 13 135v31q0 6 4 22l2 6v27l108 459l312 735q15 27 48 46.5t60 19.5q4 0 20 -11t23 -18 q2 -6 10 -14l7 -11q15 -11 20 -32q0 -11 2 -19q4 -16 4 -31l-241 -536v4l-166 -651q4 -19 -4 -56q0 -1 -1 -5t-1 -5q0 -18 -11 -145q0 -12 -8 -23q4 -12 4 -18v-13q-4 -20 -4 -112q0 -48 4 -64q0 -16 12 -20q22 -18 27 -37v-35q-5 -19 -27.5 -27t-45 -6.5t-33.5 7.5z M1452 -51l21 16q-9 4 -15 -0.5t-6 -15.5zM1483 -66q-5 0 -5 14.5t5 14.5q3 0 3 -14.5t-3 -14.5zM1454 -29l-2 2h4h4l-14 -32q-1 0 -5 3t-5 3zM1442 -20l10 -7q0 7 -10 7zM1554 -39l33 6q-7 17 -20 14.5t-13 -20.5zM1516 -10q12 0 24 -6q8 0 12 2l-10 -33l-2 4q-6 0 -8 2 q-1 1 -8 2.5t-18 3.5t-17 4q-2 0 -10 2t-9 2l17 31q3 -4 29 -12h-7q1 0 3.5 -1t3.5 -1zM1432 -14q-4 -17 -19 -17l-4 -4l-2 4h-10l8 11v2q-13 11 -55.5 46.5t-65.5 55.5l-37 22q-4 6 -37 39h-4l15 33l137 -131q12 -6 33 -19.5t32 -19.5t11 -18l2 -2zM1442 25l10 -9l-10 -20 q-7 29 0 29zM1460 10q-3 6 -8 6zM1446 -10q-1 0 -2 3q-1 1 -1 1.5t-1 1.5v-4zM1436 2q-4 0 -4 14.5t4 14.5t4 -14.5t-4 -14.5zM1434 27l-13 8l-12 -27l4 -2zM1423 41l-2 -6l-8 6h10zM1401 18l8 31h-2l-14 -31q2 -2 8 0zM1241 129l2 -2q21 -21 27 -21l-15 -34l-120 106l30 25 q10 -14 58 -58zM1159 145q-5 0 -5 15.5t5 15.5t5 -15.5t-5 -15.5zM1153 152q-3 0 -3 14t3 14q5 0 5 -14t-5 -14zM1149 158q-5 0 -5 13t5 13q3 0 3 -13t-3 -13zM1194 164q-3 0 -3 13t3 13q4 0 4 -13t-4 -13zM1135 213l16 -16l-16 -4v20zM1118 188q-1 -2 2.5 -3.5t8 -2 t6.5 1.5v9zM1114 197q-3 0 -3 14t3 14q4 0 4 -14t-4 -14zM1083 274l13 -20l16 -14h-2l-18 -29q0 2 -5 12l-40 43q-3 3 2 3h26t2 1q0 2 1.5 4t4.5 0zM1108 281l-2 4l2 -4l8 -5l-12 -4l2 7l-8 4q1 0 4.5 -1t5.5 -1zM1094 270q-2 -2 1 -5t5 -1l4 8zM1047 311l-9 8l-2 -20 q-12 18 -16 20l-23 23q-12 4 -12 18l-10 21q0 -4 -6 2l14 6l8 4q7 0 13 -8q1 -1 9 -13.5t13 -17.5l12 -24q9 -18 9 -19zM2822 190q-4 0 -4 14.5t4 14.5t4 -14.5t-4 -14.5zM791 666q-3 0 -3 15t3 15t3 -15t-3 -15zM737 829v-2q4 -7 8 -18.5t3 -11.5l-21 -17q4 27 -27 51 l33 17q0 -7 4 -19zM948 823l10 17l17 -17h-27zM965 856q-9 -2 -9 -12l2 -4l9 12v4h-2zM969 858l-2 -2q0 2 2 2zM983 823q-1 0 -1 14.5t1 14.5q5 0 5 -14.5t-5 -14.5zM831 850q6 6 7 14.5t-4 12.5l8 -3q0 -2 11 -4t19 -2l-16 -32q-3 5 -12 10t-13 4zM827 881l7 -4q-4 4 -7 4z M829 850h2h-2zM885 834q-5 0 -5 15t5 15q3 0 3 -15t-3 -15zM700 842l7 32q-16 0 -23.5 -6t-3 -13.5t19.5 -12.5zM717 877h-8l2 12zM688 881q11 0 17 -2zM705 879l4 -5v3zM709 874q3 -3 0 -6v6zM125 1395l12 -4q2 -2 13 -2l-9 -3q-15 -8 -12 -18q-11 8 -25 8h-4q8 0 21 13 q4 4 2 6h2zM133 1364l-4 4q0 -4 4 -4zM80 1393q-3 0 -3 14t3 14q4 0 4 -14t-4 -14zM139 1485l6 -6q8 -7 3.5 -17t-13.5 -13.5t-18 3.5l-6 6q-7 7 -2.5 17t13 13.5t17.5 -3.5zM113 1495q-5 0 -5 14.5t5 14.5t5 -14.5t-5 -14.5z" />
<glyph unicode="S" horiz-adv-x="1138" d="M295 -74h-10l-146 33q-8 4 -8 8l-27 19q-12 8 -14 8q-42 29 -68 78t-34 104l-6 10q-2 9 -2 38.5t2 39.5q15 66 36 123q6 19 60 94q15 45 28 58l-4 -2q6 8 23 22t25 14q11 0 16 -8l217 195q-55 109 -104 211l-52 172q-3 5 4 18q0 15 -24 84v178q-6 17 -6 23q-7 21 2 35 q0 4 4 12q5 62 18 119l68 170l-2 -4q8 15 44.5 58.5t57.5 61.5q19 17 66 53.5t65 45.5q1 0 78 35q32 11 74 32q3 2 29 6.5t32 4.5l-12 -9q18 6 64 10.5t75 4.5h29l49 -8q35 -7 41 -7l29 -14l16 -10h10q63 -28 88 -70l13 -16v2q29 -44 32 -86q8 -32 0 -68q-4 -22 -24 -73 q-8 -20 -8 -27q-3 -5 -8 -29t-5 -28q0 -17 -14 -35l2 2l-10 -19q-24 -72 -29 -82q-6 -14 -49 -96l-2 -2q-17 -36 -61 -43h-50q-9 0 -34 21q-9 0 -13 4h-6q-21 11 -44 38.5t-19 47.5q12 53 16 57l-2 -4l147 227l37 117v51h-84q-46 -24 -84 -33q-62 -15 -92 -36l-33 -31 l-38 -31l-15 -10q-39 -35 -49 -61q-12 -10 -43.5 -41.5t-40.5 -42.5l2 2l-49 -95v2q-2 -3 -6 -30.5t-4 -34.5q0 -8 -6 -14l-11 -23q-2 -22 -4 -47l-4 -51l12 -101v-34q-3 -56 7 -91l14 -61q2 -7 4 -13.5t3 -10t1 -5.5q24 -36 27 -55l-2 4l39 -102q77 49 223.5 148.5 t173.5 117.5q16 4 39 4q34 -5 62.5 -28.5t35.5 -55.5q0 -27 -6 -37q-6 -18 -14 -22l-402 -269l-10 -8l2 2q-4 -4 -10.5 -7.5t-11.5 -5.5l-5 -1q5 -6 7 -6q10 -19 10 -21l20 -37l13 -28l12 -23q3 -14 12 -24l68 -211q10 -39 6 -97q-6 -109 -59 -190q-10 -30 -27 -47l-4 -4 q-18 -18 -29 -21h6l-157 -80q-13 0 -29 -4q-36 -8 -59 2q-16 -5 -54 -10q-8 -2 -28 -2q-9 0 -25 4zM-4 172q-2 0 -6 4q4 -4 6 -4zM371 -10l-9 -2q-4 -4 -6 -8l-14 32q194 -27 194 -30q0 -1 -60 4q-99 7 -105 4zM319 -18q-6 0 -6 15t6 15q3 0 3 -15t-3 -15zM455 8l-21 15h37 q4 2 6 2l12 8l7 2l8 -35q-14 2 -39 -6l2 2q-13 -8 -33 -8zM553 43l29 14q-8 7 -18.5 2t-10.5 -16zM598 39q-4 0 -4 15.5t4 15.5t4 -15.5t-4 -15.5zM174 100l8 -6h17q12 -2 40 -2t31 2q19 0 43 12q5 2 16.5 6.5t16 6t16.5 3.5t19 -1q55 34 57 37q10 6 36 27.5t36 31.5 q56 63 43 158q0 6 -3.5 24.5t-6.5 22.5l-68 178l-4 8l-301 -276q-4 -4 -15 -23t-12 -28q-5 -7 -18 -66q-3 -18 -4 -20l2 -2q19 -34 12 -48l-10 -8q17 -29 49 -37zM117 156l8 -19l-2 -2l-17 -6zM467 612q0 -2 2 -4l-2 6l-5 14q-1 -1 5 -16zM475 610l-4 -2h-2q2 0 6 2zM621 59 q-6 0 -6 14.5t6 14.5q5 0 5 -14.5t-5 -14.5z" />
<glyph unicode="T" horiz-adv-x="1138" d="M913 61h-14q-6 2 -47.5 11.5t-48.5 11.5q-37 10 -75.5 54t-53.5 85q0 1 -5.5 24.5t-10.5 44.5t-7 25q-6 19 -31 80t-34 78l-60 244q5 26 0 77t0 76l76 560l39 127q-4 6 -6 6h-6l-428 -179q-20 0 -29 -6q-1 0 -5.5 -3.5t-9.5 -7.5t-7 -5q-17 -5 -40 -0.5t-38 16.5 q-2 2 -8.5 9t-9 9.5t-7.5 8.5t-7 8.5t-6.5 8t-6 9t-4.5 9t-4.5 10.5t-3.5 11t-3 12q-12 60 -12 67v23l795 317l118 162q54 70 174 -12q9 -7 20 -25.5t17 -24.5q15 -15 29 -10q88 15 113 23h6l360 71q11 -2 31.5 3t28.5 4l301 43h12q147 21 160 22h28q6 0 38.5 5t33.5 5h57 q5 -8 7 -10q1 -1 4 -3t4.5 -3.5t3 -5t0.5 -6.5q-31 -66 -92 -95q-21 0 -27 -6q-1 0 -10.5 -7t-11.5 -7q-4 -4 -23 -4q0 -6 -12 -6l-232 -51q-1 -2 -11 -7t-11 -6q-4 -1 -32.5 -7.5t-33.5 -6.5q-5 -1 -15 -1t-13 1l-156 -35l-6 -6l-51 -10q-5 -8 -19.5 -14.5t-17.5 -8.5 l-158 -26q-4 -7 -23 -17q-6 -2 -44.5 -9t-45.5 -9h-6l-237 -66l6 -12q-7 -4 -38.5 -13t-39.5 -26l-16 -36t-25.5 -56.5t-15.5 -34.5q0 -2 -5 -9t-6 -7l-90 -236q0 -2 -3.5 -4.5t-6.5 -1.5v18q0 13 51 148q6 19 29 53q0 9 10 39q0 2 7.5 16.5t7.5 16.5q5 10 11.5 30 t11.5 35.5t5 16.5v12l-10 -6l-162 -451q-4 -29 -4 -39v-6h4q0 23 12 29h7q9 -33 -7 -55l-45 -211q-3 -9 -3 -87.5t3 -113.5q1 -9 8.5 -59.5t8.5 -59.5q12 -12 22 -43v-45q28 -97 29 -100q0 -4 14 -29.5t19 -32.5q10 -20 10 -39q21 -42 22 -43q0 -3 10.5 -11.5t14.5 -10.5 q2 -12 4 -12q0 -1 10.5 -8.5t10.5 -8.5q2 -2 9 -16.5t9 -16.5q10 -10 16 -10q16 -14 56 -78q-9 -21 -32 -35.5t-46 -11.5q-2 0 -12 3t-11 3zM952 117q2 0 8.5 -2.5t12 -2.5t8.5 5q6 12 -6 16l-10 6q-2 2 -8.5 13t-13 16t-13.5 0q8 -7 11.5 -27t10.5 -24zM909 211q-5 0 -5 -6 t5 -6q3 0 3 6t-3 6zM858 268q-4 0 -4 -6t4 -6t4 6t-4 6zM842 281l4 -7q3 2 1 5.5t-5 5.5v-4zM817 305l19 -14q4 14 -8.5 36.5t-10.5 34.5q-2 5 -17 41t-20 54q0 2 -3 16t-3 16q-4 14 -16 39q-6 -6 -6 -16zM735 575l17 -18q12 5 -7 33q-1 4 -8 43t-8 43l-6 8l1 6q1 6 1 11 t-2 6q0 12 -6 18v88q0 3 3 25.5t3 25.5v4q0 23 -6 23h-2q-6 -24 -6 -55q-1 -19 -1 -62t1 -49q3 -32 13 -90.5t13 -59.5zM758 1120v-12q14 25 12 47q-6 -13 -12 -35z" />
<glyph unicode="U" horiz-adv-x="1613" d="M1290 -229q-14 2 -53 22q-11 9 -36.5 32t-29.5 30q-11 12 -35 49t-28 45l-43 182q-1 5 -1 41t1 55q0 1 3 14t3 15q2 23 2.5 79.5t3.5 86.5q0 13 5 71t8 68v27l-242 -328q-75 -69 -137 -160l-265 -213l-100 -32l-8 4q-3 0 -23.5 3t-23.5 3q-8 4 -10 6l-7 6q-25 0 -34 6 q-30 10 -43 23q-10 7 -47 39t-48 43q-3 2 -8 8t-9 11.5t-5 6.5l-55 123q-1 1 -23 162v33l35 243l115 371q19 30 22 66l246 563q14 11 14 33l213 301l6 6h52q35 -4 67 -45t41 -78q3 -5 3 -16.5t-3 -12.5l-332 -651q0 -9 -18 -51v-6l90 194q20 26 35 76l129 225q2 6 7 -1l1 -9 q-1 -3 -5.5 -9.5t-6.5 -10.5t-4 -11.5t2 -11.5l-35 -47q1 -7 -4 -16.5t-13 -14.5l-290 -657q0 -12 -11 -45q-16 -54 -20 -60l-86 -329v-162q0 -3 3 -19t3 -20q11 -76 39 -96l18 18h4q0 -2 3.5 -5.5t9 -7.5t6.5 -5q8 -5 28 -10t25 -7q6 -2 6 -6h6q6 3 39 17.5t39 17.5 q1 0 11.5 8t11.5 8q3 2 10.5 6t10.5 6t6 8t4 15l219 209q6 19 16 29l6 6l135 207q7 7 22.5 29t14.5 26l60 100l12 11l637 1269q0 2 4 6.5t9.5 10.5t6.5 8q28 14 39 25q13 10 19 13.5t10 2.5t6.5 -4t10.5 -6.5t20 -5.5q9 -6 33 -31.5t30 -34.5q18 -20 13 -72h14v-41 l-105 -194l-16 -23l-152 -315q0 -2 -4.5 -8.5t-7.5 -7.5l-3 -7q-3 -7 -6.5 -15t-7.5 -16t-8 -12.5t-6 -3.5v6l50 101v6l86 184h-11q-43 -86 -59 -121q-11 -32 -12 -34l-148 -301v-17l-125 -385v-78l6 6l78 295l6 7v-41q-4 -11 -6 -15q-4 -10 -13 -48.5t-22 -55.5l-49 -271 q-4 -4 -5 -7t0 -9.5t1 -9.5q0 -40 -6 -58l-6 -18v-100q0 -2 -3 -12.5t-3 -12.5v-51q-6 -8 -6 -10q-10 -112 41 -269v-4l36 -61q3 -3 -3 -18t3 -17v-43q0 -4 -11.5 -8.5t-12.5 -14.5q-46 -5 -72 7zM1321 -100q0 -2 4.5 -4t7.5 -2h4v6q-1 3 -8 21.5t-8 21.5q-1 12 -11.5 72.5 t-11.5 72.5v27q-12 -7 -14.5 -26t-0.5 -29.5t7 -32.5q1 -6 9.5 -52t9.5 -55q2 -2 6.5 -10.5t5.5 -9.5zM281 8q2 0 9.5 -3t11.5 -2.5t7 5.5v6q-12 6 -18 6l-23 23q-8 12 -11.5 33.5t-4.5 25.5q-2 10 -12 82q0 10 -2.5 41.5t0.5 40.5h-7v-151q0 -1 3.5 -14t7 -29t4.5 -23 q11 -33 35 -41zM653 84q-5 0 -5 -6t5 -6t5 6t-5 6zM1290 227v-24h2zM1290 260q-4 0 -4 -2t4 -2q2 0 2 2t-2 2zM1290 309q-3 -1 -3 -12t3 -12q0 -3 1 -3t1 3l6 14l11 4q6 6 6 29v96q0 17 -6 23q-11 -17 -14.5 -34.5t-2.5 -33.5t0 -39q0 -1 -1 -17t-1 -18zM238 315q-4 0 -4 -6 t4 -6q2 0 2 6t-2 6zM240 399v-49l55 195h-8q-3 -4 -13 -35q-6 -8 -6 -10q-23 -96 -28 -101zM1309 473l6 -12q3 7 7.5 35t4.5 36v7h-6q-8 -44 -12 -60v-6zM291 561q-3 0 -3 -5t3 -5q5 0 5 5t-5 5zM1327 561q-3 0 -3 -2t3 -2q4 0 0 4zM1327 582q-5 0 -5 -4.5t5 -4.5t5 4.5 t-5 4.5zM303 604v-10q1 5 9 25l7 20v12l-4 -12q-3 -4 -7.5 -18t-4.5 -17zM326 682q-3 0 -4 -2t0 -4t4 -2t4 2t0 4t-4 2zM332 700v-6l6 6h-6zM338 729v-6h2q11 8 6 29q-8 -8 -8 -23zM358 788v-6q6 3 6.5 12.5t-2.5 10.5q0 -1 -2 -8.5t-2 -8.5zM381 852v-6l10 12q13 34 29 88 q10 21 12 21q0 3 4 17t4 17l-6 -6q0 -1 -9.5 -23t-21.5 -51t-16 -44q-6 -19 -6 -25zM446 1024v-6q16 12 13 29q0 -10 -13 -23zM1700 1575l-6 -12h6v12zM1722 1620q-4 0 -4 -6t4 -6t4 6t-4 6zM1729 1634v-6q4 0 10 6l119 217q-2 0 -9.5 -2t-9.5 -2h-4v11q-23 -16 -29 -35 q4 -4 11 -2v-13q-9 -18 -23 -32q0 -2 -3 -9.5t-3 -9.5q-1 -3 -15.5 -29.5t-15.5 -29.5q-3 -3 -7.5 -18t-4.5 -17q-1 -1 -8 -14.5t-8 -14.5zM1845 1886q-5 0 -5 -5t5 -5t5 5t-5 5z" />
<glyph unicode="V" horiz-adv-x="1130" d="M205 -127q-16 10 -27 27.5t-10 36.5l31 608q2 8 2.5 27t3.5 28l6 164q-3 8 -1.5 40t3.5 42l-90 883q-2 3 -4.5 12t-3.5 10l2 6l-86 385q0 2 -2.5 23t0.5 24q1 0 11 4.5t19 7.5t13 3q2 2 17.5 2t19.5 -2q9 0 27 -2t33 -4l15 -3q1 0 23 -9t29 -13q15 -8 30 -35t21 -33 q2 -5 10.5 -28.5t16 -44.5t10.5 -27v-41l100 -391q2 0 2 -29q-2 -2 -2 -6q19 -81 22 -160q-1 -2 -1 -6t-1 -6q0 -1 15 -59q0 -1 1.5 -18t2 -28.5t-1.5 -19.5l6 -8q0 -8 1 -35t1 -29q0 -16 -6 -22q0 -6 3 -10t1 -11l29 -278q-7 -23 -7 -57q-5 -16 -3 -86.5t1 -86.5 q-3 -14 -5 -41.5t-2 -45t1 -21.5l2 -4q4 2 24.5 34.5t20.5 41.5l68 129v6q4 8 14 30t18.5 39.5t10.5 20.5q-1 1 2 5.5t7 10t5 6.5l84 177q-3 9 10 23t15 18q55 93 61 139l475 659l7 6l145 166q47 34 63 62l295 229q5 1 20.5 0.5t18.5 -2.5q5 -5 11.5 -17.5t3.5 -17.5 q-3 -10 -14.5 -23t-20.5 -18q3 -2 17.5 2t17.5 -4l-4 -6l-72 -57q-4 -8 -19 -18t-16 -11q-78 -67 -96 -76l-6 -12q-32 -24 -43 -35q-6 -4 -19 -12t-22.5 -15t-16.5 -16q-3 -3 -11.5 -19t-8.5 -18q-3 -4 -31 -39t-31 -39q0 -1 -4 -8t-6 -8l-235 -293l-5 -8q-4 -7 -6 -8 q-7 -8 -42 -54.5t-38 -50.5l-6 -24l-88 -135q0 -4 -4 -14.5t-8 -14.5q-28 -49 -63 -98q-1 -2 -4.5 -16.5t-4.5 -16.5q0 -2 -14 -16v-17q-4 -8 -29 -33q-1 -4 -20 -44t-21 -46q-8 -21 -26 -52.5t-31 -35.5q-14 14 -18 0q-4 -12 -37 -78q-2 -2 -2 -6q16 -3 26 13q-4 -9 -4 -13 l-31 -65h-16q-14 -23 -16 -35q-3 -1 -5.5 -11t-0.5 -12l14 -2l-6 -32l-94 -236q-16 -22 -27.5 -50t-23.5 -65t-19 -55q0 -1 -5 -10.5t-11 -20.5t-7 -12l-4 -16q0 -17 -12 -35q-8 -15 -10 -17q0 -26 -6 -32q0 -2 -4 -12t-5 -11q0 -26 -6 -29q-1 -7 -20.5 -59t-20.5 -57v-8 q-3 -2 -6 -5t-5 -5.5t-3 -2.5q-32 -15 -64 -21t-59.5 -6t-60.5 1q-10 3 -37 16zM430 -16q-17 -50 -20 -70h10l47 100q-8 6 -21 -8t-16 -22zM584 367l2 -5l8 11q27 65 39 92l2 10q0 1 3.5 6t7.5 10t5 7q0 6 10.5 33t16.5 38q1 2 2 7.5t2 10t2 5.5q-42 -25 -35 -55 q-7 -8 -25.5 -45.5t-25.5 -53.5q-21 -64 -14 -71zM483 500q-5 0 -6 -10q0 -3 2 -3q5 0 6 10q0 3 -2 3zM705 643q-4 0 -6 -8q2 -2 3 -2q3 0 4.5 4.5t-1.5 5.5zM745 741q5 3 0 3t-6 -3q6 -9 6 0zM752 762l-3 -3q-2 -5 -1 -5q4 0 6 5q0 3 -2 3zM827 932q-4 -8 -4 -19q0 -1 3 -1 t3 1q11 15 11 33q-13 -13 -13 -14zM854 985q0 -12 -4 -16q11 6 29 35q5 14 18.5 41t24 47.5t10.5 21.5l4 12h-6q-27 -37 -35 -51q-23 -58 -41 -90zM961 1190l6 -8l102 155h-16l-35 -37zM1081 1372l-8 -12h6zM1198 1554q-6 0 -6 -6q1 -4 4 -4q6 0 6 6q-1 4 -4 4zM1239 1608 l6 -4l10 18q-4 0 -10 -4.5t-6 -9.5zM1264 1640q-1 1 -2.5 -2.5t0.5 -3.5q6 4 2 6zM1274 1663q-1 -2 -1 -6t-1 -6q3 -7 12 12l4 10h-6q-8 -8 -8 -10zM1307 1706q2 -8 4 -8q3 0 9.5 5.5t8.5 8.5q4 6 19.5 24t25 30.5t8.5 13.5l4 12q-9 -6 -14 -6q-3 -5 -26.5 -23.5 t-26.5 -21.5q-12 -15 -12 -35zM1626 2071l-4 -17h4q9 0 68 53l6 11q1 1 11 8.5t11 9.5q3 4 52 53q-6 4 -21 -6q-1 -1 -6.5 -4.5t-10.5 -6.5t-7 -3z" />
<glyph unicode="W" horiz-adv-x="1914" d="M221 -113l-98 86l6 -2q-15 8 -27 31q-3 8 -12 14q-2 0 0 1t8 1q-13 4 -16 13l-23 37v-2l-26 45q-19 47 -21 65l-10 45q-4 19 -11 90t-9 103q-5 45 -5 102q0 61 5 96q14 189 32 301v11l111 438l147 299l4 6l119 211v-4q6 14 68 76q3 5 61 51q9 5 25.5 4.5t25.5 -6.5 q6 -3 21 -13l22 -12l-2 2q22 -14 43 -44t21 -50v-39l-80 -96l-311 -725l2 4l-41 -250q-4 -20 -4 -80v-16q-3 -7 -11 -54.5t-8 -56.5v-84q0 -24 2 -47q4 -50 4 -51v-29q0 -15 13 -41l-6 -20q0 -11 5 -31t5 -28q8 -36 8 -72l37 -90l24 22q15 10 29 31l-2 -2l21 35l45 78l4 4 l391 745v-2q7 15 28 18.5t31 -1.5l74 -74q7 -7 23 -39q0 -1 1 -4t1 -4v-131q0 -10 -7 -45l39 -226q7 -18 11 -32l2 -17l20 -59q6 -29 11.5 -46.5t15.5 -39.5t26 -38t39 -28q9 0 45 -12q17 -10 29 -10q20 0 40.5 8t33 16.5t35.5 26.5l-7 -10l21 14l14 20q2 2 5 6l4.5 6t4 5 t2.5 2.5t1 -0.5l159 311l41 250q0 23 6 39q0 4 1.5 35.5t1.5 52.5q0 22 -1.5 55.5t-1.5 38.5q-4 24 -13 78.5t-13 83.5l-12 31q-6 21 -17 43q-4 4 -14.5 18t-13.5 17l-11 14q-2 6 -4 10q-4 4 -4 10q-47 77 -59 101l-150 174l6 -2q-35 21 -45 51q-4 12 4 20l25 25 q12 8 45 8.5t45 -8.5l121 -123l6 -12q1 0 3 -1t3 -1q3 -5 25 -29t26 -27q39 -45 80 -106q25 -38 47 -100l2 -11h-6q11 -3 15 -14h2l67 -184q2 -31 6 -41v-23q0 -5 13 -57q0 -11 -4 -27q-5 -16 2 -26v-90q0 -11 -4 -39q-3 -18 -3 -19q-2 -5 -2 -19t2 -18l-38 -196l-7 -17l2 2 l-47 -168q-74 -153 -88 -163l4 2l-75 -88l2 4q-8 -16 -19 -27l-8 -10q-4 -4 -6 -4q0 -7 -6 -13l-45 -45q-22 -17 -73 -34t-79 -19h-43q-6 -6 -18 -6l-31 8q-6 1 -15.5 4t-15.5 4l-33 13l-79 32q-10 6 -39.5 34t-34.5 36l-78 137l-76 316q-8 -17 -22 -27l-2 -2v-8 q0 -7 -15 -41.5t-26 -50.5l-37 -58q-20 -22 -35 -10l-4 -6l-22 -23h1l-47 -86v7l-8 -15q-7 -17 -16 -26l-8 -17q1 0 2 -1t2 -1q38 -18 4 -57l-98 -219q-30 -44 -33 -47h2h-2v-2q-40 -33 -64 -33h-73l-27 10zM1532 1231q0 2 -2 2zM1462 184l-2 -6q2 3 -5 9t-13 6l-12 -5 q10 6 18 23v-4q0 -6 6.5 -12t13.5 -2zM1450 215q3 5 3 8q0 2 -1 2q-3 -2 -4 -14q0 2 2 4zM1479 250l16 16l14 -26zM1516 238h-3l9 4q-6 -6 -6 -4zM1507 236l2 2l2 -2h-4zM1513 238l-4 2v-2h4zM1530 268q-4 0 -4 14.5t4 14.5t4 -14.5t-4 -14.5zM1554 297l-30 18q19 19 16 31 l35 -6q-17 -28 -21 -43zM598 287l-18 12q-7 16 16 57l8 17q5 8 14.5 10t28.5 -10q4 -21 -9.5 -50t-29.5 -40zM1552 348l-4 -4q2 2 2 5t-2 5l-28 -2q16 21 14 23l33 4zM1599 401q-5 0 -5 14.5t5 14.5t5 -14.5t-5 -14.5zM637 436q-18 -18 10 -24l17 12zM672 432v-10l-8 2z M1606 412l-15 30q-12 -12 -7 -21t22 -9zM1614 446q-3 0 -3 14.5t3 14.5q4 0 4 -14.5t-4 -14.5zM1661 596v-27l-33 17zM1626 584h-2h2zM1671 717v-4l6 -17l-35 15v4q0 1 1.5 7.5t1.5 8.5q10 58 10 74l-6 43l39 -2q-5 -19 -5 -31q-14 -74 -12 -98zM1675 932q-5 0 -5 16.5 t5 16.5q3 0 3 -16.5t-3 -16.5zM1698 1085q-2 -2 -2 -14l2 -2l-33 -14v45zM1679 1092v32q3 0 3 -16t-3 -16zM1665 1118l14 29q-43 0 -14 -29zM1659 1231l12 -31l-29 8zM1642 1217l-2 -9l-4 2zM1638 1196q0 8 2 8zM1640 1208v-4l2 4h-2zM1628 1247l-12 29q-25 -17 -22.5 -23 t34.5 -6zM1620 1280q-4 0 -4 14.5t4 14.5t4 -14.5t-4 -14.5zM1614 1290q-3 0 -3 15.5t3 15.5q4 0 4 -15.5t-4 -15.5zM1610 1303q-3 0 -3 13t3 13t3 -13t-3 -13zM1614 1341l4 -4l-33 -12q0 4 -4 16v5l-14 22q-7 11 -15 29l39 2q-3 -3 -0.5 -11t2.5 -10.5t3.5 -9.5t5 -9 t6.5 -9t6 -9zM1473 1436q-3 0 -3 15t3 15q5 0 5 -15t-5 -15z" />
<glyph unicode="X" horiz-adv-x="1402" d="M35 -123l-29 31q-10 10 -18 26q-6 9 -6 27v53l485 961l-90 121q-1 5 -15 14l-245 379q-33 8 -15 41q2 11 19 41l12 8q4 1 25 15.5t24 17.5h11l45 16q10 3 39 -1.5t34 -8.5l45 -45l74 -125v-18l150 -232l-2 4l12 -12l12 -21l596 568l250 157q1 0 5.5 1t6.5 1q38 5 49 13 l-2 -4l21 18q17 8 37 -1.5t32 -23.5l27 -34v-60q-6 -14 -10 -20l-4 -8q-2 -27 -2 -29q-16 -55 -68 -61l-348 -248l-10 -6l-363 -373q12 -4 12 -19q0 -4 -6.5 -15.5t-13.5 -18.5l6 4l-33 -43l-18 -23l78 -88l2 -8l434 -420q5 -20 43 -37q4 -4 8 -16l-6 10l10 -18l2 2 q17 -14 25 -29l10 -18q0 -7 4 -7q11 -4 14 -14.5t-4 -17.5q11 -16 11 -21v-14q0 -12 -10.5 -19.5t-20.5 -7.5l-61 17l-119 63q-9 0 -25 16q-31 19 -37 17l-20 28q-3 -6 -6 -6q-2 0 -7 1t-6 1l-438 404l-24 -33l-31 -47l-8 -6q-6 -6 -15.5 -7.5t-13.5 3.5 q-13 -23 -131.5 -237.5t-175.5 -321.5q-5 -2 -4 -4.5t0 -4.5l-13 -28l-10 -10q-5 -7 -17.5 -29.5t-13.5 -24.5h3l-5 -14v6q-1 -1 -7 -13.5t-9 -19.5l-6 -24q-4 -24 -9 -39.5t-20.5 -31.5t-40.5 -23q-60 23 -61 24zM297 248q0 26 10 39l-2 -2l121 219q8 13 23.5 9t15.5 -19 v-17q0 -8 -55 -121l-13 -14l2 2l-24 -39q-8 -8 -31 -65q-5 -11 -18.5 -16t-22.5 3q-6 6 -6 15v6zM436 518l90 154q22 22 41 4q12 -12 4 -23l-6 -16l-84 -143q-1 -1 -4.5 -6t-6 -7t-9 -4t-12.5 4q-4 1 -8.5 7.5t-4.5 11.5v18zM846 1137l4 4q4 11 12 14h-2l582 508q8 0 26 12 q31 0 31 -26q0 -9 -8 -17l-195 -164l-61 -38l4 4l-332 -310l-12 -18l-6 -6h2q-3 -4 -11.5 -14.5t-13.5 -16t-15 -14t-16.5 -7.5t-17.5 3q-7 3 -10 11t0 15q7 17 39 60z" />
<glyph unicode="Y" horiz-adv-x="1024" d="M813 -131l-10.5 3.5t-14 5t-10.5 5.5l2 -2q-16 0 -26 10l-121 105l-64 108l-77 426v123q0 28 -2 67l-1 40v16l25 139v25l10 33l-22 -21l-15 -6q1 -1 -2 -4h-2l-4 -8l2 6l-18 -31l-10 -10l-23 -39q-3 -4 -4 -4l-6 -12l-35 -39l-35 -37l-10 -14l-6 -6q-15 -7 -17 -5 l-32 -61v2q-6 -6 -22 -17t-23 -12h2q-9 -1 -40 -1t-44 1q-12 1 -33.5 12.5t-30.5 18.5l-78 80q-21 24 -30 100q0 3 -1 10t-1 9q0 1 -1 16t-1 27q-2 18 -2 51l69 326l141 362v14l129 304l29 28q6 6 14 6h25l72 -65l6 -12l10 -13q10 -13 17.5 -48.5t1.5 -51.5v2l-107 -303v-12 l-123 -306h2q3 -2 8 -7.5t5 -8.5q5 -36 -13 -59q-12 -81 -18 -105v-18q-10 -20 -10 -29q-3 -6 -3.5 -23.5t1.5 -23.5q4 -9 0 -18q-12 -25 -27 -25v-2q0 -19 2 -35q10 10 22 4q11 -4 27 8l158 168l-2 -4q71 110 278 426t318 488q5 10 16 10h16l29 -4q48 -16 57 -82l5 -21 q0 -4 2 -6q0 -2 1 -9t1 -9q-2 -12 -29 -94q0 -7 -6 -20t-12 -19l-131 -226v2l-13 -34l-104 -207l2 2l-41 -150v4q-4 -8 -4 -14l-35 -182q6 -12 6 -19q-2 -2 -8 -41q-4 -16 -4 -18v-33q-5 -18 -8 -86q-7 -54 -7 -65v-62q8 -103 19 -162q8 -13 8 -41l29 -127v-20l41 -176l-6 4 q16 -16 16 -21l6 -12v0l4 -12l-2 10q3 -4 8 -11l7.5 -10.5t2.5 -8.5t-4 -9q4 -4 7 -4q6 -6 6 -14v-49q0 -7 -6 -13l-13 -12q-6 -6 -55 -6zM543 1055l-3 3l3 -5v2zM805 14q-5 0 -5 15.5t5 15.5t5 -15.5t-5 -15.5zM809 68q0 -13 2 -19q8 -12 8 -14l-39 4v10l15 8v2h2zM795 102 q-5 0 -7 2q-10 3 -18 -12l-2 -14l-18 61l32 15v-11q0 -6 5 -22t8 -19zM780 104l21 -20q0 11 -13 20h-8zM762 152q-4 0 -4 13t4 13t4 -13t-4 -13zM756 178q-3 0 -3 14.5t3 14.5q4 0 4 -14.5t-4 -14.5zM766 223l-2 6q-2 9 -12 9l-19 -19q3 61 -10 103l37 4v-35q0 -1 4 -21 q2 -6 2 -20v-27zM735 328q-5 0 -5 15t5 15t5 -15t-5 -15zM735 340q-5 0 -5 14.5t5 14.5t5 -14.5t-5 -14.5zM727 358l8 -2q-10 0 -15.5 6.5t-2.5 12.5q4 7 12 10q-6 -3 -7.5 -13.5t5.5 -13.5zM729 393l-18 10q0 5 4 9q6 6 14 6q3 0 3 -12.5t-3 -12.5zM719 449v34q1 0 1 -17 t-1 -17zM713 471q-5 0 -5 14.5t5 14.5t5 -14.5t-5 -14.5zM700 602q-6 -3 -6.5 -9.5t4.5 -10.5l-6 2l-4 8q8 8 12 10zM707 578l-9 4q4 -4 9 -4zM694 614l-2 2q-3 3 2.5 11t10.5 10h-5q-10 -3 -12 -11t6 -12zM707 639l-2 -2q0 2 2 2zM727 731q-8 -8 -8 -63l8 -17l-39 4l4 13 v77zM719 778l-14 29q-7 -7 -2 -18t16 -11zM199 940v35q3 0 3 -17.5t-3 -17.5zM199 956l-15 27q-12 -12 -8.5 -19.5t23.5 -7.5zM205 989l10 2l-20 17q-4 -2 -9 -2zM219 1004v-17l-4 4zM186 1006q-2 0 -2 4zM231 1079v-37l-36 13q8 10 8 53l24 -21q2 0 3 -2t1 -4v-2zM223 1104 v35q1 0 1 -17.5t-1 -17.5z" />
<glyph unicode="Z" horiz-adv-x="1513" d="M133 -72q-7 2 -17.5 17t-11.5 16q-3 3 -32.5 31t-32.5 31q-24 28 -35 81q-2 32 16 78q2 6 16.5 35t16.5 35v2q0 3 28.5 55.5t45.5 79.5q0 2 7.5 12t10.5 11q1 2 1.5 7t2 9t5.5 6l100 172q12 7 22 36t23 36l233 344q4 5 26 26.5t26 26.5q6 8 6 10q1 1 23.5 29.5t23.5 32.5 q6 3 6 10l506 578l-227 -39h-7l-243 -25q-8 -1 -37 4t-35 -4q-84 6 -194 21l-44 4t-49 5.5t-42 7.5t-46 13.5t-37 20.5q-19 13 -34 43q-15 38 -15 51q-3 4 -3 34.5t3 43.5q0 19 15 22h10q1 0 12.5 -4.5t21.5 -8t13 -3.5q5 -2 129 -25q12 -1 38.5 -2t39.5 -2q8 0 60 -7.5 t59 -10.5h163l316 47h76q1 0 21 5t22 5h4l278 66l41 24q2 -12 23 -12l94 -94q8 -33 8 -43q4 -9 0.5 -32t-2.5 -32l-948 -1095l-285 -473q13 -23 86 14l488 113h16q10 1 70 5.5t71 4.5h201q3 0 35.5 -2t36.5 -2q14 0 22 -6q-1 0 -3.5 -2.5t-2.5 -4.5v-20l-4 -4q-4 -5 -7.5 -9 t-9 -9t-8.5 -7q-3 -4 -11 -10t-11 -6q-1 -2 -21 -6t-22 -6q-10 0 -10 -7v-10q-11 -4 -13 -6q-13 -5 -29.5 -8t-27.5 -3.5t-31.5 -1.5t-27.5 -1l-13 -6l-633 -168q-4 0 -53 -21l-2 -6l-213 -113l-4 -4q-21 -8 -31 -10.5t-24.5 -0.5t-28.5 11z" />
<glyph unicode="\" horiz-adv-x="999" d="M965 -207q-6 -6 -23 -6h-51q-10 7 -25 36t-20 32l-45 125v10l16 -23q12 15 6 41l-307 627v-4l102 -256v-10l-129 253q-9 15 -6 35l52 -96v4l-46 107l17 -15v4q-1 4 -23 48l-6 -7q-9 6 -14 20t-2 25l-318 582v-10l35 -64v-4l-6 4q-2 4 -19.5 35t-19.5 35l-6 4 q-45 64 -45 70v4h4l25 -29q5 14 -49 73q-42 46 -35 51q1 1 4 1q-24 33 -29 51q-3 9 -1 28t7 30q1 2 6 15t7 17t7 15t9.5 15.5l11.5 11.5t15 10.5t18 5.5h16l35 -35l119 -170l752 -1577q2 -3 2 -23t-2 -28q0 -5 -17 -39l-6 -6q-1 -1 -8 -11.5t-8 -11.5zM856 -111q-2 -1 -2 -6 t2 -6t3 3q1 9 -3 9zM850 -94q0 19 -10 39q-3 -7 -0.5 -24t10.5 -21v6zM670 274l35 -73v-6q-9 -3 -13 6q-16 33 -22 61v12zM545 539q-5 0 -5 -5.5t5 -5.5t5 5.5t-5 5.5zM477 715l-6 6v-6h6z" />
<glyph unicode="^" horiz-adv-x="536" d="M23 1126q-1 0 -4 3t-3 4q-2 5 -2 16t2 12l203 367q12 21 33 21t39 -11.5t31 -26.5q6 -6 6 -12q0 -3 5 -30.5t5 -30.5q0 -1 3 -6.5t3 -6.5q6 -6 6 -16l103 -199v-4q0 -2 5 -17.5t5 -17.5v-34q-4 -9 -6 -11l-4 -6h-35l-45 45l-113 191l-86 -133l-119 -103l-28 -6q0 1 -2 6 t-2 6z" />
<glyph unicode="_" horiz-adv-x="1040" d="M160 -23q-71 27 -100.5 58.5t-20.5 73.5q0 3 5 7.5t9 4.5l746 57h155q9 -10 9 -16v-10q3 -1 7.5 -11t4.5 -12q0 -3 -4.5 -5.5t-7.5 -2.5q-6 -4 -15 -20.5t-20 -20.5q-3 0 -23.5 -4.5t-23.5 -5.5q-7 -3 -29.5 -15t-40.5 -14l-557 -70q-11 -2 -47 -0.5t-47 6.5z" />
<glyph unicode="`" horiz-adv-x="401" d="M170 1608q-18 12 -51 45q-6 7 -42 50t-42 50v6q5 16 22 41q8 1 23 -3.5t22 -2.5l52 -29q8 -8 53 -54t53 -54q2 0 13 -8t12 -9q43 -43 49 -51q3 -3 3 -13t-3 -13q0 -5 -23 -13q-4 -2 -21.5 -2t-23.5 2q-74 42 -96 58z" />
<glyph unicode="a" horiz-adv-x="940" d="M-33 391q-2 1 -6.5 5.5t-9.5 10.5t-6 7q-91 110 -80 311q0 8 4.5 31.5t7.5 29.5q7 23 39.5 106t44.5 109q10 24 41 77t39 61l170 174q2 2 33 20t45 25l16 6q2 1 17.5 9t17.5 9q1 0 14 -3t15 -3h45q2 -1 17.5 -9t17.5 -9q28 0 32 -4q1 -1 6.5 -9.5t6.5 -9.5q2 -2 22.5 -16 t22.5 -16q4 -9 4 -13q3 -7 10.5 -21.5t11.5 -27t2 -24.5h4q1 0 6 11t7 17q0 23 6 29q11 23 39 67q6 9 10 7q40 -6 47 -13l78 -100q6 0 12 -6v-12q0 -21 6 -39q0 16 11 22l12 -10l-64 -311q-16 -4 -16 -19q-1 -4 -8 -50.5t-8 -55.5q-1 -2 -1 -9t1 -8q-24 -80 -29 -125 q-2 -4 -2 -17t2 -17l10 6l295 311q3 3 12 0t11 -6q3 -12 1.5 -18t-7.5 -17t-7 -16q-1 -4 -5 -28t-5 -28l-108 -137l-56 -39q0 -2 -2.5 -6t-3.5 -4q-2 -3 -22.5 -23.5t-22.5 -23.5q-1 0 -3.5 -4l-5 -8t-3.5 -5q-13 -14 -27.5 -27t-33.5 -28t-29 -24q-6 0 -23 -17 q-3 -5 -9.5 -20t-6.5 -19q-35 -19 -86 17q-51 51 -56 57q-4 8 -6 10q-27 76 -22 142l-6 6l-203 -199q-56 -45 -80 -55q-20 -12 -80 -29q-4 -2 -21.5 -2t-23.5 2q-18 9 -78 45zM74 442q27 -10 41 -11t39 11q49 35 57 39l254 273q-2 14 2.5 38t3.5 35l49 222q1 0 3.5 4t2.5 6 q5 9 13 51q1 6 -2.5 11t-11 10.5t-9.5 7.5q-16 48 -22 90q-1 3 -2.5 15t-5 18.5t-11.5 11.5q-4 1 -27.5 6t-27.5 6q-25 0 -35 -12q-1 -2 -11.5 -17.5t-11.5 -17.5q-8 -4 -10 -4l-137 -186l-4 -7l-57 -102q-2 0 -4.5 -2.5t-2.5 -3.5q-2 -4 -9 -14.5t-12.5 -19.5t-6.5 -11 q0 -1 -2 -11.5t-2 -11.5q-9 -17 -25 -39l-4 -6q-2 -1 -2 -5.5t2 -4.5l-41 -92q2 -5 0 -13t-5.5 -16t-4.5 -10q-21 -70 0 -193q21 -38 39 -45zM635 567v-22q5 -2 13 2t9 8l39 199v6l39 215h6v-51l29 157q2 5 2 15.5t-2 13.5q-8 8 -12 10q0 2 -2 2t-2 -2l-86 -379 q5 -22 -11 -58t-18 -48v-23q0 -2 -2 -22.5t-2 -22.5zM776 1145q-4 0 -4 -6t4 -6t4 6t-4 6zM543 1161l-1 -9l1 -3q3 1 3 6t-3 6zM526 1257q-2 0 -2 -3t2 -3q6 3 0 6zM516 1290q-4 0 -4 -5t4 -5q3 0 3 5t-3 5z" />
<glyph unicode="b" horiz-adv-x="921" d="M-29 295q-37 26 -50 92t-7 123q1 5 8 53t8 53v7l58 243v6q1 5 11 50.5t11 50.5v6q0 6 6 12l10.5 35t13 42.5t5.5 18.5v5l361 725q6 11 23.5 28.5t21.5 22.5q7 8 22 29.5t25 31.5l45 45q1 2 6 10.5t10 13.5t10 5q40 0 80 -35q8 -5 25.5 -23t19.5 -22q8 -12 11 -32.5 t-5 -35.5l-51 -73v-10h6l62 77q3 3 6 0q2 0 12 -10q-15 -15 -22 -29q-2 -2 -10 -16.5t-9 -15.5q-4 -7 -11.5 -20t-12.5 -23t-8 -21l-105 -158v-22l-84 -137q-2 -4 -8.5 -26t-18.5 -30l-6 11l-6 -4q-1 -3 -8 -17.5t-8 -17.5v-6l-51 -84q-2 0 -4.5 2.5t-2.5 3.5q0 8 7 22 l73 152l23 29l90 157q-3 15 6 29l84 137v4q-4 2 -8.5 -3t-8.5 -12l-5 -7q-5 -4 -5 -6q-4 -4 -26 -37.5t-25 -40.5q-25 -37 -45 -86q-2 -4 -3.5 -8.5t-2.5 -7t-3.5 -5.5t-8.5 -6l-152 -289l-6 -6l-29 -74q5 -13 -16 -57.5t-16 -66.5l16 18l107 145l102 86q29 23 90 7 q34 -13 51 -25q8 -4 36.5 -28t37.5 -33q4 -11 19.5 -27.5t19.5 -24.5q4 -6 15.5 -32.5t13.5 -34.5q0 -11 6 -29q0 -1 3 -14t3 -15v-122l-64 -250l-26 -62v-6l-131 -203q-11 -11 -13 -12q-10 -4 -10 -6l-39 -39q-3 -2 -28.5 -19.5t-28.5 -19.5q-17 -17 -17 -18 q-22 -13 -67 -17h-96q-11 0 -23 6q-3 0 -7.5 2.5t-4.5 4.5l-84 94q-8 21 -32 49q-13 16 -15 8l-27 -129q-6 -6 -6 -12l-23 -23q-3 -2 -16 -2t-18 2q-6 2 -29 13.5t-27 15.5zM158 539l96 -183h16q22 4 39 19t34.5 38t29.5 33l141 222l61 209v6q5 11 16.5 48.5t12.5 47.5 q3 13 7.5 64t4.5 67q-5 16 -7 36t-4 30.5t-13 24.5t-33 28h-6l-74 -35l-141 -203q2 -1 2 -6t-2 -6q-1 -2 -11.5 -14.5t-11.5 -14.5q0 -1 -5 -11t-5 -11q-22 -22 -22 -23q-10 -12 -19 -45.5t-10 -34.5t-11.5 -13t-11.5 -13q-1 -2 -6 -18t-6 -17q-4 -5 -16.5 -18.5 t-16.5 -14.5l-41 -160q-5 -27 13 -32zM260 1008v-7q4 1 5 7.5t-1 9.5q-4 -8 -4 -10zM592 1659q0 -2 -2 -9.5t-2 -9.5q2 0 6 3t4 4q7 7 23 39q1 2 1 4t-1 2h-5q-4 0 -24 -33zM633 1708q-2 3 -6 -4q4 -2 6 2q1 1 0 2z" />
<glyph unicode="c" horiz-adv-x="784" d="M96 328q-27 6 -61 33.5t-43 44.5q-45 79 -51 100q-4 6 -6 18.5t-7 18.5q-2 11 -2 52t2 52q6 36 21 111l-1 4v8t2 6t5 4l20 62q6 2 5.5 11.5t5.5 10.5l26 74q19 37 21 37l90 147l84 90q4 15 16 15q8 9 42.5 38t47.5 38q67 38 101 51q19 5 56 9.5t48 6.5q9 1 25 -2.5 t22 -3.5l80 -31q2 0 10 -16q27 -75 13 -141q-13 -26 -13 -27q-1 -4 -5 -45t-5 -45q-6 -6 -6 -17q-8 -15 -41 -57l-20 -20q-8 -3 -28 -5.5t-26 -1.5q-3 1 -18.5 8.5t-18.5 8.5q-4 1 -10 7.5t-6 8.5l113 201q0 1 1.5 11.5l3.5 24.5l3 21v15h-6q-1 -3 -17 -19l-18 -18 q-1 -1 -10.5 -4.5t-17.5 -6.5t-9 -4q-3 -2 -30 -24.5t-35 -28.5q-8 -7 -30.5 -40.5t-47.5 -43.5l-111 -123q0 -20 -27 -34l-71 -138l-80 -301l10 -61q0 -2 10 -12q1 -1 3.5 -5t4.5 -8t3 -4q10 -6 22.5 -6.5t30 3t20.5 3.5q42 0 60 6q2 1 15 4.5t25.5 7t16.5 5.5q6 4 42 19.5 t44 21.5l172 116l182 164l39 37q7 -4 12 -16.5t3 -20.5q0 -2 -7 -22t-8 -25q-1 -2 -12 -18.5t-12 -18.5q0 -1 -10.5 -10t-10.5 -10q-109 -121 -211 -183q-69 -45 -180 -83t-190 -41q-34 -4 -60 6zM123 485q-2 23 5.5 71.5t6.5 70.5q1 11 13.5 51.5t17.5 52.5q0 9 20 39 q3 -2 7.5 4t9 16.5t8.5 21.5t8.5 19.5t7.5 10.5v-4l-51 -170q-4 -9 -6 -9h-4q0 12 10 52v16l-6 -4l-27 -84q2 -21 -3 -61t-5 -48q-1 -6 -1 -34t1 -37h-6q-2 0 -4 9.5t-2 16.5zM182 750v-7q6 11 4 15q0 -1 -2 -4t-2 -4z" />
<glyph unicode="d" horiz-adv-x="980" d="M592 340q-1 0 -8.5 5t-8.5 5q-6 6 -18 6q-7 6 -31 30t-30 32q-1 2 -8.5 14t-8.5 14q-28 62 -41 109q0 3 -5 30.5t-5 30.5q-5 21 -14.5 19.5t-20.5 -19.5q-4 -6 -10 -20t-13.5 -21.5t-21.5 -9.5l-125 -100q-12 -10 -86.5 -38.5t-87.5 -25.5q-8 2 -34.5 13.5t-32.5 15.5 q-4 2 -41 39q-17 21 -27 68q-12 36 -12 63q-2 14 -2 44.5t2 35.5l90 260l119 197q10 8 22 28q26 26 96 86q40 20 80 45q17 4 23 4h6q1 0 18 6.5t32 11.5t18 5q16 5 52 -4t44 -23l10 -22q12 -12 23 -12q4 3 7.5 11.5t6.5 19.5t4 14q0 3 4.5 20.5t5.5 18.5q0 2 2.5 4t3.5 2 q24 56 39 86q5 10 17 30.5t19 36.5t9 33l131 272l103 125q5 7 33 7q20 -5 34 -25q7 -9 45 -72q0 -8 7 -22v-13l-33 -71l14 14q19 -38 0 -49l-10 -6q-1 -1 -2.5 -2t-2.5 -2t-1 -2q-3 -6 -22.5 -40t-22.5 -40q2 -7 1 -9t-6.5 -6t-7.5 -8q2 -10 0 -10q0 -1 -22 -45 q-2 -6 -11.5 -40t-11.5 -40q-2 0 -6 -2.5t-4 -3.5q-2 -2 -2 -11t2 -12l-108 -321v-19l6 -4v-12l-51 -238v29q2 13 11 88t11 88q6 6 6 17v6l135 463v6q-6 3 -10 -6l-119 -299q-7 -35 -12 -41q-17 -85 -22 -142v-77q0 -18 -17 -103v-35q-1 -3 -8 -22.5t-8 -22.5v74 q-7 -20 -41 -164l-1 -12q-1 -13 -2 -28t-1 -21v-19l-6 -39h-13v-118q0 -23 23 -39q1 -2 3.5 -2t2.5 2v32q4 4 7.5 -2t8.5 -12t13 -2l57 35l145 158l119 198q6 6 6 17q3 4 28 43.5t30 46.5q3 8 16 12q9 0 12 -6q0 -3 2 -20.5t2 -20.5q0 -6 -7.5 -21.5t-8.5 -17.5q-1 -3 1 -11 t4 -14.5t1 -7.5l-22 -22q-1 -1 -4 -8.5t-5.5 -13.5t-3.5 -7q-1 -2 -28 -29q-15 -25 -39 -73q10 0 16 -6q3 -2 -2.5 -10.5t-13.5 -19.5t-10 -16q-7 -7 -7 -16l-135 -160q-4 1 -7 2t-7 -2.5t-6 -5.5t-5 -7l-4.5 -7.5t-3.5 -6.5t-2 -5q-5 -6 -32.5 -31.5t-28.5 -26.5 q-20 -15 -65.5 -18t-65.5 8zM72 487q5 -26 32 -18q10 4 48 23l264 243l6 17q2 5 10.5 65t11.5 88v23q7 14 29 80q0 8 6 32v13q-1 1 -3.5 15t-2.5 17v125q-30 -15 -84 -51q-16 -9 -24.5 -40.5t-26.5 -37.5q-4 -6 -24 -31t-21 -26t-9.5 -6t-9.5 -6q-11 -13 -19 -33.5 t-13 -28.5q-1 -1 -9.5 -11t-9.5 -11q0 -9 -10 -29q-1 -2 -11 -15t-18.5 -25t-9.5 -15q-3 -6 -18 -51v-13l-33 -100q-19 -22 -29 -57q-8 -22 -22 -91q-2 -6 -2 -23.5t2 -21.5zM874 571v-16q21 16 23 29q-6 3 -13 -1.5t-10 -11.5zM961 696q-5 0 -5 -6t5 -6q3 0 3 6t-3 6z M676 893l-4 -23h4v23zM694 967q-4 0 -4 -5.5t4 -5.5t4 5.5t-4 5.5zM745 1081q-5 0 -5 -6t5 -6q3 0 3 6t-3 6zM874 1550q-4 0 -4 -6t4 -6t4 6t-4 6zM887 1579q-5 0 -5 -6t5 -6q3 0 3 6t-3 6zM897 1612v-17l41 80v4l-6 -4zM942 1698q-3 0 -3 -6t3 -6q4 0 4 6t-4 6zM965 1731 v-11q9 5 6 11h-6z" />
<glyph unicode="e" horiz-adv-x="735" d="M20 352q-39 30 -51 45q-3 3 -22 36t-27 48q-25 47 -29 125q-6 24 -6 80q-2 23 1 46t11.5 60t10.5 46v16q0 2 16 41q6 6 6 16v13q4 4 13 22q9 17 24.5 51t20.5 45l4 5q18 31 51 92l6 4q17 17 17 22l6 6q2 1 14 19.5t14 19.5q13 15 55 55t52 48q3 2 21.5 13t41.5 24.5 t33 19.5q13 0 19 6q1 0 5 2t5 2q8 2 56 9.5t56 9.5h13q36 -6 57 -6q11 -2 28.5 -11.5t20.5 -17.5l35 -90v-6l-16 -68l-86 -131l-27 -27q-6 -6 -6 -12q-8 -11 -41.5 -46t-44.5 -44q-14 -14 -96 -57q-1 -1 -16.5 -5.5t-16.5 -5.5l-10 -10q-10 -11 -19 -20t-12 -11 q-18 -14 -55 -32q-7 -3 -33.5 -4.5t-34.5 -14.5q-12 -12 -12 -22l-33 -168q-1 -4 -1 -17t1 -18q0 -7 6.5 -33.5t9.5 -34.5q0 -1 2.5 -3.5t3.5 -2.5q11 -4 11 -6q2 -3 2 -5.5t-1 -4t0 -3.5t5 -3l6 12q29 -25 78 -18q27 3 80.5 11.5t56.5 10.5l238 154q5 7 32 28l256 289h33 q5 0 12 -35q2 -11 -8.5 -29.5t-25 -38.5t-17.5 -28v-10l-176 -189l-6 -10l-254 -182q-50 -25 -125 -55q-7 -7 -22 -7h-33q-4 0 -37.5 -5t-36.5 -5q-8 -1 -27 -5.5t-29.5 -6.5t-25.5 0.5t-27 11.5zM418 481q-2 0 -2 -2.5t2 -3.5l45 23q-8 3 -25 -3.5t-20 -13.5zM117 883v-29 l18 6l203 125l135 154q6 -2 9.5 2t3.5 10t-1 10q55 73 45 142q-2 12 -12 24.5t-22 7.5q-25 -9 -39 -22q-13 -10 -37.5 -32t-24.5 -24q-21 -28 -55 -72t-59 -76t-27 -34l-125 -170q-2 -2 -12 -22zM457 1087q-5 0 -5 -6t5 -6t5 6t-5 6zM276 1139q-1 -2 -6 -12.5t-6 -12.5 q12 3 41 31.5t33 42.5q-12 5 -33 -15t-29 -34zM350 1210v-4l4 4h-4z" />
<glyph unicode="f" horiz-adv-x="671" d="M-16 -184q-2 1 -10.5 6t-15.5 9.5t-9 6.5l-29 29l-49 96l-35 187v86q31 321 74.5 586.5t88 433t93.5 295t88.5 191.5t75.5 103t52 47.5t20 8.5q9 6 28 6q3 0 12 -4.5t11 -6.5q10 -10 16 -28q6 -6 6 -23q1 -1 9.5 -11t9.5 -11q0 -1 2 -18t2 -23q2 -9 2 -31t-2 -25 q0 -4 -5 -24.5t-11.5 -42.5t-6.5 -23v-6q2 0 4.5 2.5t2.5 3.5q2 3 9 17.5t15.5 32t9.5 18.5q0 2 4 4t7 0v-16l-84 -222q-13 -6 -19 -22q0 -2 -5 -22t-5 -23l-6 -10q-1 -2 -5 -16.5t-7.5 -28.5t-4.5 -19v-4l-45 -98v18l56 180v23l-33 -72q3 -23 -23 -69l-57 -203 q0 -27 -6 -45q0 -1 -2 -6t-2 -6q-15 -15 -19 -23q-8 -25 -4 -29l4 -4q1 0 3.5 5t7 9.5t8.5 2.5q9 -4 4 -23q0 -5 -10 -35q-1 -1 -6.5 -11t-6.5 -11q-13 -51 -16 -74v-16q-2 -4 -9 -23t-7 -22q-5 -12 -23 -103q-1 -3 -6 -118t-6 -117q-8 -4 -10 -4q-12 -24 -19 -45 q-2 -4 -0.5 -5.5t3.5 -1.5t5 -1.5t4 -4.5v-16q-1 -3 -6 -17.5t-6 -17.5q-31 -160 -22 -317l-11 -5q-1 -2 -1 -21.5t1 -29.5q0 -3 5.5 -26t5.5 -25q2 -11 -8 -11q-7 -1 -9 9v2q-2 72 5.5 220.5t4.5 226.5l-32 -271v-96q0 -39 6 -51v-13q0 -5 2 -22l2 -16q3 -7 22 -7 q97 -20 176 64t103 252v86q-20 194 -29.5 282.5t-21.5 151.5t-19 80t-28 55q4 10 10 17q9 4 25.5 18.5t29.5 25t29.5 10t30.5 -19.5l15 -16q14 -16 33.5 -36t45.5 -42t51 -35.5t51 -17t43 15.5l74 148q2 3 10.5 9.5t11.5 6.5q3 2 14.5 2t12.5 -2q7 0 29 -29q1 0 3.5 -4 t2.5 -6v-45q-6 -2 -13 -27t-10 -30q-85 -129 -163 -129q-70 0 -146.5 74.5t-93.5 128.5q29 -48 48.5 -157t24.5 -210.5t7.5 -187t-2.5 -86.5q-3 -54 -12.5 -105.5t-31 -113.5t-64.5 -112.5t-103 -78.5q-59 -23 -80 -27q-64 -5 -141 17zM80 422q-4 0 -4 -6t4 -6t4 6t-4 6z M102 713v-4q7 -3 14 2.5t9 13.5l33 129v35h-4q-3 -1 -8 -8t-5 -9zM158 924q0 -2 2 -4t4 -2q13 10 6 38q-12 -16 -12 -32zM340 1483v-6l6 6q2 4 9 17t12.5 22.5t5.5 11.5q1 2 6 19.5t6 19.5q16 32 16 35q1 2 1 5t-1 5q0 2 -2.5 2t-3.5 -2q-1 -1 -5 -8t-5 -8z" />
<glyph unicode="g" horiz-adv-x="872" d="M20 -287q-2 1 -19 12.5t-19 12.5q-1 1 -19 3t-20 3q-10 3 -24.5 18t-20.5 19q-1 3 -8 7.5t-14.5 8t-8.5 4.5l-4 4q-2 2 -17.5 13.5t-17.5 13.5q-3 4 -23 27t-22 26q-30 70 -33 88q4 7 0 14t-12 5q-21 57 -14 100q31 4 51.5 -22t15.5 -58l55 -127q2 -2 14.5 -14t14.5 -14 q0 -2 8 -13t8 -12q5 -8 26.5 -16.5t23.5 -10.5h88q12 9 16 13q2 3 9 11t12.5 14t5.5 7l254 662q17 50 12 78h-6q-2 -2 -12 -8t-11 -7q-4 -6 -47 -49q-13 -14 -40.5 -37t-35.5 -30q-6 -6 -6 -15l-22 -22q-35 -25 -97.5 -13t-85.5 50q-42 85 -49 108q-6 12 -6 27l2 154 q1 4 3 12.5t3 15t0 10.5l52 193q6 10 22 59l119 213l80 95q3 0 11.5 4t10.5 6l6 8q4 3 14.5 8t19 9t9.5 5q9 4 44 14.5t46 12.5h29l17 6q6 0 18 -6q31 -11 39 -18q1 -1 6 -7.5t10 -12t6 -5.5q3 -3 21.5 -16t21.5 -15q2 0 4.5 -2.5t2.5 -5.5q0 -1 2 -4.5t3 -6t3 -6t4 -5 t4.5 -2.5t5.5 0.5t6 5.5q6 12 16 33t18 35t19 26q14 10 41 0q20 -7 46 -37q1 -2 32 -63q6 -15 4.5 -50.5t-10.5 -48.5l-37 -143q9 -4 20 14t9 31l31 123q2 6 11 0q6 -5 5 -12l-47 -193q-13 -10 -16 -24q-3 -11 -9.5 -33.5t-9 -31.5t-6.5 -31t-2.5 -31.5t2.5 -34.5l-72 -236 q-11 -2 -14 -16q-13 -57 -25 -88v-15h13l-121 -417q-5 -15 -23 -45q-1 0 -3.5 -3.5t-2.5 -5.5q-7 11 -6 15l127 407q11 46 16 107q0 3 1 18.5t1 18.5l-108 -367q-17 -26 -25 -49q-1 -2 -6 -21.5t-6 -21.5q-12 -34 -70 -166q0 -21 -6 -27q-4 -10 -27 -60t-24 -52q6 3 23 20 q3 2 7.5 6t4.5 6l67 138h7v-21q0 -6 -15.5 -42.5t-25.5 -55.5q-2 -4 -16.5 -22t-30 -37t-17.5 -21q-1 -1 -4.5 -8t-7 -15.5t-4.5 -9.5q-18 -25 -49 -43h-29q-1 0 -8 -4t-8 -4l-6 1q-6 1 -11 1t-6 -2q-5 0 -36.5 -7t-37.5 -9h-12q-5 1 -33.5 12t-32.5 12zM276 -223l-28 -33 q8 -7 19.5 9t8.5 24zM45 526l6 -18h27l92 55l258 295l100 363q2 3 2 11t-2 13l-4 6q-24 6 -45 6h-16q-5 0 -17 -12q-5 -1 -24 -9t-21 -9q-1 0 -20 -3.5t-25 -9.5q-6 -7 -40.5 -43.5t-39.5 -42.5q-2 -2 -10 -16.5t-8 -15.5q-2 0 -4 -2t-2 -4q-3 -4 -24.5 -40t-24.5 -40 l-10 -13q-37 -56 -41 -71l-64 -172v-11q-12 -24 -31 -100q-1 -2 -5 -41t-7 -51v-25zM596 680v-23q5 -5 11 4.5t9 18.5l62 268l-6 10q-10 -16 -15.5 -36.5t-9 -46.5t-6.5 -39q-2 -13 -20.5 -77t-20.5 -73q-4 0 -4 -6zM475 903q-3 0 -3 -5t3 -5q5 0 5 5t-5 5zM688 1038 q-3 0 -3 -5t3 -5q4 0 4 5t-4 5zM694 1055q-4 0 -4 -8.5t4 -8.5t4 8.5t-4 8.5zM551 1300q-3 0 -3 -5t3 -5q5 0 5 5t-5 5z" />
<glyph unicode="h" horiz-adv-x="1017" d="M397 45q-3 2 -20.5 21.5t-24.5 29.5q-9 9 -24 39q0 2 -2.5 14.5t-5 28t-3.5 21.5v16q3 30 8.5 87.5t10 100t4.5 43.5l90 256q-4 13 6 23l113 338v12q6 4 6 6q29 51 29 52v4q34 76 39 96v12h-7q-1 -1 -8 -6t-8 -6q-33 -33 -45 -51q-72 -104 -72 -107v-16l-188 -307 q-1 -11 -13.5 -24.5t-15.5 -20.5q0 -17 -6 -23l-4 -4q-12 -12 -12 -18l-142 -322q-15 -15 -22 -29v-12q-14 -47 -39 -49q-6 -2 -16.5 -2t-12.5 2l-73 45q-2 0 -9 13.5t-8 19.5q-5 12 -16 54t-12 54q-3 9 -5.5 31t-1.5 25l181 866l227 481l15 23q14 23 18 28q58 58 63 62 q6 2 25.5 2t25.5 -2q7 0 33 -17q6 -3 10.5 -7t8 -6.5t7.5 -7.5t6 -7t6.5 -8.5t6.5 -8.5q19 -23 23 -47t-0.5 -40.5t-17.5 -47.5q-3 -8 -5 -12q0 -1 -2 -11.5t-2 -11.5q-1 -2 -9 -17t-9 -17q0 -1 -2 -11t-2 -12h4l34 68h9l-119 -254v-39l-88 -199l-17 -16l-73 -209l-11 -6 l-57 -250q1 -10 -3 -31t-3 -31l6 6l209 367l29 35l90 170l61 61q6 6 29 6q90 6 160 -41q59 -38 67 -141q1 -11 -6.5 -26.5t-5.5 -28.5q-31 -123 -51 -160q-10 -14 -10 -16q-2 -4 -17.5 -45t-17.5 -45q-1 -2 -11.5 -19.5t-11.5 -19.5q-1 -3 -8 -29t-8 -29q-10 -30 -29 -67 q-1 -2 -11 -20.5t-11 -20.5q-23 -57 -52 -141q-9 -10 -16 -28.5t-12 -27.5q0 -2 -11.5 -18t-11.5 -17q-3 -7 -20 -48t-19 -48q-14 -56 -22 -96q-2 -8 -7.5 -15t-8.5 -15.5t-1 -24.5q4 -28 20.5 -50.5t41.5 -17.5q6 0 30 9.5t27 13.5l180 196l232 430q6 12 6 17q6 14 45 79 q1 2 12 13q20 5 39.5 -3t28.5 -26q8 -24 -12 -67q-34 -59 -50 -97q-6 -12 -6 -22l-90 -176q-8 -32 -18 -52q-21 -49 -39 -73q-1 -3 -16.5 -17t-18.5 -16q0 -1 -2 -6t-2 -6q-5 0 -12 -7q-17 -11 -39 -32q-1 -2 -6.5 -17.5t-6.5 -17.5t-11 -10.5t-21.5 -18t-12.5 -10.5 q0 -6 -6 -12l-10 -11q-10 -11 -19.5 -32t-15.5 -29q0 -1 -5 -6t-5 -6q-6 -6 -6 -17q0 -1 -2 -3.5t-4 -2.5l-33 -22l-123 -33zM96 578v-17h6q1 0 11 17.5t22 40.5t19 38q0 5 6 17q2 11 11 75.5t11 75.5v45l129 369v6l54 129h-11l37 74v22q-1 -1 -6 -8t-6 -8q0 -5 -17 -39 q-1 -2 -11 -14.5t-11 -14.5t-6 -19.5t-6 -18.5q0 -1 -17 -35q-31 -89 -45 -113l-96 -289q-8 -11 -11 -39.5t-12 -40.5l-38 -180q1 -11 -5.5 -38.5t-7.5 -34.5zM397 1493q-1 0 -1 -4.5t1 -5.5q12 12 17 22q6 11 19 37.5t22.5 45.5t9.5 20v16l-12 -12q-6 -8 -19.5 -28 t-13.5 -21q-22 -66 -23 -70zM475 1681q-3 0 -3 -6t3 -6q5 0 5 6t-5 6zM481 1698q-5 0 -5 -6t5 -6t5 6t-5 6zM494 1726v-6l4 6h-4zM504 1749q-4 0 -4 -6t4 -6t4 6t-4 6z" />
<glyph unicode="i" horiz-adv-x="503" d="M-49 733v10l2 41l137 488h57q2 0 4.5 -2.5t2.5 -3.5q2 -1 16.5 -18.5t15.5 -18.5q3 -2 20.5 -16.5t20.5 -16.5q3 -3 12 -15.5t9 -13.5q1 -2 5.5 -24.5t6.5 -28.5q0 -10 -4 -14h20l-10 -90l4 -21l-63 -262q-14 3 -19 0t-2.5 -8t7 -11.5t4.5 -7.5l-29 -186l8 -47h17 q16 8 18 8q3 1 19.5 0.5t21.5 -2.5q6 4 6 19l191 194q0 1 2 5t2 5q8 16 32.5 78t32.5 78q0 1 4 4.5t6 3.5q15 10 37 10q15 -19 13 -32q0 -6 -11 -45q-35 -142 -73 -185q0 -1 -5.5 -5.5t-7.5 -4.5q-1 -1 -3 -6t-3 -6q0 -6 -36 -41.5t-38 -40.5q-1 -5 -24.5 -29.5t-24.5 -25.5 t-3.5 -7l-5 -12t-3.5 -6q0 -6 -2 -6q-2 -2 -10 -6t-9 -4q0 -1 -7 -8.5t-7 -8.5q-3 -4 -16 -8t-17 -6q-2 -1 -18 -17q1 -3 -9 -14.5t-14 -13.5l-30 -6h-15l-16 6q-19 0 -25 -6q-45 -5 -100 55q-34 34 -58.5 92t-29.5 105q0 6 -2 57.5t-2 56.5q-1 6 -0.5 20.5t-1.5 20.5z M131 461q0 -5 8 -21q9 -1 21 11q-3 10 -7 40t-3 37q-1 13 3 59.5t7 61.5l-4 10q-10 -2 -15 -22q-9 -36 -13.5 -57.5t-5 -56t8.5 -62.5zM166 700q-4 0 -4 -5t4 -5q3 0 3 5t-3 5zM193 741v-4q1 1 5 12.5t5 12.5q0 1 -1 6t-1 6h-4q-4 -23 -4 -33zM209 807q0 -2 -5.5 -12.5 t-6.5 -12.5q12 -9 17 10q3 14 -3 21q-2 -4 -2 -6zM184 799q-2 -1 2 -4q3 0 2 2t-4 2zM201 848q-3 3 -3 0.5t3 -4.5q3 0 3 2t-3 2zM201 887q1 -2 2 -7t2 -9.5t2 -4.5q7 14 14 35q-1 1 1.5 5.5t4.5 4.5q10 20 31 115q-1 2 -1.5 11t-1 20t-1.5 16q2 1 2 5t-2 5 q-14 -11 -15.5 -48t-5.5 -46q0 -1 -2.5 -3t-4.5 -4t-1 -3q0 -29 2 -31q-1 -11 -12.5 -31.5t-13.5 -29.5zM254 1393q-29 0 -53 8q-13 0 -13 2l-53 24l-2 5l121 213l84 49l3 3q9 3 11 1q41 0 62 -25q4 -3 8 -10t10 -8l8 -86l-69 -119q-12 -6 -21 -25.5t-24 -23.5q-4 -1 -25 -4 t-25 -4q-3 -1 -11.5 -1t-10.5 1z" />
<glyph unicode="j" horiz-adv-x="509" d="M-449 -373l-6 6l-135 23q-13 2 -39.5 33.5t-40.5 38.5q-1 6 -10 26t-12 25q-5 10 -29 28q-7 7 -10 7v45q0 1 -3 13.5t-3 14.5q-3 73 6 142q0 2 2 11.5t2 10.5l6 6q41 6 50.5 -20t-5.5 -60l-4 -10v-6q1 -7 8 -48t8 -48q7 -7 11 -16.5t6.5 -22t5.5 -19.5q14 -40 58.5 -53.5 t88.5 -1.5q11 6 46.5 30.5t44.5 31.5q7 6 21.5 21t16.5 18l613 1562q3 9 26 18.5t29 4.5l74 -64q5 0 12 -22q3 -8 12.5 -37.5t10.5 -30.5v-55q-13 -26 -13 -29q-1 -4 -5 -34t-5 -33q-1 -6 -7 -22t-9.5 -30t-1.5 -22h6l12 26q1 -8 -1 -15.5t-6 -15.5t-5 -14q-2 -7 -5 -29 t-7 -38t-11 -29q-1 13 3 36t3 34q-7 -4 -13 -21.5t-3 -25.5l-63 -299q5 -19 -14.5 -49.5t-14.5 -47.5l-328 -684q-3 -4 -19.5 -25.5t-19.5 -25.5q-8 -11 -29 -42t-37.5 -51t-35.5 -38q-34 -17 -39 -22q-2 -1 -17.5 -13.5t-17.5 -13.5q-1 -2 -33 -12h-18q-4 -4 -4 -6 q-2 -1 -6.5 -3.5t-8 -5t-4.5 -2.5q-12 -6 -32 -6q-46 0 -52 6zM360 1036q-3 0 -3 -3t3 -3t3 2t-3 4zM477 1651l-10 4q-33 33 -45 51q-24 32 -29 51q-1 3 -1 12t1 11l80 170q5 9 27 39q35 39 57 45q1 2 8 2t8 -2q1 0 6.5 -2t6.5 -2h16q5 -1 9 -3.5t8 -8t6 -7.5q1 0 6 -2t6 -2 q4 -5 21 -22t18 -19q1 -1 3 -14t3 -15l6 -4v-12l-6 -45l-119 -221q-5 -5 -35 -17h-10q-2 1 -11 3.5t-17.5 5t-12.5 4.5z" />
<glyph unicode="k" horiz-adv-x="1032" d="M-20 125q-9 6 -27 21t-19 18l-40 170l348 1358q0 1 2 5t2 5q2 4 14 43t14 43q50 101 58 113q2 3 7.5 9t8.5 7q4 3 20 5.5t19 0.5q3 0 12 -6.5t11 -9.5q20 -30 34 -58q1 -1 3.5 -8t3.5 -8v-102q-9 -35 -13 -39l-51 -170q0 -1 -2 -6.5t-2 -6.5q-1 -2 -6 -25t-6 -26 q-14 -28 -23 -55l-16 -80v-6q5 2 13 8t9 10l78 267q12 31 29 45v-7q-5 -32 -17 -67q0 -1 -3 -6t-3 -6v-7l-61 -180v-12q13 12 29 18q2 1 22.5 5.5t22.5 5.5q8 4 32 28q48 33 148 6q10 -7 38.5 -31t35.5 -32q5 -4 18 -31t16 -37q0 -1 1 -12t2 -24.5t1 -18.5q1 -15 1 -44 t-1 -30l-38 -108q-6 -11 -29 -17q-9 -10 -42 -43t-42 -41t-31 -21t-26 -13h-11l-258 -117l99 -137l6 -13l108 -135l90 -51q18 -9 69.5 -6t72.5 12q42 19 125 74q14 9 42 35t29 32l6 11l109 153q8 25 22.5 35t31 3.5t30.5 -27.5q6 -6 6 -11q0 -22 -6 -28l-152 -209 q-71 -71 -86 -84q-3 -4 -11.5 -11.5t-10.5 -7.5l-96 -32q-26 -26 -52 -29h-32q-4 -1 -16 -9t-13 -8q-48 -6 -109 -6h-26q-27 8 -92 45q-7 5 -31 27.5t-31 30.5q-63 73 -96 119q-1 1 -2 6t-3 9.5t-5 6.5l-58 141h-6q-10 -10 -10 -12q-2 -3 -2 -16.5t2 -16.5l-125 -481 q0 -1 7 -13t13 -29t3 -32q-49 -42 -86 -16zM236 915q-1 -1 -3.5 -5t-3.5 -5h13l106 51l148 119q7 4 33 43.5t34 57.5q3 9 14.5 50.5t14.5 57.5v51q-4 4 -6 4q-9 9 -29 19q-4 2 -7.5 0t-8.5 -6.5t-6 -5.5q-54 -36 -74 -46l-6 -6q-12 -24 -17 -39l-96 -102q-3 0 -23 -10 q-15 -17 -17.5 -47t-10.5 -43q0 -1 -5 -6.5t-5 -6.5q-3 -6 -18 -35t-17 -32q0 -2 -2 -11t-4.5 -19.5t-3.5 -14.5v-13zM393 1464q-5 0 -5 -5t5 -5t5 5t-5 5zM416 1528q-4 0 -4 -6t4 -6t4 6t-4 6z" />
<glyph unicode="l" horiz-adv-x="618" d="M184 35q-99 68 -135 112q-9 15 -33 72.5t-28 75.5q-17 108 -23 151v7q-10 94 -6 129l45 368v6l102 385q10 39 22.5 75t23 64t24 54t23.5 44t23.5 37t21 29t20.5 23l17.5 17.5t16.5 13.5l11 10q70 54 115 46t67.5 -42t16.5 -65q-23 -19 -141 -294l-13 -31v1 q-5 -15 -18 -65.5t-14 -63.5q2 -8 0 -15t-6.5 -16.5t-6.5 -13.5q0 -2 -2 -14.5t-2 -14.5v-22q-1 -1 -5 -11t-8 -18.5t-5 -9.5v-41q0 -11 -6 -17l-11 -16q-10 -27 -6 -63l-33 -232q6 -52 -12 -102v-148q0 -2 -3 -19.5t-3 -19.5v-106q6 -54 6 -80q2 -11 7 -29t10 -31.5 t6 -13.5h6l39 29l153 199l148 293q0 2 2 8.5t2 7.5q3 5 17.5 31.5t17.5 31.5q6 9 16 7q11 -3 20.5 -14t8.5 -21l-6 -62q-16 -65 -29 -86q-5 -11 -29 -46t-33 -44q-3 -14 -10.5 -26t-22 -27t-18.5 -21q-4 -8 -6 -10q-3 -12 -17 -35.5t-16 -38.5l-61 -73v-6q-19 -59 -41 -84 l-29 -29q-19 -38 -22 -41q-15 -10 -17 -10q-2 -2 -17 -17.5t-17 -17.5q-53 -37 -97 -4zM190 158l13 -33h16v29q-1 5 -13.5 8t-15.5 8v-12zM209 176l4 -6q4 13 -4 16q-1 -2 -1 -6t1 -4zM184 180q-3 0 -3 -5t3 -5q4 0 4 5t-4 5zM168 215q7 -22 12 -22h4q2 9 2 39.5t-2 39.5 q0 13 -4 17q-8 -2 -6 -17.5t-6 -17.5v-39zM203 289q-5 0 -5 -6.5t5 -6.5t5 6.5t-5 6.5zM174 299q-4 0 -4 -5t4 -5t4 5t-4 5zM174 379v-68q11 8 16.5 20t6 24.5t0.5 26.5v26q0 5 3 53t3 53v35q1 20 6.5 94t3.5 115l-4 -6q-5 0 -19 -142v-32q-1 -19 -5 -54.5t-5 -54.5v-74 q0 -1 -3 -8t-3 -8zM213 780v-6q16 23 12 70q-1 -5 -6 -32t-6 -32zM231 940q-1 -8 -1 -35t1 -35q12 21 23 97v18h-6q-2 0 -9 -18t-8 -27zM258 1018q-3 0 -3 -5t3 -5q4 0 4 5t-4 5zM258 1053v-23q12 19 22.5 65.5t12.5 53.5q2 5 6.5 12.5t6 13t-0.5 13.5q-7 4 -12 -6z M309 1227q-3 0 -3 -5t3 -5q5 0 5 5t-5 5z" />
<glyph unicode="m" horiz-adv-x="1662" d="M406 170h-23q-36 10 -60 45t-24 74v180l102 446l33 80v6q-4 0 -10 -6q-36 -36 -45 -51l-6 -10q-1 -1 -6.5 -6t-6.5 -6l-90 -136q0 -10 -6 -16q-38 -76 -39 -80q-2 -5 -14 -51t-14 -51q-1 -3 -16.5 -31t-16.5 -31q-34 -70 -29 -137l-51 -141q-3 -1 -29 -27q0 -2 -2.5 -12 t-3.5 -10q0 -1 -5 -2t-10.5 -2t-6.5 -2q-11 -22 -11 -23q-55 -15 -108 45q0 1 -5 8t-5 8l-13 13q-1 5 -8 56.5t-8 61.5q-1 8 -1 30.5t1 25.5l61 346l260 555q13 28 44.5 36.5t58.5 -3.5q5 0 16 -11q4 -3 12.5 -11.5t18 -18.5t10.5 -11q6 -6 7.5 -19t-1.5 -19l-114 -267 l-11 -16l-67 -199q-32 -29 -29 -67q-15 -30 -57 -135q-2 -5 -6.5 -25.5t-10 -43t-6.5 -28.5v-45l6 4q3 3 27.5 69.5t34.5 100.5q3 6 7.5 29t4.5 29l170 327l260 318l56 45h34q25 -5 45 -22t23 -42v-39l6 -10v-6q-2 -8 -6 -26.5t-7 -32.5t-3 -15q-39 -87 -58 -118v-23 q1 2 6.5 11.5t6.5 11.5q0 16 4 16q3 1 9 1t9 -1q6 -28 -12 -33l-90 -256q-2 4 -2 15t2 14q1 10 12 47.5t16 48.5v12q-7 -4 -13.5 -16t-4.5 -18l-51 -164q-2 0 -6 -5t-4 -8l6 -10q-1 -3 -4 -20t-4 -19v33l-60 -260q13 7 17 12l114 203v23l129 227l107 135q5 17 31.5 42.5 t31.5 41.5l213 211q47 24 74 45q2 0 12 10q73 5 96 -22q1 -1 8.5 -16.5t8.5 -16.5q0 -1 2.5 -3.5t3.5 -2.5v-45q0 -14 -35 -109l-45 -90q0 -1 -2 -11t-2 -11q-42 -95 -47 -97l-4 -6q-33 -97 -58 -135q-9 -22 -35 -97t-32 -96q-18 -64 -23 -118q-2 -6 -2 -28t2 -30 q0 -1 2 -7.5t5 -14.5t4 -10q8 -14 28 -7l232 109l119 94l192 256q1 1 12 23q1 2 17 21t22 30q1 1 5 8t8 15t6 10q0 1 2 9t2 9q3 3 6.5 4.5t7.5 1.5h7.5t8 -2t7.5 -3.5t7.5 -4.5t6.5 -4.5t6.5 -5t5.5 -4.5q9 -11 5.5 -32.5t-11.5 -35.5l-86 -147q-6 -3 -8 -6.5t-2 -6t-1.5 -7 t-4.5 -9.5q-4 -8 -21 -33.5t-18 -27.5l-142 -158q-35 -21 -67 -45q-3 -1 -10 -8.5t-9 -10.5q-12 -9 -56 -35t-56 -32q-52 -23 -125 -45q-18 1 -49 -3t-56.5 -3.5t-46.5 12.5q-9 6 -35 29.5t-32 31.5l-41 68q-17 67 -17 69q-2 7 -2 27t2 23l74 278l113 238h-6l-129 -131 q-2 -11 -26 -35.5t-26 -26.5q-12 -24 -16 -28q-3 -3 -28.5 -34t-28.5 -34q-1 -1 -8.5 -14.5t-8.5 -14.5q-2 0 -4 -2t-2 -4q-1 -1 -6 -16.5t-6 -16.5q-1 -3 -8 -15.5t-15 -28t-10 -19.5q-4 -4 -6 -4v22h-6q-1 0 -11.5 -16t-15.5 -25q-5 -7 -6 -16t6 -16q0 -1 2 -1t2 1 q1 -6 -3 -21.5t-10.5 -27.5t-12.5 -9q-14 -15 -19 -28v-17q0 -10 -6 -16q0 3 -3.5 5t-6.5 1q-16 -23 -25.5 -66.5t-13.5 -54.5q-57 -130 -64 -145q0 -2 -2 -4t-4 -2q0 -1 -2 -6.5t-2 -6.5l-6 -5q-6 -6 -11 -10.5t-5 -6.5v-23q-7 -22 -52 -16q-28 0 -40 6zM123 514q1 3 -2 3 t-2 -3q0 -2 2 -2t2 2zM1640 870q-4 0 -4 -5t4 -5q3 0 3 5t-3 5zM621 967v-11q14 0 23 22t5 34q0 2 -2.5 2t-3.5 -2q-11 -10 -22 -45z" />
<glyph unicode="n" horiz-adv-x="1003" d="M434 270q-2 1 -11 6.5t-11 6.5q-42 35 -52 45q-23 46 -26 61q-2 4 -2 23.5t2 27.5q1 23 7.5 72.5t8.5 52.5l299 707v6q-1 2 -5 2t-5 -2q-18 -9 -45.5 -37.5t-46.5 -36.5l-158 -164q-6 -23 -45 -57l-147 -242l-74 -176q-8 -6 -11 -17t-4 -25.5t-2 -18.5 q-6 -28 -32.5 -88.5t-28.5 -100.5q-3 -6 -11 -8t-15.5 -1.5t-14.5 -0.5q-2 -1 -19.5 -6t-19.5 -6h-6q-37 19 -51 22l-4 7q-35 40 -35 63v141l61 328l193 498q1 1 5 7t9.5 14t7.5 11l7 7q3 2 17 9t17 9h4q33 -11 35 -12q3 -1 12 -5.5t15.5 -7.5t7.5 -4q24 -36 27 -45 q6 -9 2 -28.5t-8 -32.5t-11.5 -31.5t-9.5 -25.5q-1 -2 -6 -20.5t-6 -20.5q-13 -26 -33 -56l-6 -6q0 -2 -2.5 -17t-5 -27.5t-4.5 -16.5q0 -1 -5.5 -9.5t-5.5 -9.5q-10 -14 -28 -67q-7 -29 -6 -35l-84 -242q-7 -21 -7 -35q-1 -1 -6 -16t-6 -16v-7l6 7q6 3 64 122q2 5 11 34 t11 34l107 199l12 16l248 289l154 96q3 3 29.5 12.5t37.5 10.5q1 2 13 2t16 -2q95 -7 119 -84q-10 -50 -13 -62q0 -6 -6 -12q-13 -19 -30 -58.5t-25 -54.5l-6 -6q-2 -3 -19.5 -30.5t-19.5 -30.5l-13 -13q-21 -52 -55 -129q-1 -1 -6 -9t-6 -9q-1 -3 -9 -33t-20 -41l-96 -219 v-6l-107 -283q-6 -18 11.5 -27.5t40.5 -8.5t32 8l244 176l273 327h26q1 0 3.5 -4.5t2.5 -7.5q5 -32 -10 -67q-3 -5 -30 -52t-33 -55q-13 -10 -30 -33.5t-22 -29.5q-2 -2 -13 -14.5t-13 -14.5q-1 0 -6.5 -2t-6.5 -2q-1 -1 -8 -9.5t-8 -9.5q-1 0 -9 -2t-9 -2q-9 -5 -15 -23 t-12 -24q-1 0 -6 -2t-6 -2l-6 -6q0 -1 -2.5 -6t-2.5 -6q-1 0 -18 -17q-1 -1 -8 -14t-8 -14q-2 -2 -22.5 -19.5t-22.5 -19.5q-1 -1 -6.5 -8.5t-6.5 -8.5q-6 -8 -25.5 -28t-23.5 -23q-1 -1 -8 -5t-13 -7.5t-7 -3.5q-3 -2 -9.5 -7t-10 -7.5t-9.5 -5t-12 -3.5q-9 -1 -60.5 -6 t-58.5 -6h-4q-7 2 -34 8.5t-30 7.5zM537 1227q-5 0 -5 -5t5 -5t5 5t-5 5zM774 1374q2 3 -2 3t-4 -3q2 -3 4 -3t2 3z" />
<glyph unicode="o" horiz-adv-x="1001" d="M82 279q-8 3 -51 32q-9 7 -28.5 27t-22.5 24q-23 39 -35 74q-1 9 -8.5 62.5t-8.5 62.5v23l45 272l142 283q3 6 29.5 41.5t37.5 48.5l74 74q8 6 57.5 37.5t55.5 35.5q3 1 35 13.5t38 13.5q3 1 21 1t24 -1q11 0 19 -4l10 -6q5 -4 14 -15.5t9 -13.5v-113q0 -11 -4.5 -16 t-14.5 -7.5t-14 -4.5q-49 -28 -57 -39q2 -7 18.5 -6t19.5 -13l-94 -61l-119 -148l-102 -237q-1 -4 -6 -25.5t-6 -25.5q0 -1 -5 -11.5t-5 -11.5q-2 -4 -5.5 -19t-8 -32.5t-5.5 -22.5q-10 -67 -4 -129q0 -2 2 -11.5t2 -10.5q1 -2 12 -12t11 -11q5 -7 -6 -11q-10 -3 -17 5v-12 q20 -26 41 -23q11 2 35.5 6.5t42 8t18.5 4.5q16 5 51 20t39 19l125 108q1 6 18 21.5t21 23.5q1 1 6.5 13.5t6.5 13.5q1 3 16 28.5t16 28.5q6 6 6 17v12q1 2 11.5 19.5t11.5 19.5v12q8 35 29 174v86q-6 10 -6 27t-1 24q-4 5 -6 5q0 12 -6 18q-4 4 -4 6q-24 12 -35 23 q-22 17 -19 40t23.5 29.5t46.5 -8.5q101 -33 174 -41.5t106 -2t71 23.5l215 79h12q20 -7 23 -12q13 -22 16 -31.5t0 -35.5q-107 -94 -322 -125q-92 0 -153 20q-17 7 -68 17q-2 1 -6 1t-6 -1v-23q12 -59 12 -61v-74l-39 -215q-6 -30 -28 -74q-5 -10 -24 -40.5t-40.5 -65.5 t-25.5 -41q-16 -10 -23 -27q-45 -39 -115 -86q-2 -2 -10.5 -6t-11.5 -4q-73 -26 -148 -45q-5 -1 -22 -1t-23 1q-6 0 -10 4.5t-12 -0.5q-4 -4 -6 -4q-13 -12 -34 -13.5t-38 7.5zM98 397q0 -1 2 -3.5t4 -2.5q0 7 2.5 45.5t2.5 44.5v17q18 104 22 143q2 12 10 34.5t9 26.5t8 40 t8 40q3 9 13 30.5t17 41.5t5 35q-1 0 -3.5 -2.5t-2.5 -3.5q-29 -51 -29 -56l-45 -163v-13q-17 -34 -17 -39v-28q-6 -12 -6 -45v-35q-1 -5 -3 -20.5t-2.5 -23t-1 -20t1.5 -23t5 -20.5zM188 809q-4 0 -4 -5t4 -5t4 5t-4 5zM201 838q-1 0 -1 -3t1 -4q8 4 4 13q-4 -4 -4 -6z M223 895q-1 -1 -1 -6t1 -6q9 3 4 18zM233 940q5 -4 7 -6h6q1 3 8 17.5t8 17.5l6 6q4 5 42 56t42 56q44 44 64 56q1 5 7.5 12.5t11.5 13.5t3 9h-6l-16 -17q-6 -6 -19 -6l-16 -16q-2 -1 -17.5 -11.5t-17.5 -11.5q-1 -1 -8 -11t-8 -11q-2 -4 -17 -19z" />
<glyph unicode="p" horiz-adv-x="964" d="M-193 -367q-30 30 -38 33q-10 9 -14.5 22.5t-6 36t-2.5 25.5l-2 12q-12 48 -12 60q-2 12 -2 37t2 28l262 1000l258 495l45 48q19 22 58 -9.5t46 -52.5q3 -9 4.5 -19t1.5 -18t-2.5 -19.5t-4 -18t-6.5 -19.5t-7 -17.5t-8.5 -19t-7.5 -16.5v-9l159 103q8 6 41 6q48 -6 66 -6 q5 -2 22 -8t19 -7q5 -2 65 -38q4 -1 11 -7.5t14 -14.5l8 -9q1 -1 5 -15t5 -16q4 -10 23 -44.5t25 -43.5q-1 -13 2 -37t2 -35q0 -2 -2 -23.5t-2 -23.5v-10l-72 -180l-88 -109q-9 0 -17 -8q-3 -6 -28 -30t-27 -27q-7 -14 -10 -17l-242 -153q-13 -20 -58 -36t-56 -26 q-5 -3 -26 -8.5t-44 -11t-27 -6.5q-22 -5 -42 -2t-37.5 -5.5t-22.5 -33.5l-62 -215l-6 -11q-21 -84 -26 -94q-4 -8 -6 -10q0 -1 -2.5 -14t-2.5 -15q-2 -6 -8.5 -23t-9.5 -31t0 -26l-47 -151q-2 -3 -0.5 -22t4.5 -23q1 -9 11.5 -18t11.5 -13v-24q-1 -3 -10.5 -10t-12.5 -9 q-3 -1 -14.5 -1t-16.5 1q-24 12 -33 12zM74 428v-6q17 -3 58.5 16t51.5 21l105 67l211 248q2 7 11.5 18.5t12.5 16.5q8 15 25.5 45t32 53.5t14.5 24.5l53 172v88q-4 8 -6 8l-27 27h-45l-92 -43q-24 -27 -78 -62q-3 -2 -18 -8.5t-23.5 -13t-13.5 -15.5l-86 -127q-2 0 -5 -2.5 t-3 -3.5q-19 -28 -23 -41q0 -3 -3.5 -18.5t-4.5 -18.5q-1 -2 -7.5 -13.5t-13 -22.5t-10.5 -15l-61 -174v-10zM365 1206h-7q2 -3 4.5 -3t2.5 3z" />
<glyph unicode="q" horiz-adv-x="868" d="M287 -260q-3 0 -25 22l-10 5q-2 2 -5.5 9.5t-4.5 8.5l-31 424q1 2 3.5 21.5t6 47t4.5 37.5q0 11 5 46.5t8 44.5q1 5 9 46t9 46q4 15 9 43t3 30l-4 11q-9 -2 -21.5 -14t-17.5 -15q-2 -1 -14.5 -8t-23.5 -12.5t-15 -6.5q-3 -6 -11.5 -14.5t-10.5 -13.5q-1 -1 -5.5 -11.5 t-5.5 -11.5q-13 -22 -82 -31.5t-82 2.5l-59 52q-2 2 -6 12.5t-4 15.5q-24 76 -21 107q1 4 4 22.5t5 33t2 18.5q38 131 47 157l170 318l131 118q21 18 65 29q75 15 94 -12q17 -17 25 -33q1 -3 7 -28.5t7 -28.5q1 -1 7.5 -11.5t7.5 -11.5q8 -15 16 -57q8 9 35 63l92 129 q7 7 12 7h56q20 -9 45 -46q13 -18 5.5 -57.5t-28.5 -54.5l-162 -357q0 -2 -9.5 -35.5t-23 -80t-18.5 -66.5q0 -1 -1 -11t-1 -11q-18 -54 -18 -56q0 -14 -4 -18q-2 -14 -37 -158q3 -22 -7.5 -67t-7.5 -68q7 7 14 29.5t7 32.5l108 266l295 436l45 45q2 1 9 1t10 -1 q11 -11 6 -18l-49 -84q-6 -6 -7.5 -19.5t5.5 -19.5l-322 -584q-7 -13 -33 -120.5t-34 -155.5l-4 -19l2 -158l-2 -10q4 -4 4 -18q0 -18 -11 -51q0 -4 1 -13t1 -17.5t-2 -14.5q-4 -6 -36 -17q-38 -19 -50 -22q-29 -9 -71 12zM29 559q1 -1 2.5 -3.5t3.5 -4.5t4 -2 q12 -4 24.5 1.5t29.5 20.5t20 17q29 19 37 22l172 164q10 10 19 36.5t11 43.5l70 158q6 11 4.5 26.5t-4 24t-8.5 23t-8 22.5q0 23 -3 29q1 1 -0.5 5.5t-3.5 4.5q-19 46 -37 74q-6 9 -16 6q-1 -2 -10 -14.5t-10 -14.5q-5 -4 -11 -6q-14 -28 -14 -33l-84 -108l-108 -197 l-3 -12l-51 -135q0 -1 -1 -8.5t-1 -8.5t-4 -9t-4 -9q-1 -5 -5 -34t-5 -34q5 -2 6 -4t-1 -3.5t-4 -4t-3 -4.5q-4 -12 -4 -29zM498 633q2 6 12 42t12 42q4 1 7.5 11t7.5 23t6 17q0 1 2 6.5t2.5 7.5t3 7t4.5 5.5t6 3t8 -0.5l-2 -11l-67 -182q0 -7 -2.5 -16.5t-7 -20t-5.5 -14.5 q1 6 6.5 40t6.5 40zM539 752q-5 0 -5 -6.5t5 -6.5t5 6.5t-5 6.5zM633 1034q-1 2 -0.5 6.5t2.5 6.5l6 -7l21 33q-3 -8 -3 -10q0 -4 -7 -19t-7 -16q-6 0 -12 6z" />
<glyph unicode="r" horiz-adv-x="1077" d="M16 430h-6l-6 6q-1 3 -16.5 15t-18.5 14q-14 14 -24 51q-8 64 -8 92q-1 6 1.5 43.5t2.5 42.5q0 10 5.5 39t8.5 35l102 291l105 205q1 -1 3 0.5t3 1.5q33 9 50.5 1t31.5 -34q2 -3 14.5 -21.5t14.5 -21.5q0 -2 5 -16t5 -17q-24 -28 -15 -45q-16 -31 -22 -57q0 -2 -4 -22.5 t-4 -22.5q-2 -6 -12.5 -20.5t-10.5 -31.5q1 -2 6 -2t6 2q1 1 8.5 11.5t8.5 11.5l4 6q9 9 37 38.5t43 43.5q3 4 14 12.5t14 16.5l230 205q11 10 31 28q94 83 127 101q39 23 122 32q19 2 32 -8.5t18 -23t10 -33.5q3 -4 3.5 -15.5t-1.5 -17.5q-5 -9 -26.5 -57.5t-26.5 -57.5 q0 -2 -7 -11.5t-8 -10.5l-110 -217q-61 -121 18 -131q70 -9 195 60q119 65 166 134q11 17 16 31t17 -6q9 -14 6 -17q-55 -79 -141.5 -135.5t-160.5 -79.5t-139 -28q-9 0 -19 -0.5t-15.5 -1t-14.5 0.5t-20 5q-43 12 -43 14q-52 40 -52 76q0 51 6 89t21.5 72t29.5 57t43.5 67 t49.5 77q1 1 12 23l-78 -49l-276 -246q-2 -2 -15.5 -16.5t-15.5 -16.5q0 -1 -5 -6t-5 -6q-11 -12 -32 -35t-37 -40.5t-17 -18.5l2 -4q5 -5 19.5 10t19.5 10l-109 -117q-6 -7 -11 -37t-11 -32q-41 -113 -19 -180l15 6q-2 -12 2 -29q25 8 24 -1q0 -2 -2 -5q-6 -6 -30 -38 l-27 -36q-10 -10 -12 -10q-40 -10 -95 8zM137 512q0 -6 4 -6l2 16h-6v-10zM229 856q0 5 -5 -1q-2 -2 -1 -3q2 -2 6 2q1 1 0 2zM246 874q-6 0 -6 -7q0 -5 4 -5q2 0 3 3t1 6t-2 3z" />
<glyph unicode="s" horiz-adv-x="741" d="M57 172h-28q-11 0 -27 8q-12 4 -42 20.5t-38 22.5l-10 11q-10 12 -22.5 25.5t-18.5 19.5q0 1 -2 5.5t-2 6.5q-2 4 -4.5 15.5t-4.5 24.5t-3 15q5 2 8 13t4 12q48 88 141 129q1 1 16 3t17 3q3 1 34 12t34 12q2 2 18.5 5t17.5 4q3 0 11 4.5t8 7.5q4 6 -7 36t-26 62.5 t-16 36.5q-1 1 -6.5 17.5t-6.5 17.5q-2 6 -32 50t-31 46q-30 61 -35 84q-1 2 -4 25.5t-7 52.5t-7 41q-4 4 -3 13.5t9 10.5q29 87 47 123q9 21 55 82l144 123q7 6 51 24.5t65 24.5q89 18 152 25q42 6 117 -37q3 -2 17.5 -14.5t23.5 -16.5q1 -4 7 -27.5t7 -27.5q4 -12 6 -12 v-13q0 -8 2.5 -33t5.5 -28q1 -18 -18.5 -55t-20.5 -39q-2 -2 -8 -21t-6 -20q-2 -11 -29 -51l13 -7q-3 -2 -19.5 -10t-30.5 -16t-18 -12q-10 -5 -23 -5h-90q-19 -17 -54 11q-1 0 -1.5 0.5l-1.5 1.5q-11 8 -6 23t12 25.5t15 18.5q1 1 17.5 18.5t33 34.5t24.5 23q15 10 17 10 l18 19q1 1 3 9t3 9t13.5 18.5t13.5 18.5q1 2 4.5 12.5t7 20.5t4.5 14q0 1 5 9.5t6 11.5t2 10t-2.5 11.5t-10.5 8.5q-32 27 -49 7q-2 -1 -17.5 -17.5t-17.5 -17.5q-12 -9 -42 -30.5t-46 -34t-41.5 -36t-46.5 -49.5q-47 -62 -74.5 -131.5t-30.5 -144t38 -131.5 q88 -181 94 -181q19 9 32.5 19t29 24.5t79.5 57t166 104.5l137 123q14 13 36.5 4.5t27.5 -26.5q3 -30 -3 -50t-14.5 -28.5t-26.5 -24t-30 -28.5l-207 -117q-60 -42 -100 -64t-53 -24.5t-28 -10t-36 -26.5q9 -25 12.5 -42t4.5 -40t3 -37v-68q-1 -1 -9 -12t-19 -26t-17 -23 l-10 -12h-20q-1 -1 -9.5 -8.5t-9.5 -8.5q-7 -4 -48 -28.5t-48 -28.5q-15 -6 -34.5 -6.5t-49 3t-31.5 3.5zM8 246q13 -3 43.5 -5.5t36.5 -0.5q38 19 84 39q35 18 41 51q2 8 2.5 16.5t-1 18.5t-2.5 16.5t-3.5 20t-3.5 18.5v6q-1 5 -3.5 17t-4.5 21.5t-2 12.5q0 1 -2.5 3.5 t-4.5 2.5q-12 -6 -32 -6h-4q-25 8 -37 6q-36 -9 -58 -20q-10 -10 -28 -19h-6l-89 -57q-3 -2 -9.5 -12.5t-6.5 -16.5q-4 -19 11 -48.5t32 -37.5q6 -5 25 -15.5t22 -10.5z" />
<glyph unicode="t" horiz-adv-x="567" d="M45 176q-64 15 -106 51q-9 7 -22.5 25t-22.5 24q-8 19 -13.5 41.5t-7 35t-4.5 44t-4 39.5v10l39 222v22l6 6l29 125v4l32 160l6 10l199 623q-23 2 -60.5 -9.5t-47.5 -13.5h-27l-70 68q-8 9 -4 28.5t17 22.5l131 35q0 -1 4.5 -1t5.5 1q2 0 22.5 5t22.5 5h6q74 15 74 19 l6 4q0 1 7.5 15.5t17.5 34.5t14 30q1 2 3 11t7 11l70 170q7 17 26 17q38 6 58 -7q4 -2 10 -7.5t6 -8.5v-23q6 -4 6 -6q3 -6 13 -16v-10q0 -2 5 -15t5 -14v-18q-4 -23 -23 -78q0 -1 -5 -11.5t-5 -11.5q-6 -12 -6 -22q11 -4 16 4l39 86l6 6q3 -15 -11 -45t-11 -47h16l905 170 h48q-40 -5 -103 -23q-25 -4 -35 -10h19q5 1 35 8t57.5 13t36.5 8h45l6 -6h45l6 -7q-18 -5 -131 -28h-61l-187 -39h17q49 9 215 29h90q-8 -3 -52.5 -18t-50.5 -17q-3 -1 -12.5 -6.5t-18 -9t-14.5 -1.5v6q-14 3 -23 -10t-16 -8l-837 -180h-6q-30 -8 -39 -12q-4 -5 -6 -5 l-148 -368q-4 -4 -4 -6q-1 -2 -3.5 -10t-5 -17.5t-3.5 -11.5v-13q-1 -3 -11.5 -30.5t-11.5 -30.5v-12q0 -3 -10 -23q-8 5 -6 12q2 5 11 36.5t11 37.5q5 10 7 10q0 6 16 70q2 5 22.5 50t22.5 50q0 11 6 23v6l78 209v12h-4q-1 -1 -6 -8t-6 -8l-103 -266q1 -1 1 -4t-1 -3 q-3 -8 -22.5 -58t-26.5 -77q-2 -1 -2 -6t2 -6l-80 -238q-8 -11 -12 -24.5t-6 -32.5t-4 -26q-17 -68 -17 -74v-6q3 -6 8 7t9 15v-6q-17 -51 -17 -68q-1 -5 -8.5 -29.5t-9.5 -40t0 -32.5l-17 18q-14 -45 -12 -79q3 -3 7.5 5.5t9.5 20t8 13.5q5 -41 -19 -62l-6 10 q-16 -10 -10 -55q3 2 6 10.5t6.5 15t9.5 3.5v-6q-10 -85 -22 -132q0 -1 -5 -15.5t-7 -16.5q-1 15 3.5 47.5t2.5 48.5h-6q-13 -63 -17 -90v-6q0 -23 -6 -41q12 -7 13 -20.5t-3.5 -31.5t-3.5 -26q1 -1 3.5 -1t2.5 1l6 6q5 2 34.5 16t33.5 17q14 7 23 16l417 561q1 2 12 0.5 t11 -6.5v-33q1 -2 11.5 -25.5t10.5 -25.5q2 -1 2 -6t-2 -6q-44 -68 -61 -113q-1 -2 -6 -22.5t-6 -22.5l-4 -6q-2 -4 -15 -29.5t-20 -42t-10 -30.5l-125 -152q-3 -3 6 -12l-164 -164q-17 4 -29.5 -2t-24 -17t-20.5 -14q-27 -10 -45 -11t-47 5zM205 250l-6 -6q2 0 22 10 q2 1 4.5 3t6 6.5t1.5 8.5q-4 -5 -28 -22zM199 283q0 -2 4.5 -6.5t7.5 -4.5q5 0 16 11q-3 7 -15 7t-13 -7zM283 317v-6l18 17q-2 0 -9.5 -5.5t-8.5 -5.5zM311 346v-6l41 33h-12zM340 414v-13q21 21 22 23v6q-10 -10 -16 -10zM346 436l-6 -6h6v6zM414 487q-2 1 -5 -2t-1 -4 q3 -1 5.5 1t0.5 5zM74 532q-4 0 -4 -6t4 -6t4 6t-4 6zM125 786q-5 0 -5 -5t5 -5t5 5t-5 5zM137 825q-3 1 -3 -2t3 -2q1 0 1 2t-1 2zM182 944q9 51 29 80v-23q-13 -52 -18 -57l-11 -4v4zM221 1063l23 74l6 6v-17q-8 -34 -23 -63l-6 -4v4zM250 1380q-4 0 -4 -5t4 -5t4 5t-4 5z M1126 1862q-4 0 -4 -6.5t4 -6.5t4 6.5t-4 6.5zM1235 1878q0 3 -3.5 3t-2.5 -3q0 -2 2.5 -2t3.5 2zM1329 1907q-3 0 -3 -5.5t3 -5.5q5 0 5 5.5t-5 5.5zM1188 1907q2 3 -2 3t-2 -3q0 -3 2 -3t2 3zM1409 1923q-5 0 -5 -5t5 -5t5 5t-5 5zM1325 1958q0 3 -3 3t-3 -3t2.5 -3t3.5 3 zM1518 1987v-7l4 7h-4z" />
<glyph unicode="u" horiz-adv-x="968" d="M-25 260q0 2 -2.5 4t-3.5 2q-5 4 -13.5 10t-12.5 9.5t-10 10.5t-11 17q-1 4 -7 20t-14 36.5t-10 25.5q-4 4 -4 21q0 5 1 51t1 57q7 49 7 74q0 2 5 17t5 18q0 2 1 16t1 15q3 15 17.5 91t15.5 87q21 107 36 153q0 1 2.5 7.5t2.5 7.5q18 75 70 208.5t89 204.5q0 3 24 13.5 t30 7.5l90 -33l24 -27q-2 -6 3.5 -24t2.5 -29q-11 -49 -10 -57q1 0 6 -2t6 -2q-2 -6 -2 -8q-1 -8 -33.5 -101.5t-33.5 -97.5q-6 -6 -6 -8q-15 -23 -15 -27q-12 -72 -12 -88q-6 -3 -6 -9t2 -13.5t0 -12.5q0 -1 -7 -22t-7 -23q-11 -55 -11 -63l-8 -6q2 24 11 75.5t10 79.5 q-13 -13 -13 -20l-45 -174q2 -7 10 7q6 9 9 11h18q-2 -2 -2 -12q-1 -4 -9 -36.5t-9 -39.5q-8 0 -14.5 -9.5t-6.5 -17.5l-14 -161l6 -7l-8 -79h6q18 9 18 12l140 217l200 422v8l41 80l2 6q25 50 33 68q4 6 12.5 9t18 4t10.5 1h6q3 -1 8.5 -4t9.5 -6t3 -4q2 -2 10 -27.5 t8 -26.5q5 -10 15 -20q18 -24 18 -62q2 -3 0.5 -15.5t-4.5 -16.5q0 -2 -2 -11t-2 -10q-4 -13 -21 -88q-1 -6 -2 -17t-2 -17.5t-4 -15.5t-8 -17l-66 -277q0 -2 -1 -19.5t-1 -19.5q0 -3 -4 -16l-4 -13q-4 -24 -4 -47l4 -8q6 6 33.5 37.5t32.5 36.5q1 6 15 29t17 26 q1 1 18.5 22.5t18.5 24.5q7 10 11.5 21.5t13.5 19.5l235 328q31 49 66 35q-8 -37 0 -62l-29 -80q-9 -19 -47 -83.5t-53 -83.5q-29 -42 -92.5 -120.5t-73.5 -84.5l-63 -66q-1 -2 -25 -26q-32 -40 -55 -60q-8 -7 -28.5 -33.5t-39.5 -35.5q-39 16 -61 20q-7 0 -11 8 q-4 4 -45 72q-1 2 -2.5 18t-3 37t-2.5 27v16q-1 3 -1 17.5v31.5l1 17q0 30 8 94l-6 -4q-3 -7 -16.5 -28.5t-18.5 -26.5q-2 -2 -12.5 -8.5t-11.5 -10.5l6 -14q0 -2 -1 -11t-1 -10q-10 -4 -12 -4q-2 -4 -4.5 -16t-7.5 -17.5t-15 -1.5l-4 -55l-53 -100q-4 0 -19 -15 q-1 -1 -4 -7t-6 -11.5t-4 -5.5q-35 -54 -68 -64h-16q-19 0 -31 -6q-12 -12 -16 -20q-6 -6 -15 -6q-20 -10 -26 -9q-56 28 -60 31zM80 379q0 -1 2 -3.5t4 -2.5q20 13 22.5 18t-1.5 15.5t-1 25.5q1 1 6 17t5 18q0 8 -4 23t-4 22q0 6 2 33t2 30l-7 -8q-16 -102 -22 -147 q0 -4 -2 -22t-2 -19zM109 602q0 -2 2.5 -4t3.5 -2q17 23 4 31q-1 -1 -5 -12.5t-5 -12.5zM127 672q-3 1 -4 -13q-1 -17 2 -16q3 2 4 12.5t-2 16.5zM145 696q6 -6 7 -6l2 21q-3 0 -6 -6t-3 -9zM164 752q-2 1 -3 -3q-4 -12 1 -14q2 2 2.5 8.5t-0.5 8.5zM213 1040q-6 0 -6 -7 q2 -4 4 -5q6 0 6 7q-2 4 -4 5z" />
<glyph unicode="v" horiz-adv-x="780" d="M162 299q-3 2 -12 7.5t-12.5 7.5t-11.5 7t-12 8.5t-10 8.5t-10 9.5t-8.5 11t-7.5 12.5q-3 3 -9 20.5t-6 20.5q-1 1 -2.5 3t-3.5 7t2 8l-49 291q4 10 1 37t1 37l33 452l12 27q7 7 35 12h7.5t3.5 -2t8 -4q3 -1 58.5 -9t59.5 -9q0 -8 7 -15q6 -4 8 -4q4 -4 6 -15t6 -14 q-4 -16 -4 -47l-4 -6q-7 -85 -8 -86q-1 -10 4.5 -30.5t-2.5 -30.5l-2 -180q2 -4 2 -43q0 -36 10 -136q7 -26 18 -74q12 -53 16 -54q2 -1 4 10q1 3 1 6q22 36 80 157q-1 6 14 29t16 27q2 2 13.5 24.5t13.5 24.5q5 14 20 25l15 10l115 241q0 13 8 17l110 221q0 8 19 27h28 q5 -3 9.5 -11t3.5 -14q-1 -3 -2.5 -13.5t-3 -18t-2.5 -9.5l-119 -252l-23 -35l-184 -387q-13 -14 -24 -38.5t-17 -32.5q-1 -5 -26.5 -44.5t-26.5 -41.5q-6 -9 -26.5 -44t-33.5 -53q-2 -4 -4 -5t-3.5 -1t-5 -0.5t-7.5 -1.5q-7 -5 -19.5 -21t-19.5 -18q-12 -6 -29 -6l-14 -6 q-4 0 -4 6z" />
<glyph unicode="w" horiz-adv-x="1132" d="M78 57q-6 0 -23 17q-7 7 -31 33t-26 28q-32 42 -49 104t-19 123q-2 31 -2 90t2 62l45 215v12l158 373q12 8 23.5 36.5t17.5 31.5l135 209q2 4 35 12q7 1 14 -1t15 -7t11 -7.5t12 -11.5l10 -8q1 0 6 -2t6 -2q20 -19 28.5 -30t16.5 -34l10 -38l-78 -154q-5 -2 -13 -18.5 t-11 -20.5q-8 -13 -22 -47t-11 -43l6 6l55 107v-17q-52 -104 -55 -112q-3 -6 -7.5 -24t-4.5 -24l-84 -192q-8 -3 -17.5 -25.5t-5.5 -29.5l4 -6q3 -5 -7.5 -20t-8.5 -26l-61 -208q-2 -3 -2 -20.5t2 -25.5q0 -2 2 -17t2 -17q0 -11 -4 -11q-4 6 -9.5 19.5t-9.5 19.5 q0 -98 6 -147h6q84 25 148 113q5 8 30 45.5t47.5 72t28.5 45.5q9 27 13 35v6l51 113v6q0 4 23.5 60.5t37.5 87.5q1 1 45 67q14 19 64 -6q9 -12 45 -57q22 -32 4 -101q0 -5 -4.5 -32t-5.5 -31q-1 -3 -11.5 -34t-11.5 -34q-2 -13 -1.5 -16.5t3.5 -11.5t4 -17v-51 q11 -16 33.5 -18t40.5 8l4 4q6 6 12 6q1 1 16.5 6t16.5 6q13 6 25 35.5t20 38.5l109 293q-2 6 8 26.5t8 30.5q0 1 -3 14t-3 15v100q0 3 -5 32t-5 32q-5 42 10 78q14 28 19 28q3 3 14 3t14 -3q4 -20 4 -28v-11l45 -147q2 -3 2 -24.5t-2 -30.5q0 -2 -2 -12.5t-2 -12.5 q-2 -2 -2 -13t2 -14l-51 -233l-90 -168q-3 -4 -17.5 -23.5t-17.5 -23.5q-1 0 -2 -2t-2 -4.5t-2 -3.5h6v-7q-6 -12 -16 -22q-60 -60 -64 -62q-3 -3 -38 -18.5t-52 -21.5q-44 -11 -45 -11t-45 11q-26 12 -46 37.5t-28 43.5t-22 56l-6 10v16l-17 -16l-57 -96q0 -15 -10 -45 q-34 -80 -41 -90q-5 -7 -19.5 -17.5t-19.5 -17.5q-10 -10 -10 -17q-1 -1 -3.5 -7t-5.5 -13t-4 -8q0 -2 -6.5 -9t-9.5 -8q-6 0 -12 -6q-2 -2 -6.5 -10.5t-4.5 -11.5q-3 -2 -30 -27.5t-33 -28.5q-16 -13 -40.5 -14.5t-43.5 2.5q-6 0 -23.5 4.5t-21.5 7.5zM133 391v-6l6 6h-6z M133 469q5 -8 11 -4.5t8 10.5q0 2 2 19.5t2 19.5q2 7 8.5 20t11.5 22.5t4 20t-12 17.5l-23 -96q-15 -12 -12 -29zM190 623q-1 1 -2 -3q-3 -13 2 -16q3 3 3 10.5t-3 8.5zM207 668l-4 -17h4v17zM207 723v-16q1 0 3.5 2.5t2.5 3.5q26 39 35 57q39 91 45 107q-4 9 8 25.5t8 25.5 q-10 -10 -10 -13q-13 -13 -29 -45q-1 -2 -6 -22.5t-6 -22.5q-6 -17 -39 -67q-7 -13 -12 -35zM440 1159q1 2 11.5 22.5t11.5 22.5t2.5 8t3 9.5t4 8.5t5.5 9t7 6h4l13 -6q0 -10 -6 -16l-56 -70q-2 1 -2 3.5t2 2.5z" />
<glyph unicode="x" horiz-adv-x="880" d="M-80 201q-30 11 -39 61q-1 8 -1 25t1 20l58 193l290 465l-149 215q-5 3 -18.5 15.5t-16.5 16.5q-10 10 -10 19q-1 0 0 3.5t2.5 7.5t1.5 5v6q8 11 29 11h51q8 0 22 -7l6 -4q9 -6 33 -18l23 -4q11 -6 24 -25q20 -30 56 -78l12 -12q2 -3 16.5 -22.5t16.5 -22.5h6l401 346 l113 68q11 0 29 -6q30 -11 34 -29q2 -8 7 -28.5t10.5 -40t5.5 -21.5v-35q-1 -5 -23 -27q-25 -17 -103 -75.5t-101 -77.5q-15 -12 -63 -61t-60 -64q-1 0 -41 -27q-90 -90 -90 -92v-4l153 -227v-11q24 -48 39 -73q13 -30 6 -51q-2 -3 -8.5 -8t-9.5 -5q-8 4 -10 6l-64 66h-16 l-185 203l-92 -92l-108 -164l-4 -6l-170 -306q-9 -6 -16 -15.5t-9.5 -13t-13 -5.5t-25.5 6z" />
<glyph unicode="y" d="M240 -317q-7 1 -38 5t-48 3l-99 51q-14 7 -39 41.5t-28 50.5q-10 8 -38.5 46t-37.5 52q-28 55 -41 97q-11 30 12 30q25 -1 47 -24q6 -6 9 -12q7 -14 4.5 -23.5t-1 -19t14.5 -17.5q43 -71 45 -74q2 -2 21.5 -22.5t21.5 -22.5q6 -8 8 -10q10 -21 15 -22q69 -36 112 -21 q6 2 56 27q2 1 19 6t19 6q6 3 19 12.5t14 12.5l66 102l180 741v7l-33 -74q6 -11 -2 -23l-76 -129q0 -3 -14 -45q-3 -9 -22 -28q-2 -2 -26 -13.5t-26 -13.5q-1 0 -5 -5t-5 -5q-39 -31 -70 -44t-77 -6q-10 -9 -31.5 -10.5t-34.5 6.5q-20 10 -33 23q-101 67 -135 223 q0 39 -6 57v5l43 309l170 377q14 22 23 26q13 8 39.5 6t37.5 -16l54 -76q0 -1 2 -13t2 -15q1 -9 0.5 -17t1.5 -18t8 -17l-23 -61h19v-6l-2 -17l-82 -254q0 -1 -1 -8t-1 -8q-1 -3 -11.5 -28.5t-11.5 -28.5q-2 -7 -12.5 -54t-11.5 -51q2 -8 1.5 -12t-3.5 -12t-4 -11 q0 -3 -2.5 -19.5t-2.5 -18.5q5 -5 5 -23q1 -1 0.5 -2.5t-1 -3.5t-1 -3.5t-0.5 -2.5q-11 -66 -11 -96l-4 -5q-9 3 -6 11q-2 3 -2.5 32t-1.5 31q1 5 4 17t3 17t-3 15q0 12 5.5 52t8.5 51q2 2 2 12q1 2 4.5 25t4.5 26q12 48 28 88v17v6l-10 2l-61 -305q0 -1 2 -6.5t2 -6.5 q0 -90 2 -106q1 -6 9 -13.5t13 -9.5q19 -13 39 0q1 1 12 8t24.5 16t18.5 13q3 4 3 6l5 4q5 5 9 8.5t4 4.5q11 12 33.5 38t38.5 45.5t18 20.5l326 651l10 11q2 1 17.5 0.5t23.5 -2.5q15 -2 29.5 -15.5t11.5 -29.5q4 -4 20 -27t19 -29q11 -34 8 -51q1 -3 -2 -21t2 -24 l-61 -326v-6l-70 -288l2 -7l-160 -553q-2 -9 -7 -17.5t-11.5 -18t-9.5 -13.5q-1 -1 -5.5 -9t-5.5 -9q-33 -45 -49 -62q-5 -5 -26.5 -17t-28.5 -13q-7 -5 -66 -13q-4 0 -34 1t-37 1q-4 0 -22 3t-21 4zM229 883q-2 1 -2 -1q0 -7 4 -10q2 0 2.5 2.5t-0.5 5t-4 3.5zM244 889 q-6 0 -2 -7q2 -5 6 -5q6 0 2 7q-2 5 -6 5zM250 899q-3 1 -3 -2t3 -2q3 0 3 2t-3 2zM231 905q2 -4 2 -6q5 3 7.5 10.5t-0.5 12.5q-5 -2 -7.5 -7.5t-1.5 -9.5zM266 956q0 -6 -8 -22q15 12 18 29q-6 2 -10 -7zM262 1014q-2 -1 -1.5 -6.5t3.5 -6.5q17 4 29 31.5t10 48.5 q-6 2 -14 -6q-3 -2 -7 -7t-7.5 -9.5t-4.5 -5.5q-8 -16 -8 -39zM307 1098q-7 0 -3 -8q2 -3 5 -3q3 -1 4 2q-1 6 -6 9z" />
<glyph unicode="z" horiz-adv-x="958" d="M18 113q-25 7 -45 39.5t-22 60.5q-1 11 -1 28t1 19l577 780l129 129h-4q-4 0 -37 -5t-36 -5h-7q-2 0 -17 3t-17 3h-52l-254 -35q-11 -2 -23.5 0.5t-29 9t-20.5 7.5q-15 8 -23 18q-16 24 -16 33q0 11 6 23q4 13 23 41h4q21 -7 28 -7h209q66 11 74 11h119q3 0 23 3t22 3h18 q1 0 8.5 -3t8.5 -3q52 -4 82 1.5t59 32.5q32 -6 55.5 -39t30.5 -69v-39q0 -1 -3 -8t-3 -8v-13l-289 -293q0 -6 -6 -12q-24 -35 -29 -39v-12l-186 -229h22q-9 -16 -28 -25l-113 -135h-6q-2 3 1 7t7 6l4 3q0 1 8 13t9 16h-7q-20 -29 -26 -41q-3 -3 -13 -23h13l434 103h35 q3 0 17 -6t22 -4q14 2 35 10.5t32 11.5q3 0 22 2t25 2q13 5 39 0t11 -26q-2 -4 -17 -19q-5 -1 -29 -5t-28 -5h-4q-1 0 -11.5 2t-11.5 2q-9 2 -26 2t-19 -2q-3 0 -26 -13.5t-25 -13.5q-4 -2 -46 -10.5t-63 -11.5h-6l-401 -154q-13 -10 -74 -51q-1 0 -11 -5t-11 -5 q0 -1 -11 -12q-2 -2 -14 -20t-14 -19q-12 -13 -52 0zM291 440q-1 3 -5 -0.5t-1 -5.5t5 0.5t1 5.5zM352 469l193 231h16l-145 -163q-6 -6 -6 -13q-1 -1 -26.5 -28.5t-31.5 -32.5v6zM307 475q-5 0 -5 -6t5 -6t5 6t-5 6zM319 485q-3 2 -3 -2t3 -4q1 1 1 3.5t-1 2.5zM535 752 q-5 0 -5 -6.5t5 -6.5q3 0 3 6.5t-3 6.5zM670 877l39 38h6l-35 -45q-1 -2 -3.5 -0.5t-4.5 4t-2 3.5z" />
<glyph unicode="|" horiz-adv-x="452" d="M338 -266q-16 6 -30.5 33t-26.5 34l-146 521v6q-1 5 -9 53t-9 53v6l-27 244q1 8 -2 17.5t-4 15.5v47q-1 22 -5.5 65t-6.5 78t0 66l-4 10v68q-14 385 -13 487q1 2 3 11.5t3 11.5v12q1 24 4 85t5 91.5t6.5 79.5t11.5 90.5t18 81.5q3 15 18 18.5t21 -12.5q1 -3 10.5 -26.5 t18 -43.5t12.5 -26q1 -2 13.5 -19.5t13.5 -19.5q6 -6 6 -12q19 -94 23 -136v-61q0 -99 -6 -141v-29q0 -3 -2.5 -22.5t-2.5 -22.5q1 -24 3.5 -194t7.5 -259q3 -68 16 -237v-6l70 -662q0 -9 39 -153q14 -28 22 -52q9 -36 12 -45v-84q-7 -19 -26.5 -25t-36.5 3zM299 768 q0 14 -12 74q-6 49 -6 164q2 -19 12 -120.5t12 -117.5v-4zM264 1249l6 13q10 -2 4.5 -21.5t-4.5 -23.5q5 -14 2 -16q-5 -3 -8 -13v61zM254 1821q-2 8 -2 31.5t2 29.5h4v-84q0 2 -2 11.5t-2 11.5z" />
<glyph unicode="&#xa2;" horiz-adv-x="665" d="M96 328q-2 0 -8 3.5t-6 4.5q0 2 -2.5 7t-3.5 5h-10q-32 11 -74 58q-45 79 -51 100q-4 6 -6 18.5t-7 18.5q-2 11 -2 52t2 52q6 36 21 111l-1 4v8t2 6t5 4l20 62q6 2 5.5 11.5t5.5 10.5l26 74q19 37 21 37l90 147l84 90q4 15 16 15q8 9 42.5 38t47.5 38q67 38 101 51 q19 5 56 9.5t48 6.5q9 1 25 -2.5t22 -3.5l80 -31q2 0 10 -16q27 -75 13 -141q-13 -26 -13 -27q-1 -4 -5 -45t-5 -45q-6 -6 -6 -17q-8 -15 -41 -57l-20 -20q-8 -3 -28 -5.5t-26 -1.5q-3 1 -18.5 8.5t-18.5 8.5q-4 1 -10 7.5t-6 8.5l113 201q0 1 1.5 11.5l3.5 24.5l3 21v15h-6 q-1 -3 -17 -19l-18 -18q-1 -1 -10.5 -4.5t-17.5 -6.5t-9 -4q-3 -2 -30 -24.5t-35 -28.5q-8 -7 -30.5 -40.5t-47.5 -43.5l-111 -123q0 -20 -27 -34l-71 -138l-80 -301l10 -61q0 -2 10 -12q1 -1 3.5 -5t4.5 -8t3 -4q10 -6 22.5 -6.5t30 3t20.5 3.5q42 0 60 6q2 1 15 4.5 t25.5 7t16.5 5.5q6 4 42 19.5t44 21.5l178 131l86 116l39 37q7 -4 12 -16.5t3 -20.5q0 -2 -7 -22t-8 -25q-1 -2 -12 -18.5t-12 -18.5q0 -1 -10.5 -10t-10.5 -10q-1 -1 -3 -6t-3 -6q-1 0 -7.5 -9.5t-6.5 -11.5v-8q-1 -1 -4.5 -3.5t-6 -5t-2.5 -3.5l-4 -15q-2 -5 -41 -39 t-43 -43q-7 -9 -29 -17t-26 -11l-4 -6q-1 -1 -11.5 -6.5t-11.5 -6.5q-2 -4 -4 -4q-14 -20 -39.5 -33.5t-60.5 -20.5t-62.5 -10t-67.5 -5.5t-54 -3.5q-34 -4 -60 6zM123 485q-2 23 5.5 71.5t6.5 70.5q1 11 13.5 51.5t17.5 52.5q0 9 20 39q3 -2 7.5 4t9 16.5t8.5 21.5 t8.5 19.5t7.5 10.5v-4l-51 -170q-4 -9 -6 -9h-4q0 12 10 52v16l-6 -4l-27 -84q2 -21 -3 -61t-5 -48q-1 -6 -1 -34t1 -37h-6q-2 0 -4 9.5t-2 16.5zM182 750v-7q6 11 4 15q0 -1 -2 -4t-2 -4zM383 2q-11 4 -20.5 22.5t-16.5 22.5l-98 348v4q0 24 -12 72v4l-17 162q0 5 -2 10.5 t-2 11.5v31q0 5 -4.5 45.5t-4 46.5t0.5 47l-4 7v45q-8 218 -8 325q4 8 4 17v8q1 18 3.5 70t4.5 77t7.5 65t14.5 73q2 9 12 11.5t15 -7.5q24 -60 27 -64q8 -16 18 -26q0 -1 2 -4.5t2 -4.5q1 -7 7 -45t7 -45v-41q0 -74 -4 -94v-18q0 -2 -1 -15.5t-1 -15.5q1 -34 1 -96 t1 -112.5t4 -94.5q1 -25 11 -158v-4l47 -442q0 -5 10 -45t16 -58q0 -3 15 -33q1 -2 4 -15t4 -15v-56q-4 -13 -17.5 -17t-25.5 1z" />
<glyph unicode="&#xa3;" horiz-adv-x="1165" d="M74 96q-17 10 -19.5 49.5t6.5 53.5l52 100l118 420q-3 14 8.5 43.5t8.5 46.5h-6q-3 0 -36 -5t-36 -5q-9 -1 -40 -1t-40 1q-25 1 -39.5 31.5t-12.5 62t17 35.5l228 57q20 5 29 51.5t16 55.5l51 182q6 6 6 16h-6l-160 -39q-3 -1 -24.5 -1t-30.5 1q-1 0 -6 2t-6 2v29l6 12 l80 33l4 6q4 1 23.5 8.5t23.5 8.5l135 86q17 13 22 28l91 277q4 12 30 61.5t37 67.5q9 14 46 60t50 59q60 43 164 96q2 1 4 1t2 -1q3 -1 11.5 -3.5t15.5 -4.5t8 -2q2 -1 28 -18t34 -21q22 -16 28 -74v-57l-108 -199l-158 -174l-12 -18q-48 -32 -90 -62l-45 -45 q-17 -17 -17 -23q-20 -60 -22 -67v-12l-29 -107q7 -14 6 -18q-11 -27 -22 -72q-1 -2 -4.5 -10.5t-6.5 -16.5t-6.5 -19t-5.5 -19.5t-2 -16t3 -11.5t9 -3l289 26h45q56 7 154 7q5 0 31 -3t30 -4h29l6 -4q-4 -2 -6.5 -8t-4 -12.5t-1.5 -7.5q-10 -25 -20.5 -39t-30.5 -25 q-66 -33 -78 -33l-369 -57q-22 2 -72.5 -7t-52.5 -9l-10 -23q0 10 -6 16q0 1 -2 1t-4 -1q-1 -4 -3.5 -27t-7.5 -34q-1 -1 -5 -8t-7.5 -13t-3.5 -8q-6 -18 -6 -57q-1 0 -3 -4t-4.5 -10t-4.5 -8q-5 -5 -7 -5q0 -19 -10 -79v-13l-51 -174q-35 -55 -29 -115q9 -1 23.5 2t22 3.5 t18.5 -5.5l379 -55q6 -1 36.5 -1t41.5 1q17 0 47 10l135 80q20 12 41 54.5t37 48.5q50 -40 57 -74q18 -79 -107 -193q-3 -2 -28 -14.5l-46 -23t-28 -13.5q-21 -9 -57 -14.5t-56 -1.5l-356 61h-96l-141 -39q-6 -5 -26 -16t-26 -12q-6 -2 -11 -2.5t-11 1t-9.5 2.5t-10 5 t-8.5 5t-9 6t-8 5zM571 1307l-6 6q-6 19 6 47t33 20q-2 -9 -14.5 -46t-14.5 -60h-4v33zM623 1589v-10l180 193l102 180q7 15 4 28q-21 5 -45 -12q-13 -9 -44 -35.5t-34 -31.5q-14 -15 -51.5 -65.5t-44.5 -63.5q-8 -14 -32 -70.5t-31 -77.5q0 -3 -2 -17.5t-2 -17.5z" />
<glyph unicode="&#xa8;" horiz-adv-x="382" d="M39 1544q-4 4 -4 6l-35 84q-8 21 18.5 53.5t49.5 26.5q28 -22 45 -57q6 -6 6 -17v-12q0 -1 3 -16.5t3 -16.5q-1 -1 -4.5 -9t-7.5 -18t-7 -14q-7 -14 -30.5 -15.5t-36.5 5.5zM276 1618q-12 18 -16 39q0 17 -6 35q0 14 6 22q12 16 35 39q1 3 7.5 6.5t8.5 3.5q20 0 35 -10 q3 -3 16 -29q12 -18 13 -45t-2 -51q-6 -29 -45 -33q-5 -1 -16.5 -1t-12.5 1z" />
<glyph unicode="&#xa9;" horiz-adv-x="849" d="M244 311h-6q-5 1 -21 5.5t-28 7.5t-13 4q-26 13 -29 16q-47 40 -51 45q-1 1 -6 9.5t-6 9.5q-4 4 -18 16.5t-24 25t-13 25.5q-5 16 -16.5 70.5t-12.5 70.5q-2 8 -2 48t2 55q5 69 45 135q8 13 27.5 39t23.5 29l170 131q2 2 11 6t12 4q16 6 84 16q17 3 29 0.5t30.5 -11 t26.5 -11.5h16q27 -5 84 -39q2 0 12 -10q2 -5 14 -27t15 -25q5 -10 23 -28q48 -75 55 -221q7 -99 -39 -226q0 -3 -23 -41q-53 -80 -129 -106q-39 -9 -176 -29h-57q-10 4 -10 6zM147 408q4 -4 25 -15.5t27 -13.5q13 -1 61 -1t62 1q7 0 40 8.5t46 13.5q48 18 102 45 q46 41 55 68q6 16 17.5 51t11.5 39q0 20 6 131v29q-7 64 -12 74q-3 12 -23 55.5t-28 56.5q-9 14 -39 29q-51 22 -58 22h-112q-5 0 -17 -4t-16 -8l-176 -141q-7 -6 -29 -38.5t-29 -45.5q0 -1 -3 -19t-7 -41.5t-6 -35.5v-6l39 -177q2 -2 12 -22q39 -47 51 -55zM254 485 q-1 1 -61 41q-9 6 -19 30.5t-10 37.5v102q0 11 6 17q37 59 39 61l143 121l56 -6q2 0 25.5 -18.5t35.5 -28.5q6 -4 35 -33q20 -25 11.5 -78.5t-34.5 -75.5q-15 -12 -45 -4q-13 0 -28 23q-16 24 -10.5 38t15.5 38t5 43q-3 3 -19 14t-20 12q-1 1 -14.5 1t-18.5 -1q-2 0 -9.5 -2 t-8.5 -2q-2 -2 -27.5 -24t-28.5 -27q-4 -3 -12 -16.5t-10 -18.5q-16 -33 -25 -67v-68q3 -16 19 -29l32 -22q6 -1 22 -1t19 1l78 45q3 2 16 2t19 -2q9 -3 11.5 -15t-1.5 -18q-5 -5 -35.5 -31.5t-35.5 -31.5q-6 0 -13 -7l-16 -4q-8 -1 -34.5 -1t-33.5 1q-2 0 -9 2t-9 2z" />
<glyph unicode="&#xad;" horiz-adv-x="598" d="M96 430q-34 27 -47.5 57t-9.5 72q0 3 2.5 7.5t3.5 4.5l356 56h74q4 -11 4 -17v-10q6 -6 6 -22q0 -2 -2.5 -4.5t-3.5 -2.5q-2 -3 -6 -19.5t-10 -21.5q-2 0 -12 -4.5t-11 -5.5q-2 -2 -13 -14t-19 -14l-267 -68q-5 -2 -22.5 -0.5t-22.5 6.5z" />
<glyph unicode="&#xb4;" horiz-adv-x="301" d="M18 1554q-16 12 0 52q6 14 35 58t39 54q11 16 58.5 65t66.5 66q6 6 27 6q3 -2 20.5 -14t20.5 -14q4 -4 4 -12q9 -43 -10 -62l-193 -209q-3 -4 -16.5 -6t-18.5 0q-2 1 -16.5 8t-16.5 8z" />
<glyph unicode="&#xb8;" horiz-adv-x="368" d="M78 -350l-6 6q-1 0 -11.5 2t-11.5 2q-8 7 -23.5 22.5t-15.5 18.5v10q26 4 103 23q3 1 39 15.5t45 19.5q2 1 14 8t14 8t23 22v7q-17 -1 -42 -13t-42 -10t-35 29q-1 0 -2 3.5t-2 7.5t-2 5q0 2 -2.5 6t-3.5 4q1 3 6 20.5t6 20.5q45 91 57 107q7 16 23.5 17t30.5 -5.5 t24 -15.5q4 -4 7 -8.5t3.5 -9.5t0.5 -9t-2 -10t-3.5 -9.5t-5.5 -9.5t-5.5 -8.5t-5.5 -8.5t-5 -7q88 -43 108 -125q3 -24 -18 -45q-15 -15 -55 -45q-50 -17 -142 -45q-24 -6 -51 -6q-6 0 -12 6z" />
<glyph unicode="&#xc0;" horiz-adv-x="1935" d="M1651 -74q-2 2 -22.5 13t-22.5 12q-15 2 -15 4l-22 14l-135 176l-43 82l-58 269v147q0 3 3 29t3 28q6 79 7 84l5 19q5 19 5 22q2 9 4 30t2 24q0 2 3 14.5t3 13.5v62l-18 4h-230q-1 0 -12 -2t-25.5 -4.5t-21.5 -3.5l-17 -7l-243 -321l-357 -340q-13 -7 -51 -35 q-8 -8 -12 -8q-7 -7 -41.5 -27.5t-46.5 -25.5q-3 0 -19.5 -5t-17.5 -6q-3 0 -7.5 -2t-4.5 -4q-7 -1 -47 -8t-47 -8h-80q-11 2 -24 10.5t-19 18.5v10q-1 3 -3.5 9t-3 9t1 7.5t5.5 9.5q36 5 88 20h6l72 16l94 70l6 8l495 531q7 8 7 12v4h-7l-100 -33h-16q-3 0 -19.5 -10.5 t-19.5 -13.5q-3 0 -20.5 -4.5t-18.5 -5.5q-12 -4 -23.5 -9.5t-23.5 -14.5t-18.5 -14t-21.5 -17.5t-20 -16.5q-2 -2 -7 -4t-8.5 -5.5t-6.5 -9.5q-3 -12 3 -44t-3 -44q-6 -10 -21 -11.5t-22 5.5q-7 6 -20.5 18.5t-14.5 16.5q-2 2 -15 28.5t-16 37.5q-12 30 -3 65.5t28 56.5 q61 68 70 68l460 174q2 0 8 0.5t8 1t8 1t8.5 1.5t7.5 2t8 3t6.5 4.5t6.5 6t5 7.5l579 903q11 6 20.5 29.5t14.5 29.5q0 2 15 17q3 2 17 12t17 12q0 -6 7 -6h28q13 0 37 -12q7 -3 13 -7t13 -11t13 -11q2 -1 19.5 -8t19.5 -8l10 -8q2 -4 7 -11t8.5 -12t3.5 -6q1 -5 1 -21.5 t-1 -25.5q-7 -8 -7 -10v-33q0 -8 -11 -68t-11 -61q2 -8 0 -10q0 -2 -5 -9.5t-5 -9.5q-11 -44 -11 -65v-29l-47 -156h7l40 113h7q-2 -7 -12.5 -47t-12.5 -47l-4 -13l4 -6q2 -6 0.5 -10.5t-5.5 -12t-5 -10.5q-2 -3 -9.5 -24.5t-9.5 -24.5v72l-4 -12l-26 -125v-19 q-13 -65 -13 -67l-4 -10q-2 -8 -9 -58.5t-9 -58.5v-17l6 5l43 212v7q6 6 6 24q2 -6 2 -31t-2 -34q-25 -127 -26 -129q2 -9 -7.5 -40.5t-3.5 -47.5q0 -2 3.5 -9t8.5 -15t5 -9q10 -28 2 -55t-31 -46q-4 -4 -16 -4q-7 -10 -7 -12q-2 -6 -9 -42.5t-9 -41.5v-29 q-4 -40 -15.5 -120t-15.5 -123v-45q-1 -4 -6.5 -36t-5.5 -36v-12q-4 -8 -4 -29v-143l24 -101v-4l76 -153l47 -47q51 -34 54 -35q23 -20 11.5 -42t-40.5 -24h-61q-4 0 -19 2t-16 2zM1556 449q0 -7 7 -21l43 391v31q12 72 12 76q0 2 4 15t3.5 22t-7.5 16l-6 -10 q-15 -76 -21 -107v-6q-2 -8 -9 -50t-7 -50q-6 -32 -8 -93.5t-4 -84.5q0 -1 -3.5 -11.5t-3.5 -11.5v-106zM1190 1151v-6h215l51 262q26 29 19 74l30 143v14l-127 -196q-1 0 -5.5 -5t-4.5 -7q-3 -4 -20.5 -30t-20.5 -30q0 -12 -6 -18q0 -13 -10 -23q-2 -3 -30.5 -35.5 t-31.5 -36.5q0 -2 -4.5 -11.5t-5.5 -10.5q-3 -4 -17 -23.5t-21 -32.5t-11 -28zM1776 1690l53 247v11l6 43l12 12q4 -2 4 -12l-65 -303q-1 -4 -4.5 -6.5t-5.5 -0.5v9zM1636 2314q-18 12 -51 45q-6 7 -42 50.5t-42 50.5v6q4 13 23 41q8 1 23 -3.5t22 -2.5l51 -29 q8 -8 53 -54.5t53 -54.5q2 0 13 -8t12 -8q43 -43 49 -51q3 -3 3 -13.5t-3 -13.5q0 -5 -22 -12q-5 -1 -22 -1t-23 1q-86 49 -97 57z" />
<glyph unicode="&#xc1;" horiz-adv-x="1935" d="M1651 -74q-2 2 -22.5 13t-22.5 12q-15 2 -15 4l-22 14l-135 176l-43 82l-58 269v147q0 3 3 29t3 28q6 79 7 84l5 19q5 19 5 22q2 9 4 30t2 24q0 2 3 14.5t3 13.5v62l-18 4h-230q-1 0 -12 -2t-25.5 -4.5t-21.5 -3.5l-17 -7l-243 -321l-357 -340q-13 -7 -51 -35 q-8 -8 -12 -8q-7 -7 -41.5 -27.5t-46.5 -25.5q-3 0 -19.5 -5t-17.5 -6q-3 0 -7.5 -2t-4.5 -4q-7 -1 -47 -8t-47 -8h-80q-11 2 -24 10.5t-19 18.5v10q-1 3 -3.5 9t-3 9t1 7.5t5.5 9.5q36 5 88 20h6l72 16l94 70l6 8l495 531q7 8 7 12v4h-7l-100 -33h-16q-3 0 -19.5 -10.5 t-19.5 -13.5q-3 0 -20.5 -4.5t-18.5 -5.5q-12 -4 -23.5 -9.5t-23.5 -14.5t-18.5 -14t-21.5 -17.5t-20 -16.5q-2 -2 -7 -4t-8.5 -5.5t-6.5 -9.5q-3 -12 3 -44t-3 -44q-6 -10 -21 -11.5t-22 5.5q-7 6 -20.5 18.5t-14.5 16.5q-2 2 -15 28.5t-16 37.5q-12 30 -3 65.5t28 56.5 q61 68 70 68l460 174q2 0 8 0.5t8 1t8 1t8.5 1.5t7.5 2t8 3t6.5 4.5t6.5 6t5 7.5l579 903q11 6 20.5 29.5t14.5 29.5q0 2 15 17q3 2 17 12t17 12q0 -6 7 -6h28q13 0 37 -12q7 -3 13 -7t13 -11t13 -11q2 -1 19.5 -8t19.5 -8l10 -8q2 -4 7 -11t8.5 -12t3.5 -6q1 -5 1 -21.5 t-1 -25.5q-7 -8 -7 -10v-33q0 -8 -11 -68t-11 -61q2 -8 0 -10q0 -2 -5 -9.5t-5 -9.5q-11 -44 -11 -65v-29l-47 -156h7l40 113h7q-2 -7 -12.5 -47t-12.5 -47l-4 -13l4 -6q2 -6 0.5 -10.5t-5.5 -12t-5 -10.5q-2 -3 -9.5 -24.5t-9.5 -24.5v72l-4 -12l-26 -125v-19 q-13 -65 -13 -67l-4 -10q-2 -8 -9 -58.5t-9 -58.5v-17l6 5l43 212v7q6 6 6 24q2 -6 2 -31t-2 -34q-25 -127 -26 -129q2 -9 -7.5 -40.5t-3.5 -47.5q0 -2 3.5 -9t8.5 -15t5 -9q10 -28 2 -55t-31 -46q-4 -4 -16 -4q-7 -10 -7 -12q-2 -6 -9 -42.5t-9 -41.5v-29 q-4 -40 -15.5 -120t-15.5 -123v-45q-1 -4 -6.5 -36t-5.5 -36v-12q-4 -8 -4 -29v-143l24 -101v-4l76 -153l47 -47q51 -34 54 -35q23 -20 11.5 -42t-40.5 -24h-61q-4 0 -19 2t-16 2zM1556 449q0 -7 7 -21l43 391v31q12 72 12 76q0 2 4 15t3.5 22t-7.5 16l-6 -10 q-15 -76 -21 -107v-6q-2 -8 -9 -50t-7 -50q-6 -32 -8 -93.5t-4 -84.5q0 -1 -3.5 -11.5t-3.5 -11.5v-106zM1190 1151v-6h215l51 262q26 29 19 74l30 143v14l-127 -196q-1 0 -5.5 -5t-4.5 -7q-3 -4 -20.5 -30t-20.5 -30q0 -12 -6 -18q0 -13 -10 -23q-2 -3 -30.5 -35.5 t-31.5 -36.5q0 -2 -4.5 -11.5t-5.5 -10.5q-3 -4 -17 -23.5t-21 -32.5t-11 -28zM1776 1690l53 247v11l6 43l12 12q4 -2 4 -12l-65 -303q-1 -4 -4.5 -6.5t-5.5 -0.5v9zM1792 2214q-16 11 0 51q6 14 35 58.5t39 54.5q11 16 58.5 65t66.5 66q6 6 26 6q3 -2 20.5 -14.5 t20.5 -14.5q4 -4 4 -12q8 -42 -10 -61l-192 -209q-3 -4 -16.5 -6t-18.5 0q-2 1 -16.5 8t-16.5 8z" />
<glyph unicode="&#xc2;" horiz-adv-x="1935" d="M1651 -74q-2 2 -22.5 13t-22.5 12q-15 2 -15 4l-22 14l-135 176l-43 82l-58 269v147q0 3 3 29t3 28q6 79 7 84l5 19q5 19 5 22q2 9 4 30t2 24q0 2 3 14.5t3 13.5v62l-18 4h-230q-1 0 -12 -2t-25.5 -4.5t-21.5 -3.5l-17 -7l-243 -321l-357 -340q-13 -7 -51 -35 q-8 -8 -12 -8q-7 -7 -41.5 -27.5t-46.5 -25.5q-3 0 -19.5 -5t-17.5 -6q-3 0 -7.5 -2t-4.5 -4q-7 -1 -47 -8t-47 -8h-80q-11 2 -24 10.5t-19 18.5v10q-1 3 -3.5 9t-3 9t1 7.5t5.5 9.5q36 5 88 20h6l72 16l94 70l6 8l495 531q7 8 7 12v4h-7l-100 -33h-16q-3 0 -19.5 -10.5 t-19.5 -13.5q-3 0 -20.5 -4.5t-18.5 -5.5q-12 -4 -23.5 -9.5t-23.5 -14.5t-18.5 -14t-21.5 -17.5t-20 -16.5q-2 -2 -7 -4t-8.5 -5.5t-6.5 -9.5q-3 -12 3 -44t-3 -44q-6 -10 -21 -11.5t-22 5.5q-7 6 -20.5 18.5t-14.5 16.5q-2 2 -15 28.5t-16 37.5q-12 30 -3 65.5t28 56.5 q61 68 70 68l460 174q2 0 8 0.5t8 1t8 1t8.5 1.5t7.5 2t8 3t6.5 4.5t6.5 6t5 7.5l579 903q11 6 20.5 29.5t14.5 29.5q0 2 15 17q3 2 17 12t17 12q0 -6 7 -6h28q13 0 37 -12q7 -3 13 -7t13 -11t13 -11q2 -1 19.5 -8t19.5 -8l10 -8q2 -4 7 -11t8.5 -12t3.5 -6q1 -5 1 -21.5 t-1 -25.5q-7 -8 -7 -10v-33q0 -8 -11 -68t-11 -61q2 -8 0 -10q0 -2 -5 -9.5t-5 -9.5q-11 -44 -11 -65v-29l-47 -156h7l40 113h7q-2 -7 -12.5 -47t-12.5 -47l-4 -13l4 -6q2 -6 0.5 -10.5t-5.5 -12t-5 -10.5q-2 -3 -9.5 -24.5t-9.5 -24.5v72l-4 -12l-26 -125v-19 q-13 -65 -13 -67l-4 -10q-2 -8 -9 -58.5t-9 -58.5v-17l6 5l43 212v7q6 6 6 24q2 -6 2 -31t-2 -34q-25 -127 -26 -129q2 -9 -7.5 -40.5t-3.5 -47.5q0 -2 3.5 -9t8.5 -15t5 -9q10 -28 2 -55t-31 -46q-4 -4 -16 -4q-7 -10 -7 -12q-2 -6 -9 -42.5t-9 -41.5v-29 q-4 -40 -15.5 -120t-15.5 -123v-45q-1 -4 -6.5 -36t-5.5 -36v-12q-4 -8 -4 -29v-143l24 -101v-4l76 -153l47 -47q51 -34 54 -35q23 -20 11.5 -42t-40.5 -24h-61q-4 0 -19 2t-16 2zM1556 449q0 -7 7 -21l43 391v31q12 72 12 76q0 2 4 15t3.5 22t-7.5 16l-6 -10 q-15 -76 -21 -107v-6q-2 -8 -9 -50t-7 -50q-6 -32 -8 -93.5t-4 -84.5q0 -1 -3.5 -11.5t-3.5 -11.5v-106zM1190 1151v-6h215l51 262q26 29 19 74l30 143v14l-127 -196q-1 0 -5.5 -5t-4.5 -7q-3 -4 -20.5 -30t-20.5 -30q0 -12 -6 -18q0 -13 -10 -23q-2 -3 -30.5 -35.5 t-31.5 -36.5q0 -2 -4.5 -11.5t-5.5 -10.5q-3 -4 -17 -23.5t-21 -32.5t-11 -28zM1776 1690l53 247v11l6 43l12 12q4 -2 4 -12l-65 -303q-1 -4 -4.5 -6.5t-5.5 -0.5v9zM1864 2257q-4 2 -14 9t-18 12.5t-9 5.5l-78 102l-12 6q-26 -46 -62 -96q-13 -19 -41 -34t-49 -11 q-27 3 -45 28l-12 17l131 209l22 61q2 9 23 19q39 15 74 -29q59 -155 141 -260q0 -1 2 -8.5t2 -8.5q0 -31 -17.5 -34.5t-37.5 12.5z" />
<glyph unicode="&#xc3;" horiz-adv-x="1935" d="M1651 -74q-2 2 -22.5 13t-22.5 12q-15 2 -15 4l-22 14l-135 176l-43 82l-58 269v147q0 3 3 29t3 28q6 79 7 84l5 19q5 19 5 22q2 9 4 30t2 24q0 2 3 14.5t3 13.5v62l-18 4h-230q-1 0 -12 -2t-25.5 -4.5t-21.5 -3.5l-17 -7l-243 -321l-357 -340q-13 -7 -51 -35 q-8 -8 -12 -8q-7 -7 -41.5 -27.5t-46.5 -25.5q-3 0 -19.5 -5t-17.5 -6q-3 0 -7.5 -2t-4.5 -4q-7 -1 -47 -8t-47 -8h-80q-11 2 -24 10.5t-19 18.5v10q-1 3 -3.5 9t-3 9t1 7.5t5.5 9.5q36 5 88 20h6l72 16l94 70l6 8l495 531q7 8 7 12v4h-7l-100 -33h-16q-3 0 -19.5 -10.5 t-19.5 -13.5q-3 0 -20.5 -4.5t-18.5 -5.5q-12 -4 -23.5 -9.5t-23.5 -14.5t-18.5 -14t-21.5 -17.5t-20 -16.5q-2 -2 -7 -4t-8.5 -5.5t-6.5 -9.5q-3 -12 3 -44t-3 -44q-6 -10 -21 -11.5t-22 5.5q-7 6 -20.5 18.5t-14.5 16.5q-2 2 -15 28.5t-16 37.5q-12 30 -3 65.5t28 56.5 q61 68 70 68l460 174q2 0 8 0.5t8 1t8 1t8.5 1.5t7.5 2t8 3t6.5 4.5t6.5 6t5 7.5l579 903q11 6 20.5 29.5t14.5 29.5q0 2 15 17q3 2 17 12t17 12q0 -6 7 -6h28q13 0 37 -12q7 -3 13 -7t13 -11t13 -11q2 -1 19.5 -8t19.5 -8l10 -8q2 -4 7 -11t8.5 -12t3.5 -6q1 -5 1 -21.5 t-1 -25.5q-7 -8 -7 -10v-33q0 -8 -11 -68t-11 -61q2 -8 0 -10q0 -2 -5 -9.5t-5 -9.5q-11 -44 -11 -65v-29l-47 -156h7l40 113h7q-2 -7 -12.5 -47t-12.5 -47l-4 -13l4 -6q2 -6 0.5 -10.5t-5.5 -12t-5 -10.5q-2 -3 -9.5 -24.5t-9.5 -24.5v72l-4 -12l-26 -125v-19 q-13 -65 -13 -67l-4 -10q-2 -8 -9 -58.5t-9 -58.5v-17l6 5l43 212v7q6 6 6 24q2 -6 2 -31t-2 -34q-25 -127 -26 -129q2 -9 -7.5 -40.5t-3.5 -47.5q0 -2 3.5 -9t8.5 -15t5 -9q10 -28 2 -55t-31 -46q-4 -4 -16 -4q-7 -10 -7 -12q-2 -6 -9 -42.5t-9 -41.5v-29 q-4 -40 -15.5 -120t-15.5 -123v-45q-1 -4 -6.5 -36t-5.5 -36v-12q-4 -8 -4 -29v-143l24 -101v-4l76 -153l47 -47q51 -34 54 -35q23 -20 11.5 -42t-40.5 -24h-61q-4 0 -19 2t-16 2zM1556 449q0 -7 7 -21l43 391v31q12 72 12 76q0 2 4 15t3.5 22t-7.5 16l-6 -10 q-15 -76 -21 -107v-6q-2 -8 -9 -50t-7 -50q-6 -32 -8 -93.5t-4 -84.5q0 -1 -3.5 -11.5t-3.5 -11.5v-106zM1190 1151v-6h215l51 262q26 29 19 74l30 143v14l-127 -196q-1 0 -5.5 -5t-4.5 -7q-3 -4 -20.5 -30t-20.5 -30q0 -12 -6 -18q0 -13 -10 -23q-2 -3 -30.5 -35.5 t-31.5 -36.5q0 -2 -4.5 -11.5t-5.5 -10.5q-3 -4 -17 -23.5t-21 -32.5t-11 -28zM1776 1690l53 247v11l6 43l12 12q4 -2 4 -12l-65 -303q-1 -4 -4.5 -6.5t-5.5 -0.5v9zM1761 2247q-2 1 -7.5 3.5t-9.5 4.5t-5 2q-62 50 -68 57h-12q-36 -16 -51 -35q-4 -10 -6 -10q-1 -3 -8 -9.5 t-9 -6.5q-1 -1 -14 -1t-19 1q-59 4 -18 90q4 8 12 16q28 21 56 35q69 32 159 -63q7 -1 33.5 -1t34.5 1q3 0 35 16q4 3 27.5 20.5t27.5 20.5h29q2 -4 2 -19.5t-2 -21.5q-1 -6 -12.5 -27.5t-16.5 -27.5q-1 -4 -16.5 -19t-22.5 -20q-2 -2 -22 -12h-80q-13 4 -17 6z" />
<glyph unicode="&#xc4;" horiz-adv-x="1935" d="M1651 -74q-2 2 -22.5 13t-22.5 12q-15 2 -15 4l-22 14l-135 176l-43 82l-58 269v147q0 3 3 29t3 28q6 79 7 84l5 19q5 19 5 22q2 9 4 30t2 24q0 2 3 14.5t3 13.5v62l-18 4h-230q-1 0 -12 -2t-25.5 -4.5t-21.5 -3.5l-17 -7l-243 -321l-357 -340q-13 -7 -51 -35 q-8 -8 -12 -8q-7 -7 -41.5 -27.5t-46.5 -25.5q-3 0 -19.5 -5t-17.5 -6q-3 0 -7.5 -2t-4.5 -4q-7 -1 -47 -8t-47 -8h-80q-11 2 -24 10.5t-19 18.5v10q-1 3 -3.5 9t-3 9t1 7.5t5.5 9.5q36 5 88 20h6l72 16l94 70l6 8l495 531q7 8 7 12v4h-7l-100 -33h-16q-3 0 -19.5 -10.5 t-19.5 -13.5q-3 0 -20.5 -4.5t-18.5 -5.5q-12 -4 -23.5 -9.5t-23.5 -14.5t-18.5 -14t-21.5 -17.5t-20 -16.5q-2 -2 -7 -4t-8.5 -5.5t-6.5 -9.5q-3 -12 3 -44t-3 -44q-6 -10 -21 -11.5t-22 5.5q-7 6 -20.5 18.5t-14.5 16.5q-2 2 -15 28.5t-16 37.5q-12 30 -3 65.5t28 56.5 q61 68 70 68l460 174q2 0 8 0.5t8 1t8 1t8.5 1.5t7.5 2t8 3t6.5 4.5t6.5 6t5 7.5l579 903q11 6 20.5 29.5t14.5 29.5q0 2 15 17q3 2 17 12t17 12q0 -6 7 -6h28q13 0 37 -12q7 -3 13 -7t13 -11t13 -11q2 -1 19.5 -8t19.5 -8l10 -8q2 -4 7 -11t8.5 -12t3.5 -6q1 -5 1 -21.5 t-1 -25.5q-7 -8 -7 -10v-33q0 -8 -11 -68t-11 -61q2 -8 0 -10q0 -2 -5 -9.5t-5 -9.5q-11 -44 -11 -65v-29l-47 -156h7l40 113h7q-2 -7 -12.5 -47t-12.5 -47l-4 -13l4 -6q2 -6 0.5 -10.5t-5.5 -12t-5 -10.5q-2 -3 -9.5 -24.5t-9.5 -24.5v72l-4 -12l-26 -125v-19 q-13 -65 -13 -67l-4 -10q-2 -8 -9 -58.5t-9 -58.5v-17l6 5l43 212v7q6 6 6 24q2 -6 2 -31t-2 -34q-25 -127 -26 -129q2 -9 -7.5 -40.5t-3.5 -47.5q0 -2 3.5 -9t8.5 -15t5 -9q10 -28 2 -55t-31 -46q-4 -4 -16 -4q-7 -10 -7 -12q-2 -6 -9 -42.5t-9 -41.5v-29 q-4 -40 -15.5 -120t-15.5 -123v-45q-1 -4 -6.5 -36t-5.5 -36v-12q-4 -8 -4 -29v-143l24 -101v-4l76 -153l47 -47q51 -34 54 -35q23 -20 11.5 -42t-40.5 -24h-61q-4 0 -19 2t-16 2zM1556 449q0 -7 7 -21l43 391v31q12 72 12 76q0 2 4 15t3.5 22t-7.5 16l-6 -10 q-15 -76 -21 -107v-6q-2 -8 -9 -50t-7 -50q-6 -32 -8 -93.5t-4 -84.5q0 -1 -3.5 -11.5t-3.5 -11.5v-106zM1190 1151v-6h215l51 262q26 29 19 74l30 143v14l-127 -196q-1 0 -5.5 -5t-4.5 -7q-3 -4 -20.5 -30t-20.5 -30q0 -12 -6 -18q0 -13 -10 -23q-2 -3 -30.5 -35.5 t-31.5 -36.5q0 -2 -4.5 -11.5t-5.5 -10.5q-3 -4 -17 -23.5t-21 -32.5t-11 -28zM1776 1690l53 247v11l6 43l12 12q4 -2 4 -12l-65 -303q-1 -4 -4.5 -6.5t-5.5 -0.5v9zM1534 2224q-4 4 -4 6l-35 84q-8 21 18.5 53.5t49.5 26.5q28 -22 45 -57q6 -6 6 -17v-12q0 -1 3 -16.5 t3 -16.5q-1 -1 -4 -9t-7 -18t-7 -14q-7 -14 -31 -15.5t-37 5.5zM1772 2298q-13 20 -17 39q0 17 -6 35q0 14 6 22q12 16 35 39q1 3 7.5 6.5t8.5 3.5q20 0 35 -10q5 -5 17 -29q12 -17 12.5 -45t-2.5 -51q-6 -29 -45 -33q-5 -1 -16 -1t-13 1q-1 0 -5 4.5t-9.5 10.5t-7.5 8z" />
<glyph unicode="&#xc5;" horiz-adv-x="1935" d="M1651 -74q-2 2 -22.5 13t-22.5 12q-15 2 -15 4l-22 14l-135 176l-43 82l-58 269v147q0 3 3 29t3 28q6 79 7 84l5 19q5 19 5 22q2 9 4 30t2 24q0 2 3 14.5t3 13.5v62l-18 4h-230q-1 0 -12 -2t-25.5 -4.5t-21.5 -3.5l-17 -7l-243 -321l-357 -340q-13 -7 -51 -35 q-8 -8 -12 -8q-7 -7 -41.5 -27.5t-46.5 -25.5q-3 0 -19.5 -5t-17.5 -6q-3 0 -7.5 -2t-4.5 -4q-7 -1 -47 -8t-47 -8h-80q-11 2 -24 10.5t-19 18.5v10q-1 3 -3.5 9t-3 9t1 7.5t5.5 9.5q36 5 88 20h6l72 16l94 70l6 8l495 531q7 8 7 12v4h-7l-100 -33h-16q-3 0 -19.5 -10.5 t-19.5 -13.5q-3 0 -20.5 -4.5t-18.5 -5.5q-12 -4 -23.5 -9.5t-23.5 -14.5t-18.5 -14t-21.5 -17.5t-20 -16.5q-2 -2 -7 -4t-8.5 -5.5t-6.5 -9.5q-3 -12 3 -44t-3 -44q-6 -10 -21 -11.5t-22 5.5q-7 6 -20.5 18.5t-14.5 16.5q-2 2 -15 28.5t-16 37.5q-12 30 -3 65.5t28 56.5 q61 68 70 68l460 174q2 0 8 0.5t8 1t8 1t8.5 1.5t7.5 2t8 3t6.5 4.5t6.5 6t5 7.5l579 903q11 6 20.5 29.5t14.5 29.5q0 2 15 17q3 2 17 12t17 12q0 -6 7 -6h28q13 0 37 -12q7 -3 13 -7t13 -11t13 -11q2 -1 19.5 -8t19.5 -8l10 -8q2 -4 7 -11t8.5 -12t3.5 -6q1 -5 1 -21.5 t-1 -25.5q-7 -8 -7 -10v-33q0 -8 -11 -68t-11 -61q2 -8 0 -10q0 -2 -5 -9.5t-5 -9.5q-11 -44 -11 -65v-29l-47 -156h7l40 113h7q-2 -7 -12.5 -47t-12.5 -47l-4 -13l4 -6q2 -6 0.5 -10.5t-5.5 -12t-5 -10.5q-2 -3 -9.5 -24.5t-9.5 -24.5v72l-4 -12l-26 -125v-19 q-13 -65 -13 -67l-4 -10q-2 -8 -9 -58.5t-9 -58.5v-17l6 5l43 212v7q6 6 6 24q2 -6 2 -31t-2 -34q-25 -127 -26 -129q2 -9 -7.5 -40.5t-3.5 -47.5q0 -2 3.5 -9t8.5 -15t5 -9q10 -28 2 -55t-31 -46q-4 -4 -16 -4q-7 -10 -7 -12q-2 -6 -9 -42.5t-9 -41.5v-29 q-4 -40 -15.5 -120t-15.5 -123v-45q-1 -4 -6.5 -36t-5.5 -36v-12q-4 -8 -4 -29v-143l24 -101v-4l76 -153l47 -47q51 -34 54 -35q23 -20 11.5 -42t-40.5 -24h-61q-4 0 -19 2t-16 2zM1556 449q0 -7 7 -21l43 391v31q12 72 12 76q0 2 4 15t3.5 22t-7.5 16l-6 -10 q-15 -76 -21 -107v-6q-2 -8 -9 -50t-7 -50q-6 -32 -8 -93.5t-4 -84.5q0 -1 -3.5 -11.5t-3.5 -11.5v-106zM1190 1151v-6h215l51 262q26 29 19 74l30 143v14l-127 -196q-1 0 -5.5 -5t-4.5 -7q-3 -4 -20.5 -30t-20.5 -30q0 -12 -6 -18q0 -13 -10 -23q-2 -3 -30.5 -35.5 t-31.5 -36.5q0 -2 -4.5 -11.5t-5.5 -10.5q-3 -4 -17 -23.5t-21 -32.5t-11 -28zM1776 1690l53 247v11l6 43l12 12q4 -2 4 -12l-65 -303q-1 -4 -4.5 -6.5t-5.5 -0.5v9zM1663 2148q-33 11 -57 45q-49 65 34 181q4 7 9.5 12.5l9 9t12 9t11 7t13.5 7l13 6.5q18 9 39 6 q5 -1 31.5 -6t31.5 -6q10 -2 15.5 -9t10 -19t7.5 -17q2 -2 10 -6.5t9 -4.5q0 -1 5 -9t5 -9q4 -4 6 -4l39 -86q1 -1 1 -13t-1 -16q-4 -8 -6 -10q-81 -126 -248 -68zM1657 2226q58 -18 96 -10q17 3 36 14t26 25q1 1 1 7t-1 9q0 11 -4.5 37.5t-6.5 32.5q-10 20 -12 22 q-6 1 -27.5 1t-27.5 -1q-16 -8 -41 -28q-37 -33 -45 -58q-10 -39 6 -51z" />
<glyph unicode="&#xc6;" horiz-adv-x="3321" d="M1651 -74q-2 2 -22.5 13t-22.5 12q-15 2 -15 4l-22 14l-135 176l-43 82l-58 269v147q0 3 3 29t3 28q6 79 7 84l5 19q5 19 5 22q2 9 4 30t2 24q0 2 3 14.5t3 13.5v62l-18 4h-230q-1 0 -12 -2t-25.5 -4.5t-21.5 -3.5l-17 -7l-243 -321l-357 -340q-13 -7 -51 -35 q-8 -8 -12 -8q-7 -7 -41.5 -27.5t-46.5 -25.5q-3 0 -19.5 -5t-17.5 -6q-3 0 -7.5 -2t-4.5 -4q-7 -1 -47 -8t-47 -8h-80q-11 2 -24 10.5t-19 18.5v10q-1 3 -3.5 9t-3 9t1 7.5t5.5 9.5q36 5 88 20h6l72 16l94 70l6 8l495 531q7 8 7 12v4h-7l-100 -33h-16q-3 0 -19.5 -10.5 t-19.5 -13.5q-3 0 -20.5 -4.5t-18.5 -5.5q-12 -4 -23.5 -9.5t-23.5 -14.5t-18.5 -14t-21.5 -17.5t-20 -16.5q-2 -2 -7 -4t-8.5 -5.5t-6.5 -9.5q-3 -12 3 -44t-3 -44q-6 -10 -21 -11.5t-22 5.5q-7 6 -20.5 18.5t-14.5 16.5q-2 2 -15 28.5t-16 37.5q-12 30 -3 65.5t28 56.5 q61 68 70 68l460 174q2 0 8 0.5t8 1t8 1t8.5 1.5t7.5 2t8 3t6.5 4.5t6.5 6t5 7.5l579 903q11 6 20.5 29.5t14.5 29.5q0 2 15 17q3 2 17 12t17 12q0 -6 7 -6h28q13 0 37 -12q7 -3 13 -7t13 -11t13 -11q2 -1 19.5 -8t19.5 -8l10 -8q2 -4 7 -11t8.5 -12t3.5 -6q1 -5 1 -21.5 t-1 -25.5q-7 -8 -7 -10v-33q0 -8 -11 -68t-11 -61q2 -8 0 -10q0 -2 -5 -9.5t-5 -9.5q-11 -44 -11 -65v-29l-47 -156h7l40 113h7q-2 -7 -12.5 -47t-12.5 -47l-4 -13l4 -6q2 -6 0.5 -10.5t-5.5 -12t-5 -10.5q-2 -3 -9.5 -24.5t-9.5 -24.5v72l-4 -12l-26 -125v-19 q-13 -65 -13 -67l-4 -10q-2 -8 -9 -58.5t-9 -58.5v-17l6 5l43 212v7q6 6 6 24q2 -6 2 -31t-2 -34q-25 -127 -26 -129q2 -9 -7.5 -40.5t-3.5 -47.5q0 -2 3.5 -9t8.5 -15t5 -9q10 -28 2 -55t-31 -46q-4 -4 -16 -4q-7 -10 -7 -12q-2 -6 -9 -42.5t-9 -41.5v-29 q-4 -40 -15.5 -120t-15.5 -123v-45q-1 -4 -6.5 -36t-5.5 -36v-12q-4 -8 -4 -29v-143l24 -101v-4l76 -153l47 -47q51 -34 54 -35q23 -20 11.5 -42t-40.5 -24h-61q-4 0 -19 2t-16 2zM1556 449q0 -7 7 -21l43 391v31q12 72 12 76q0 2 4 15t3.5 22t-7.5 16l-6 -10 q-15 -76 -21 -107v-6q-2 -8 -9 -50t-7 -50q-6 -32 -8 -93.5t-4 -84.5q0 -1 -3.5 -11.5t-3.5 -11.5v-106zM1190 1151v-6h215l51 262q26 29 19 74l30 143v14l-127 -196q-1 0 -5.5 -5t-4.5 -7q-3 -4 -20.5 -30t-20.5 -30q0 -12 -6 -18q0 -13 -10 -23q-2 -3 -30.5 -35.5 t-31.5 -36.5q0 -2 -4.5 -11.5t-5.5 -10.5q-3 -4 -17 -23.5t-21 -32.5t-11 -28zM1776 1690l53 247v11l6 43l12 12q4 -2 4 -12l-65 -303q-1 -4 -4.5 -6.5t-5.5 -0.5v9zM1987 -123q-54 27 -72 39h2q-19 11 -51 39l-13 16v-4l-24 23q-5 5 -17 55q-9 32 -16 39h-20l-115 -39 l-53 -18v2l-72 -37h2q-12 -8 -31 -8q5 3 -5 6q-8 2 -15 2q6 -1 7.5 -8t-3.5 -11q-13 -11 -31.5 -12t-29.5 14v-4q-6 5 -9 23q-6 0 -12 6q-6 12 -6 20v13l-6 16q4 19 8 23q2 2 4 8q8 21 16 26h-2q10 16 41 52l15 16l284 137v258l58 324q-2 8 2 31q4 16 4 28 q-121 -39 -193 -59h2l-57 -29v2l-39 -20h-8q-4 2 -21 -2h2q-12 -6 -20 -2q-20 7 -37 41q0 4 -4 16l-6 23q-6 15 -6 30l4 -4q-9 14 -2 25q21 56 71 90q12 9 50 31t53 30l176 62q13 13 70 28h-2q15 5 18 5q14 0 14 6l52 178l8 -10l-6 12l2 10q5 11 -13 17l-102 14q-2 0 -8 6 q-7 20 -92 8l-45 19q-34 15 -41 22l-9 6q-2 2 -2 9q0 8 -8 24q-8 27 -8 51l2 -4q-3 11 -3.5 14t2.5 9.5t3 7.5q10 17 10 31q11 18 17 26q2 2 3.5 7t2.5 6l20 20l400 117l16 12l78 209q0 1 1 3t2.5 6.5t2.5 7t2 1.5q2 0 2 2q0 11 10 11l9 2h-9l11 6q17 13 53 8q-3 -5 37 -45 q-3 6 3.5 13t12.5 3q21 -15 36 -36.5t7 -38.5q-1 -2 -6 -7l4 -4l-6 -12v-33q0 -8 -19 -63h31l2 4l15 8h30l774 113q13 0 13 -10q0 4 4 0q2 -2 2 -9q0 -6 4 -14l6 -12v-103q0 -8 -6 -18q-10 -26 -39 -41h4q-4 -4 -24 -4q-3 0 -19 -8h4l-10 -9q-10 -10 -16 -10q-8 -3 -26.5 -2 t-27.5 4q-4 -1 -73 -16l-90 -19q-14 4 -27 0l-10 -8l-29 2h-8q-2 0 -5 -1t-5 -1h-19q-8 -5 -23.5 -11.5t-17.5 -6.5q-4 0 -10 -2q-41 -6 -115 -15l-354 -71q-20 -6 -37.5 -70.5t-7.5 -71.5l321 -45q159 -23 326 -43q19 -14 55 -10h9q24 0 30 -6q21 -25 21 -35l-4 2 q8 -12 4 -20q0 -7 -1 -22.5t-1 -16.5q0 -4 -4 -8l-19 -19v-16q0 -5 -10 -21l4 4q-3 -8 -10 -8h-29l-16 -8q-2 0 -8 -1t-9 -1q-6 -2 -18 -2l-29 -8l2 2q-6 -4 -10 -4l-37 -17l-2 -2h2l-8 -6q-5 -5 -11.5 -2t-6.5 10l-5 15q-8 -1 -25.5 -5.5t-25.5 -5.5l-61 -12l-86 -33h-21 l-438 -90l-45 -182q0 -21 -4 -33l-2 -12v-43q-24 -138 -33 -229q-2 -12 -2 -68q0 -58 2 -68l-2 -10q26 -19 59 -4l11 4h-4q35 10 49 10l198 41h17q6 6 16 6q1 0 33 9l39 8l6 6l633 94l76 -2q19 -4 30 -18v-8l13 -11q10 -31 6 -61q-6 -41 -27 -72l-16 -14l-230 -49l-12 -6 l-65 -17q-3 0 -10.5 1t-10.5 1q-8 4 -20 4q-36 -6 -107 -21.5t-102 -21.5l-211 -41h-13l-313 -71l2 2l-18 -11v-36q0 -17 2 -31l4 -25v-28q0 -3 4 -15v-2l20 -41q-2 6 0 6q2 -1 9 -7q4 -3 6 -5h-2l20 -14l6 -6q32 -29 34 -42q3 -11 -7 -22v2q-11 -16 -23 -20h5 q-47 -16 -127 16zM2292 2075q-7 5 -17 10l-12 6q2 -2 8 -2zM2263 2091l-8 2q2 -2 8 -2zM2783 1165h-2v-2zM2638 1139l55 16h-2l41 12q8 3 12 -7t-4 -13q-6 -2 -20 -2q-39 -4 -54 -15l-167 -30l6 14l2 -8q1 0 3 1t3 1q36 6 51 10l55 12q5 0 19 9zM1878 1425l37 -6l22 -4h9 l-4 -18l-9 6q-6 0 -18 4l-74 18l12 11v-11h25zM1819 1427l-88 33l8 21q16 -7 48 -23.5t48 -23.5l-12 -15q-4 4 -4 8zM2759 1174l2 -23q-12 -4 -25 -4q-8 0 -8.5 9.5t6.5 10.5zM1991 408l18 -9v-2q0 -9 -10 -9t-10 9zM2861 330l27 8q4 1 8 -2t4 -8q0 -60 -43 -17 q-5 4 -3.5 11t7.5 8zM2769 1186l18 4q0 -4 9 -4q7 -3 4 -13t-11 -8q-20 8 -20 21zM2816 1180l-6 -11l-6 15zM2802 1188l-4 -2l6 -2zM2847 1202q-2 -2 -6 -2q-2 -2 -2 -4q3 0 8 1t6 1q53 11 57 37q-54 -27 -63 -33zM2832 1219l13 -15l-4 -4q-7 0 -10.5 6.5t1.5 12.5z M2824 1196h15l-5 -12zM2148 1288v-14h33q86 12 96 18v11q-97 22 -100 22q-5 3 -9 0t-6.5 -2t-5 -3.5t-3.5 -5.5t-2 -6.5t-1.5 -6.5t-1 -6.5t-0.5 -6.5zM2202 1331l4 -4q2 0 6 -1t6 -1q93 -33 143 -25l9 7q2 2 8 2q12 0 20 4l3 1q3 1 7 1v2q-21 5 -66.5 14.5t-66.5 14.5 q-17 14 -43 18q9 2 9 8q-1 6 -25 6q7 -2 6.5 -10t-8.5 -8h-37q-6 -3 -5.5 -11t9.5 -14q17 -4 21 -4zM2425 1325q-3 0 -3 -5t3 -5q5 0 5 5t-5 5zM1694 1495l-4 -4q4 -4 14 -4q-2 8 -10 8zM1886 1540q4 -8 4 -10h2q11 -6 17 -8q19 -13 26 -13q27 -7 41 0q0 2 15 31q0 6 2 8 q0 10 -5.5 18.5t-11.5 8.5l-24 -6q-12 -4 -25 -4l-43 -23h4zM1884 1532l6 -2l2 -2z" />
<glyph unicode="&#xc7;" horiz-adv-x="1490" d="M309 -33l4 -4v2l-65 25h2l-74 28q-10 5 -22 17l-13 12q-32 25 -57 59q-11 14 -35.5 57t-28.5 56q-21 56 -38 127q-12 54 -5 123q5 50 5 72l98 430l338 600q6 6 10 12v-2l12 16q17 17 25 31q15 30 22 37q9 10 59 59.5t62 63.5q1 4 8 16l7 11l192 157l164 72l-4 -4 q9 9 18 12h-4q6 4 29 11.5t31 7.5h34q-3 0 4 6h41q14 0 44.5 -5t41.5 -10q36 -10 52 -20l47 -23l117 -127l4 -18v4q4 -12 8 -18v-86q-2 -13 -25 -129l-88 -211q-2 -1 -3.5 -5t-5 -11t-7.5 -13l-15 -14q-9 -19 -30 -29l6 2q-5 -4 -29 -10t-28 -6q-5 0 -54 14q-8 4 -12 12 q2 -6 4 -6q-20 12 -20 14q-16 11 -25 43v-2q-6 17 -8 27l125 256q14 71 20 125v10q-8 0 -13 4.5t-9 14t-6 12.5l-2 6q-22 4 -35 0l-21 -14l2 2l-39 -25q3 1 -6 -6q-3 -3 -12 -10q-17 -13 -23 -19v2l-14 -14q-4 -6 -32 -24.5t-42 -24.5l-4 -2q-8 -6 -10 -6l-80 -74l-16 -12 q-9 -10 -43.5 -51t-53.5 -60l-12 -10l-10 -12l-86 -82q3 -9 -2 -19q-13 -15 -41.5 -52.5t-32.5 -47.5l-6 -10l-23 -23l-225 -420l-18 -16l-10 -31l-41 -100l2 2l-9 -45q0 -6 -2 -21t-2 -20q-2 -19 -6 -19v-6q0 -1 -14 -127l-4 -8v-18l-6 -52q-13 -80 -13 -102q0 -46 23 -96 q0 -10 18 -37l2 -2l9 -12q5 -5 6 -7l14 -6l14 -4l-4 2l92 -24l162 45l182 96l187 182q7 11 65.5 97t85.5 127q3 6 9 6l4 2q7 4 30.5 7t36.5 1q8 -3 19.5 -12.5t15.5 -16.5l-10 6q18 -18 18 -32l-2 4q0 -24 -14 -47l12 8l-133 -199l-334 -336l-16 -8l6 4l-10 -6l-8 -8 l-31 -15h2l-35 -18q-10 -5 -16 -2q-9 3 -25 -8l-10 -6q-15 -11 -37 -11l-6 -6l-35 -6h2q-24 -6 -31 -6h-49q-8 0 -16 -2l-17 -2h-18q-1 0 -5.5 1t-6.5 1q-54 6 -60 8h2l-2 2zM350 913l-8 2q-2 -2 -4 -2h12zM231 465q7 0 13 6q-6 -6 -13 -6zM573 8l-14 -6l-8 -4l-14 29 q2 0 13.5 -5t12.5 -6l17 -8h-7zM922 256l-23 27q-11 -11 -2 -23l14 -6zM213 479q-6 0 -6 13.5t6 13.5q5 0 5 -13.5t-5 -13.5zM219 504v37q1 0 1 -18.5t-1 -18.5zM236 588q-4 0 -4 14t4 14q6 0 6 -14t-6 -14zM221 616l10 -8l7 15zM244 635l6 -6l-12 -6zM215 614v9l6 -7z M236 604q-1 0 -3.5 -1t-3.5 -1l2 6zM254 641l-21 4l9 -18zM221 649l8 6l4 -10zM244 621h-8l6 6zM289 782l6 15l-21 8l-16 -10q6 10 8 18t8 18q1 3 2.5 4.5t3.5 2.5h1q2 8 10 29.5t12 27.5v4l19 -18q8 0 8 2l-25 -56q-1 -4 -4.5 -15t-6.5 -19.5t-5 -10.5zM238 -408l-7 7 q-1 0 -11 2t-11 2q-8 7 -23.5 22.5t-15.5 18.5v10q33 5 102 22q3 1 39 15.5t45 19.5q2 1 14.5 8.5t14.5 8.5t23 22v6q-17 -1 -42 -13t-42 -10t-35 29q-1 0 -2 4l-2 8t-2 5q0 2 -3 6t-4 4q1 3 6.5 20.5t6.5 20.5q45 91 57 107q7 16 23.5 17t30.5 -6t24 -16q5 -5 7.5 -10 t3.5 -9.5t-0.5 -11t-3 -10.5t-5.5 -11t-5.5 -9.5t-6.5 -9.5t-6 -8q88 -43 108 -125q3 -24 -18 -45q-12 -12 -56 -45q-77 -27 -141 -46q-24 -6 -51 -6q-6 0 -12 6z" />
<glyph unicode="&#xc8;" horiz-adv-x="1902" d="M580 -123q-54 27 -72 39h2q-19 11 -51 39l-13 16v-4l-24 23q-4 4 -16 55q-9 31 -17 39h-20l-115 -39l-53 -18v2l-72 -37h2q-12 -8 -31 -8q5 3 -5 6q-8 2 -15 2q6 -1 7.5 -8t-3.5 -11q-13 -11 -31.5 -12t-29.5 14v-4q-5 5 -9 23q-6 0 -12 6q-6 12 -6 20v13l-6 16 q4 19 8 23q2 2 4 8q8 21 16 26h-2q10 16 41 52l15 16l284 137v258l58 324q-2 8 2 31q4 16 4 28q-122 -39 -193 -59h2l-57 -29v2l-39 -20h-8q-4 2 -21 -2h2q-12 -6 -20 -2q-20 7 -37 41q0 4 -4 16l-6 23q-6 15 -6 30l4 -4q-9 14 -2 25q21 56 71 90q12 9 50 31t53 30l176 62 q13 13 70 28h-2q15 5 18 5q14 0 14 6l52 178l8 -10l-6 12l2 10q5 11 -13 17l-102 14q-2 0 -8 6q-7 20 -92 8l-45 19q-34 15 -41 22l-9 6q-2 2 -2 9q0 8 -8 24q-8 27 -8 51l2 -4q-3 11 -3.5 14t2.5 9.5t3 7.5q10 17 10 31q11 18 17 26q2 2 3.5 7t2.5 6l20 20l400 117l16 12 l78 209q0 1 1 3t2.5 6.5t2.5 7t2 1.5q2 0 2 2q0 11 10 11l9 2h-9l11 6q17 13 53 8q-3 -5 37 -45q-3 6 3.5 13t12.5 3q21 -15 36 -36.5t7 -38.5q-1 -2 -6 -7l4 -4l-6 -12v-33q0 -11 -18 -63h30l2 4l15 8h30l774 113q13 0 13 -10q0 4 4 0q2 -2 2 -9q0 -6 4 -14l6 -12v-103 q0 -8 -6 -18q-10 -26 -39 -41h4q-4 -4 -24 -4q-3 0 -19 -8h4l-10 -9q-10 -10 -16 -10q-8 -3 -26.5 -2t-27.5 4q-4 -1 -73 -16l-90 -19q-14 4 -27 0l-10 -8l-29 2h-8q-2 0 -5 -1t-5 -1h-19q-8 -5 -23.5 -11.5t-17.5 -6.5q-4 0 -10 -2q-41 -6 -115 -15l-354 -71 q-20 -6 -37.5 -70.5t-7.5 -71.5l321 -45q159 -23 326 -43q19 -14 55 -10h9q24 0 30 -6q21 -25 21 -35l-4 2q8 -12 4 -20q0 -7 -1 -22.5t-1 -16.5q0 -4 -4 -8l-19 -19v-16q0 -5 -10 -21l4 4q-3 -8 -10 -8h-29l-16 -8q-2 0 -8 -1t-9 -1q-6 -2 -18 -2l-29 -8l2 2q-6 -4 -10 -4 l-37 -17l-2 -2h2l-8 -6q-4 -5 -11 -2t-7 10l-5 15q-8 -1 -25.5 -5.5t-25.5 -5.5l-61 -12l-86 -33h-21l-438 -90l-45 -182q0 -21 -4 -33l-2 -12v-43q-24 -138 -33 -229q-2 -12 -2 -68q0 -58 2 -68l-2 -10q26 -19 59 -4l11 4h-4q35 10 49 10l198 41h17q6 6 16 6q2 0 33 9l39 8 l6 6l633 94l76 -2q19 -4 30 -18v-8l13 -11q10 -31 6 -61q-6 -41 -27 -72l-16 -14l-230 -49l-12 -6l-65 -17q-3 0 -10.5 1t-10.5 1q-8 4 -20 4q-36 -6 -106.5 -21.5t-102.5 -21.5l-211 -41h-13l-313 -71l2 2l-18 -11v-36q0 -17 2 -31l4 -25v-28q0 -3 4 -15v-2l20 -41 q-2 6 0 6q2 -1 9 -7q4 -3 6 -5h-2l20 -14l6 -6q32 -29 34 -42q3 -11 -7 -22v2q-11 -16 -23 -20h5q-47 -16 -127 16zM885 2075q-7 5 -17 10l-12 6q2 -2 8 -2zM856 2091l-8 2q2 -2 8 -2zM1376 1165h-2v-2zM1231 1139l55 16h-2l41 12q7 3 11 -7t-3 -13q-6 -2 -20 -2 q-38 -4 -53 -15l-168 -30l6 14l2 -8q1 0 3 1t3 1q36 6 51 10l55 12q6 0 19 9zM471 1425l37 -6l22 -4h9l-4 -18l-9 6q-6 0 -18 4l-74 18l12 11v-11h25zM412 1427l-88 33l8 21q17 -7 48.5 -23.5t47.5 -23.5l-12 -15q-4 4 -4 8zM1352 1174l2 -23q-12 -4 -25 -4q-8 0 -8.5 9.5 t6.5 10.5zM584 408l18 -9v-2q0 -9 -10 -9t-10 9zM1454 330l27 8q4 1 8 -2t4 -8q0 -60 -43 -17q-5 4 -3.5 11t7.5 8zM1362 1186l18 4q0 -4 9 -4q7 -3 4 -13t-11 -8q-20 8 -20 21zM1409 1180l-6 -11l-6 15zM1395 1188l-4 -2l6 -2zM1440 1202q-2 -2 -6 -2q-2 -2 -2 -4q4 0 9 1 l5 1q53 11 57 37q-54 -27 -63 -33zM1425 1219l13 -15l-4 -4q-7 0 -10.5 6.5t1.5 12.5zM1417 1196h15l-5 -12zM741 1288v-14h33q86 12 96 18v11q-97 22 -100 22q-5 3 -9 0t-6.5 -2t-5 -3.5t-3.5 -5.5t-2 -6.5t-1.5 -6.5t-1 -6.5t-0.5 -6.5zM795 1331l4 -4q2 0 6 -1t6 -1 q93 -33 143 -25l9 7q2 2 8 2q12 0 20 4q1 0 4 1t6 1v2q-21 5 -66 14.5t-67 14.5q-17 14 -43 18q9 2 9 8q-1 6 -25 6q7 -2 6.5 -10t-8.5 -8h-37q-6 -3 -5.5 -11t9.5 -14q17 -4 21 -4zM1018 1325q-3 0 -3 -5t3 -5q4 0 4 5t-4 5zM287 1495l-4 -4q4 -4 14 -4q-2 8 -10 8z M479 1540q4 -8 4 -10h2q11 -6 17 -8q19 -13 26 -13q27 -7 41 0q1 2 15 31q0 6 2 8q0 10 -5.5 18.5t-11.5 8.5l-24 -6q-12 -4 -25 -4l-43 -23h4zM477 1532l6 -2l2 -2zM946 2183q-18 12 -51 45q-6 7 -42 50.5t-42 50.5v6q4 13 23 41q8 1 23 -3.5t22 -2.5l51 -29q8 -8 53 -54.5 t53 -54.5q2 0 13 -8t12 -8q43 -43 49 -51q3 -3 3 -13.5t-3 -13.5q0 -4 -23 -12q-5 -2 -22 -2t-23 2q-81 46 -96 57z" />
<glyph unicode="&#xc9;" horiz-adv-x="1902" d="M580 -123q-54 27 -72 39h2q-19 11 -51 39l-13 16v-4l-24 23q-4 4 -16 55q-9 31 -17 39h-20l-115 -39l-53 -18v2l-72 -37h2q-12 -8 -31 -8q5 3 -5 6q-8 2 -15 2q6 -1 7.5 -8t-3.5 -11q-13 -11 -31.5 -12t-29.5 14v-4q-5 5 -9 23q-6 0 -12 6q-6 12 -6 20v13l-6 16 q4 19 8 23q2 2 4 8q8 21 16 26h-2q10 16 41 52l15 16l284 137v258l58 324q-2 8 2 31q4 16 4 28q-122 -39 -193 -59h2l-57 -29v2l-39 -20h-8q-4 2 -21 -2h2q-12 -6 -20 -2q-20 7 -37 41q0 4 -4 16l-6 23q-6 15 -6 30l4 -4q-9 14 -2 25q21 56 71 90q12 9 50 31t53 30l176 62 q13 13 70 28h-2q15 5 18 5q14 0 14 6l52 178l8 -10l-6 12l2 10q5 11 -13 17l-102 14q-2 0 -8 6q-7 20 -92 8l-45 19q-34 15 -41 22l-9 6q-2 2 -2 9q0 8 -8 24q-8 27 -8 51l2 -4q-3 11 -3.5 14t2.5 9.5t3 7.5q10 17 10 31q11 18 17 26q2 2 3.5 7t2.5 6l20 20l400 117l16 12 l78 209q0 1 1 3t2.5 6.5t2.5 7t2 1.5q2 0 2 2q0 11 10 11l9 2h-9l11 6q17 13 53 8q-3 -5 37 -45q-3 6 3.5 13t12.5 3q21 -15 36 -36.5t7 -38.5q-1 -2 -6 -7l4 -4l-6 -12v-33q0 -11 -18 -63h30l2 4l15 8h30l774 113q13 0 13 -10q0 4 4 0q2 -2 2 -9q0 -6 4 -14l6 -12v-103 q0 -8 -6 -18q-10 -26 -39 -41h4q-4 -4 -24 -4q-3 0 -19 -8h4l-10 -9q-10 -10 -16 -10q-8 -3 -26.5 -2t-27.5 4q-4 -1 -73 -16l-90 -19q-14 4 -27 0l-10 -8l-29 2h-8q-2 0 -5 -1t-5 -1h-19q-8 -5 -23.5 -11.5t-17.5 -6.5q-4 0 -10 -2q-41 -6 -115 -15l-354 -71 q-20 -6 -37.5 -70.5t-7.5 -71.5l321 -45q159 -23 326 -43q19 -14 55 -10h9q24 0 30 -6q21 -25 21 -35l-4 2q8 -12 4 -20q0 -7 -1 -22.5t-1 -16.5q0 -4 -4 -8l-19 -19v-16q0 -5 -10 -21l4 4q-3 -8 -10 -8h-29l-16 -8q-2 0 -8 -1t-9 -1q-6 -2 -18 -2l-29 -8l2 2q-6 -4 -10 -4 l-37 -17l-2 -2h2l-8 -6q-4 -5 -11 -2t-7 10l-5 15q-8 -1 -25.5 -5.5t-25.5 -5.5l-61 -12l-86 -33h-21l-438 -90l-45 -182q0 -21 -4 -33l-2 -12v-43q-24 -138 -33 -229q-2 -12 -2 -68q0 -58 2 -68l-2 -10q26 -19 59 -4l11 4h-4q35 10 49 10l198 41h17q6 6 16 6q2 0 33 9l39 8 l6 6l633 94l76 -2q19 -4 30 -18v-8l13 -11q10 -31 6 -61q-6 -41 -27 -72l-16 -14l-230 -49l-12 -6l-65 -17q-3 0 -10.5 1t-10.5 1q-8 4 -20 4q-36 -6 -106.5 -21.5t-102.5 -21.5l-211 -41h-13l-313 -71l2 2l-18 -11v-36q0 -17 2 -31l4 -25v-28q0 -3 4 -15v-2l20 -41 q-2 6 0 6q2 -1 9 -7q4 -3 6 -5h-2l20 -14l6 -6q32 -29 34 -42q3 -11 -7 -22v2q-11 -16 -23 -20h5q-47 -16 -127 16zM885 2075q-7 5 -17 10l-12 6q2 -2 8 -2zM856 2091l-8 2q2 -2 8 -2zM1376 1165h-2v-2zM1231 1139l55 16h-2l41 12q7 3 11 -7t-3 -13q-6 -2 -20 -2 q-38 -4 -53 -15l-168 -30l6 14l2 -8q1 0 3 1t3 1q36 6 51 10l55 12q6 0 19 9zM471 1425l37 -6l22 -4h9l-4 -18l-9 6q-6 0 -18 4l-74 18l12 11v-11h25zM412 1427l-88 33l8 21q17 -7 48.5 -23.5t47.5 -23.5l-12 -15q-4 4 -4 8zM1352 1174l2 -23q-12 -4 -25 -4q-8 0 -8.5 9.5 t6.5 10.5zM584 408l18 -9v-2q0 -9 -10 -9t-10 9zM1454 330l27 8q4 1 8 -2t4 -8q0 -60 -43 -17q-5 4 -3.5 11t7.5 8zM1362 1186l18 4q0 -4 9 -4q7 -3 4 -13t-11 -8q-20 8 -20 21zM1409 1180l-6 -11l-6 15zM1395 1188l-4 -2l6 -2zM1440 1202q-2 -2 -6 -2q-2 -2 -2 -4q4 0 9 1 l5 1q53 11 57 37q-54 -27 -63 -33zM1425 1219l13 -15l-4 -4q-7 0 -10.5 6.5t1.5 12.5zM1417 1196h15l-5 -12zM741 1288v-14h33q86 12 96 18v11q-97 22 -100 22q-5 3 -9 0t-6.5 -2t-5 -3.5t-3.5 -5.5t-2 -6.5t-1.5 -6.5t-1 -6.5t-0.5 -6.5zM795 1331l4 -4q2 0 6 -1t6 -1 q93 -33 143 -25l9 7q2 2 8 2q12 0 20 4q1 0 4 1t6 1v2q-21 5 -66 14.5t-67 14.5q-17 14 -43 18q9 2 9 8q-1 6 -25 6q7 -2 6.5 -10t-8.5 -8h-37q-6 -3 -5.5 -11t9.5 -14q17 -4 21 -4zM1018 1325q-3 0 -3 -5t3 -5q4 0 4 5t-4 5zM287 1495l-4 -4q4 -4 14 -4q-2 8 -10 8z M479 1540q4 -8 4 -10h2q11 -6 17 -8q19 -13 26 -13q27 -7 41 0q1 2 15 31q0 6 2 8q0 10 -5.5 18.5t-11.5 8.5l-24 -6q-12 -4 -25 -4l-43 -23h4zM477 1532l6 -2l2 -2zM1090 2101q-16 11 0 51q6 14 34.5 58.5t38.5 54.5q11 16 58.5 65t66.5 66q6 6 27 6q3 -2 20.5 -14 t20.5 -14q4 -4 4 -13q8 -43 -10 -61l-193 -209q-3 -4 -16.5 -6t-18.5 0z" />
<glyph unicode="&#xca;" horiz-adv-x="1902" d="M580 -123q-54 27 -72 39h2q-19 11 -51 39l-13 16v-4l-24 23q-4 4 -16 55q-9 31 -17 39h-20l-115 -39l-53 -18v2l-72 -37h2q-12 -8 -31 -8q5 3 -5 6q-8 2 -15 2q6 -1 7.5 -8t-3.5 -11q-13 -11 -31.5 -12t-29.5 14v-4q-5 5 -9 23q-6 0 -12 6q-6 12 -6 20v13l-6 16 q4 19 8 23q2 2 4 8q8 21 16 26h-2q10 16 41 52l15 16l284 137v258l58 324q-2 8 2 31q4 16 4 28q-122 -39 -193 -59h2l-57 -29v2l-39 -20h-8q-4 2 -21 -2h2q-12 -6 -20 -2q-20 7 -37 41q0 4 -4 16l-6 23q-6 15 -6 30l4 -4q-9 14 -2 25q21 56 71 90q12 9 50 31t53 30l176 62 q13 13 70 28h-2q15 5 18 5q14 0 14 6l52 178l8 -10l-6 12l2 10q5 11 -13 17l-102 14q-2 0 -8 6q-7 20 -92 8l-45 19q-34 15 -41 22l-9 6q-2 2 -2 9q0 8 -8 24q-8 27 -8 51l2 -4q-3 11 -3.5 14t2.5 9.5t3 7.5q10 17 10 31q11 18 17 26q2 2 3.5 7t2.5 6l20 20l400 117l16 12 l78 209q0 1 1 3t2.5 6.5t2.5 7t2 1.5q2 0 2 2q0 11 10 11l9 2h-9l11 6q17 13 53 8q-3 -5 37 -45q-3 6 3.5 13t12.5 3q21 -15 36 -36.5t7 -38.5q-1 -2 -6 -7l4 -4l-6 -12v-33q0 -11 -18 -63h30l2 4l15 8h30l774 113q13 0 13 -10q0 4 4 0q2 -2 2 -9q0 -6 4 -14l6 -12v-103 q0 -8 -6 -18q-10 -26 -39 -41h4q-4 -4 -24 -4q-3 0 -19 -8h4l-10 -9q-10 -10 -16 -10q-8 -3 -26.5 -2t-27.5 4q-4 -1 -73 -16l-90 -19q-14 4 -27 0l-10 -8l-29 2h-8q-2 0 -5 -1t-5 -1h-19q-8 -5 -23.5 -11.5t-17.5 -6.5q-4 0 -10 -2q-41 -6 -115 -15l-354 -71 q-20 -6 -37.5 -70.5t-7.5 -71.5l321 -45q159 -23 326 -43q19 -14 55 -10h9q24 0 30 -6q21 -25 21 -35l-4 2q8 -12 4 -20q0 -7 -1 -22.5t-1 -16.5q0 -4 -4 -8l-19 -19v-16q0 -5 -10 -21l4 4q-3 -8 -10 -8h-29l-16 -8q-2 0 -8 -1t-9 -1q-6 -2 -18 -2l-29 -8l2 2q-6 -4 -10 -4 l-37 -17l-2 -2h2l-8 -6q-4 -5 -11 -2t-7 10l-5 15q-8 -1 -25.5 -5.5t-25.5 -5.5l-61 -12l-86 -33h-21l-438 -90l-45 -182q0 -21 -4 -33l-2 -12v-43q-24 -138 -33 -229q-2 -12 -2 -68q0 -58 2 -68l-2 -10q26 -19 59 -4l11 4h-4q35 10 49 10l198 41h17q6 6 16 6q2 0 33 9l39 8 l6 6l633 94l76 -2q19 -4 30 -18v-8l13 -11q10 -31 6 -61q-6 -41 -27 -72l-16 -14l-230 -49l-12 -6l-65 -17q-3 0 -10.5 1t-10.5 1q-8 4 -20 4q-36 -6 -106.5 -21.5t-102.5 -21.5l-211 -41h-13l-313 -71l2 2l-18 -11v-36q0 -17 2 -31l4 -25v-28q0 -3 4 -15v-2l20 -41 q-2 6 0 6q2 -1 9 -7q4 -3 6 -5h-2l20 -14l6 -6q32 -29 34 -42q3 -11 -7 -22v2q-11 -16 -23 -20h5q-47 -16 -127 16zM885 2075q-7 5 -17 10l-12 6q2 -2 8 -2zM856 2091l-8 2q2 -2 8 -2zM1376 1165h-2v-2zM1231 1139l55 16h-2l41 12q7 3 11 -7t-3 -13q-6 -2 -20 -2 q-38 -4 -53 -15l-168 -30l6 14l2 -8q1 0 3 1t3 1q36 6 51 10l55 12q6 0 19 9zM471 1425l37 -6l22 -4h9l-4 -18l-9 6q-6 0 -18 4l-74 18l12 11v-11h25zM412 1427l-88 33l8 21q17 -7 48.5 -23.5t47.5 -23.5l-12 -15q-4 4 -4 8zM1352 1174l2 -23q-12 -4 -25 -4q-8 0 -8.5 9.5 t6.5 10.5zM584 408l18 -9v-2q0 -9 -10 -9t-10 9zM1454 330l27 8q4 1 8 -2t4 -8q0 -60 -43 -17q-5 4 -3.5 11t7.5 8zM1362 1186l18 4q0 -4 9 -4q7 -3 4 -13t-11 -8q-20 8 -20 21zM1409 1180l-6 -11l-6 15zM1395 1188l-4 -2l6 -2zM1440 1202q-2 -2 -6 -2q-2 -2 -2 -4q4 0 9 1 l5 1q53 11 57 37q-54 -27 -63 -33zM1425 1219l13 -15l-4 -4q-7 0 -10.5 6.5t1.5 12.5zM1417 1196h15l-5 -12zM741 1288v-14h33q86 12 96 18v11q-97 22 -100 22q-5 3 -9 0t-6.5 -2t-5 -3.5t-3.5 -5.5t-2 -6.5t-1.5 -6.5t-1 -6.5t-0.5 -6.5zM795 1331l4 -4q2 0 6 -1t6 -1 q93 -33 143 -25l9 7q2 2 8 2q12 0 20 4q1 0 4 1t6 1v2q-21 5 -66 14.5t-67 14.5q-17 14 -43 18q9 2 9 8q-1 6 -25 6q7 -2 6.5 -10t-8.5 -8h-37q-6 -3 -5.5 -11t9.5 -14q17 -4 21 -4zM1018 1325q-3 0 -3 -5t3 -5q4 0 4 5t-4 5zM287 1495l-4 -4q4 -4 14 -4q-2 8 -10 8z M479 1540q4 -8 4 -10h2q11 -6 17 -8q19 -13 26 -13q27 -7 41 0q1 2 15 31q0 6 2 8q0 10 -5.5 18.5t-11.5 8.5l-24 -6q-12 -4 -25 -4l-43 -23h4zM477 1532l6 -2l2 -2zM1079 2167q-4 2 -14 9t-18 12t-9 5l-77 103l-13 6q-30 -53 -61 -96q-13 -19 -41 -34t-49 -11q-27 3 -45 28 l-13 17l131 209l23 61q2 8 22 18q39 15 74 -28q59 -155 141 -260q0 -1 2.5 -8.5t2.5 -8.5q0 -31 -18 -34.5t-38 12.5z" />
<glyph unicode="&#xcb;" horiz-adv-x="1902" d="M580 -123q-54 27 -72 39h2q-19 11 -51 39l-13 16v-4l-24 23q-4 4 -16 55q-9 31 -17 39h-20l-115 -39l-53 -18v2l-72 -37h2q-12 -8 -31 -8q5 3 -5 6q-8 2 -15 2q6 -1 7.5 -8t-3.5 -11q-13 -11 -31.5 -12t-29.5 14v-4q-5 5 -9 23q-6 0 -12 6q-6 12 -6 20v13l-6 16 q4 19 8 23q2 2 4 8q8 21 16 26h-2q10 16 41 52l15 16l284 137v258l58 324q-2 8 2 31q4 16 4 28q-122 -39 -193 -59h2l-57 -29v2l-39 -20h-8q-4 2 -21 -2h2q-12 -6 -20 -2q-20 7 -37 41q0 4 -4 16l-6 23q-6 15 -6 30l4 -4q-9 14 -2 25q21 56 71 90q12 9 50 31t53 30l176 62 q13 13 70 28h-2q15 5 18 5q14 0 14 6l52 178l8 -10l-6 12l2 10q5 11 -13 17l-102 14q-2 0 -8 6q-7 20 -92 8l-45 19q-34 15 -41 22l-9 6q-2 2 -2 9q0 8 -8 24q-8 27 -8 51l2 -4q-3 11 -3.5 14t2.5 9.5t3 7.5q10 17 10 31q11 18 17 26q2 2 3.5 7t2.5 6l20 20l400 117l16 12 l78 209q0 1 1 3t2.5 6.5t2.5 7t2 1.5q2 0 2 2q0 11 10 11l9 2h-9l11 6q17 13 53 8q-3 -5 37 -45q-3 6 3.5 13t12.5 3q21 -15 36 -36.5t7 -38.5q-1 -2 -6 -7l4 -4l-6 -12v-33q0 -11 -18 -63h30l2 4l15 8h30l774 113q13 0 13 -10q0 4 4 0q2 -2 2 -9q0 -6 4 -14l6 -12v-103 q0 -8 -6 -18q-10 -26 -39 -41h4q-4 -4 -24 -4q-3 0 -19 -8h4l-10 -9q-10 -10 -16 -10q-8 -3 -26.5 -2t-27.5 4q-4 -1 -73 -16l-90 -19q-14 4 -27 0l-10 -8l-29 2h-8q-2 0 -5 -1t-5 -1h-19q-8 -5 -23.5 -11.5t-17.5 -6.5q-4 0 -10 -2q-41 -6 -115 -15l-354 -71 q-20 -6 -37.5 -70.5t-7.5 -71.5l321 -45q159 -23 326 -43q19 -14 55 -10h9q24 0 30 -6q21 -25 21 -35l-4 2q8 -12 4 -20q0 -7 -1 -22.5t-1 -16.5q0 -4 -4 -8l-19 -19v-16q0 -5 -10 -21l4 4q-3 -8 -10 -8h-29l-16 -8q-2 0 -8 -1t-9 -1q-6 -2 -18 -2l-29 -8l2 2q-6 -4 -10 -4 l-37 -17l-2 -2h2l-8 -6q-4 -5 -11 -2t-7 10l-5 15q-8 -1 -25.5 -5.5t-25.5 -5.5l-61 -12l-86 -33h-21l-438 -90l-45 -182q0 -21 -4 -33l-2 -12v-43q-24 -138 -33 -229q-2 -12 -2 -68q0 -58 2 -68l-2 -10q26 -19 59 -4l11 4h-4q35 10 49 10l198 41h17q6 6 16 6q2 0 33 9l39 8 l6 6l633 94l76 -2q19 -4 30 -18v-8l13 -11q10 -31 6 -61q-6 -41 -27 -72l-16 -14l-230 -49l-12 -6l-65 -17q-3 0 -10.5 1t-10.5 1q-8 4 -20 4q-36 -6 -106.5 -21.5t-102.5 -21.5l-211 -41h-13l-313 -71l2 2l-18 -11v-36q0 -17 2 -31l4 -25v-28q0 -3 4 -15v-2l20 -41 q-2 6 0 6q2 -1 9 -7q4 -3 6 -5h-2l20 -14l6 -6q32 -29 34 -42q3 -11 -7 -22v2q-11 -16 -23 -20h5q-47 -16 -127 16zM885 2075q-7 5 -17 10l-12 6q2 -2 8 -2zM856 2091l-8 2q2 -2 8 -2zM1376 1165h-2v-2zM1231 1139l55 16h-2l41 12q7 3 11 -7t-3 -13q-6 -2 -20 -2 q-38 -4 -53 -15l-168 -30l6 14l2 -8q1 0 3 1t3 1q36 6 51 10l55 12q6 0 19 9zM471 1425l37 -6l22 -4h9l-4 -18l-9 6q-6 0 -18 4l-74 18l12 11v-11h25zM412 1427l-88 33l8 21q17 -7 48.5 -23.5t47.5 -23.5l-12 -15q-4 4 -4 8zM1352 1174l2 -23q-12 -4 -25 -4q-8 0 -8.5 9.5 t6.5 10.5zM584 408l18 -9v-2q0 -9 -10 -9t-10 9zM1454 330l27 8q4 1 8 -2t4 -8q0 -60 -43 -17q-5 4 -3.5 11t7.5 8zM1362 1186l18 4q0 -4 9 -4q7 -3 4 -13t-11 -8q-20 8 -20 21zM1409 1180l-6 -11l-6 15zM1395 1188l-4 -2l6 -2zM1440 1202q-2 -2 -6 -2q-2 -2 -2 -4q4 0 9 1 l5 1q53 11 57 37q-54 -27 -63 -33zM1425 1219l13 -15l-4 -4q-7 0 -10.5 6.5t1.5 12.5zM1417 1196h15l-5 -12zM741 1288v-14h33q86 12 96 18v11q-97 22 -100 22q-5 3 -9 0t-6.5 -2t-5 -3.5t-3.5 -5.5t-2 -6.5t-1.5 -6.5t-1 -6.5t-0.5 -6.5zM795 1331l4 -4q2 0 6 -1t6 -1 q93 -33 143 -25l9 7q2 2 8 2q12 0 20 4q1 0 4 1t6 1v2q-21 5 -66 14.5t-67 14.5q-17 14 -43 18q9 2 9 8q-1 6 -25 6q7 -2 6.5 -10t-8.5 -8h-37q-6 -3 -5.5 -11t9.5 -14q17 -4 21 -4zM1018 1325q-3 0 -3 -5t3 -5q4 0 4 5t-4 5zM287 1495l-4 -4q4 -4 14 -4q-2 8 -10 8z M479 1540q4 -8 4 -10h2q11 -6 17 -8q19 -13 26 -13q27 -7 41 0q1 2 15 31q0 6 2 8q0 10 -5.5 18.5t-11.5 8.5l-24 -6q-12 -4 -25 -4l-43 -23h4zM477 1532l6 -2l2 -2zM950 2142q-4 4 -4 6l-35 84q-8 21 18.5 53.5t49.5 26.5q28 -22 45 -57q6 -6 6 -17v-12q0 -1 3 -16.5 t3 -16.5q-1 -1 -4 -9t-7 -18t-7 -14q-7 -14 -31 -15.5t-37 5.5zM1188 2216q-13 20 -17 39q0 17 -6 35q0 14 6 22q12 16 35 39q1 3 8 6.5t9 3.5q19 0 34 -10q5 -5 17 -29q12 -17 12.5 -45t-2.5 -51q-6 -29 -45 -33q-5 -1 -16 -1t-13 1q-1 0 -5 4.5t-9.5 10.5t-7.5 8z" />
<glyph unicode="&#xcc;" d="M-121 -242l-24 15l-15 8l-16 20l-8 15l-13 24q-4 16 7 23l268 205q0 4 6 10l78 78q15 26 69.5 120t85.5 144v-2l62 153l37 58q2 4 14 8l-12 -4l47 164q0 1 4 9.5t4 12.5l43 139v27l66 438v148q-4 32 -4 74q-2 10 -8.5 30.5t-8.5 30.5q-3 12 -9 40l-9 38l2 -6 q-10 15 -25 30l-10 -6l-31 -10l-2 -2l-20 -16l-21 -17q-4 -2 -18 -2v-2l2 2q-55 -48 -55 -51q-31 -52 -31 -66q0 -15 -12 -18q-20 -80 -25 -119q0 -1 -4 -51q-2 -26 -5 -78t-3 -59v-53q-1 -3 -2 -3q11 -34 -2 -57q-39 -55 -86 -41q-15 4 -15 21v108q0 15 2 25l4 16v53l4 17 v51q0 8 -2 14l-2 4v29l7 31l4 12q0 33 6 57l78 189l-2 -6q0 7 10 22q141 187 307 150q15 -4 38.5 -16.5t31.5 -24.5l-2 2l90 -103q27 -31 30 -88q3 -39 17 -59q7 -61 20 -107q8 -48 4 -118q-1 -26 -3 -79.5t-3.5 -93.5t-1.5 -42l-65 -310l-156 -434l-16 -16l2 2 q-21 -40 -84 -154q-15 -9 -19 -28q-1 -3 -4 -13.5t-5 -15.5t-7.5 -12.5t-13.5 -12.5l-19 -45l2 4l-10 -28l-21 -23l-8 -8q-1 -6 -9.5 -21t-10.5 -20v2l-17 -33l-96 -100l-242 -168l-6 -6l-90 -35q-1 0 -9.5 2t-19 4.5t-14.5 3.5zM315 1618l-6 -4l8 4h-2zM465 2126 q-18 12 -51 45q-6 7 -42 50t-42 50v6q5 16 22 41q8 1 23 -3.5t22 -2.5l52 -28q8 -8 53 -54.5t53 -54.5q2 0 13 -8t12 -8q40 -40 49 -52q3 -3 3 -13t-3 -13q0 -5 -23 -13q-4 -2 -21.5 -2t-23.5 2q-74 42 -96 58z" />
<glyph unicode="&#xcd;" d="M-121 -242l-24 15l-15 8l-16 20l-8 15l-13 24q-4 16 7 23l268 205q0 4 6 10l78 78q15 26 69.5 120t85.5 144v-2l62 153l37 58q2 4 14 8l-12 -4l47 164q0 1 4 9.5t4 12.5l43 139v27l66 438v148q-4 32 -4 74q-2 10 -8.5 30.5t-8.5 30.5q-3 12 -9 40l-9 38l2 -6 q-10 15 -25 30l-10 -6l-31 -10l-2 -2l-20 -16l-21 -17q-4 -2 -18 -2v-2l2 2q-55 -48 -55 -51q-31 -52 -31 -66q0 -15 -12 -18q-20 -80 -25 -119q0 -1 -4 -51q-2 -26 -5 -78t-3 -59v-53q-1 -3 -2 -3q11 -34 -2 -57q-39 -55 -86 -41q-15 4 -15 21v108q0 15 2 25l4 16v53l4 17 v51q0 8 -2 14l-2 4v29l7 31l4 12q0 33 6 57l78 189l-2 -6q0 7 10 22q141 187 307 150q15 -4 38.5 -16.5t31.5 -24.5l-2 2l90 -103q27 -31 30 -88q3 -39 17 -59q7 -61 20 -107q8 -48 4 -118q-1 -26 -3 -79.5t-3.5 -93.5t-1.5 -42l-65 -310l-156 -434l-16 -16l2 2 q-21 -40 -84 -154q-15 -9 -19 -28q-1 -3 -4 -13.5t-5 -15.5t-7.5 -12.5t-13.5 -12.5l-19 -45l2 4l-10 -28l-21 -23l-8 -8q-1 -6 -9.5 -21t-10.5 -20v2l-17 -33l-96 -100l-242 -168l-6 -6l-90 -35q-1 0 -9.5 2t-19 4.5t-14.5 3.5zM315 1618l-6 -4l8 4h-2zM565 2091 q-16 11 0 51q6 14 35 58.5t39 54.5q11 16 58.5 65t66.5 66q6 6 27 6q3 -2 20 -14.5t20 -14.5q5 -5 5 -12q8 -42 -11 -61l-192 -209q-3 -4 -16.5 -6t-18.5 0q-2 1 -16.5 8t-16.5 8z" />
<glyph unicode="&#xce;" d="M-121 -242l-24 15l-15 8l-16 20l-8 15l-13 24q-4 16 7 23l268 205q0 4 6 10l78 78q15 26 69.5 120t85.5 144v-2l62 153l37 58q2 4 14 8l-12 -4l47 164q0 1 4 9.5t4 12.5l43 139v27l66 438v148q-4 32 -4 74q-2 10 -8.5 30.5t-8.5 30.5q-3 12 -9 40l-9 38l2 -6 q-10 15 -25 30l-10 -6l-31 -10l-2 -2l-20 -16l-21 -17q-4 -2 -18 -2v-2l2 2q-55 -48 -55 -51q-31 -52 -31 -66q0 -15 -12 -18q-20 -80 -25 -119q0 -1 -4 -51q-2 -26 -5 -78t-3 -59v-53q-1 -3 -2 -3q11 -34 -2 -57q-39 -55 -86 -41q-15 4 -15 21v108q0 15 2 25l4 16v53l4 17 v51q0 8 -2 14l-2 4v29l7 31l4 12q0 33 6 57l78 189l-2 -6q0 7 10 22q141 187 307 150q15 -4 38.5 -16.5t31.5 -24.5l-2 2l90 -103q27 -31 30 -88q3 -39 17 -59q7 -61 20 -107q8 -48 4 -118q-1 -26 -3 -79.5t-3.5 -93.5t-1.5 -42l-65 -310l-156 -434l-16 -16l2 2 q-21 -40 -84 -154q-15 -9 -19 -28q-1 -3 -4 -13.5t-5 -15.5t-7.5 -12.5t-13.5 -12.5l-19 -45l2 4l-10 -28l-21 -23l-8 -8q-1 -6 -9.5 -21t-10.5 -20v2l-17 -33l-96 -100l-242 -168l-6 -6l-90 -35q-1 0 -9.5 2t-19 4.5t-14.5 3.5zM315 1618l-6 -4l8 4h-2zM674 2009 q-4 2 -14 9t-18 12.5t-9 5.5l-78 102l-12 6q-26 -46 -62 -96q-13 -19 -41 -34t-49 -11q-26 3 -45 29l-12 16l131 209l22 61q2 9 23 19q39 15 74 -29q59 -155 141 -260q0 -1 2 -8t2 -8q0 -31 -17.5 -35t-37.5 12z" />
<glyph unicode="&#xcf;" d="M-121 -242l-24 15l-15 8l-16 20l-8 15l-13 24q-4 16 7 23l268 205q0 4 6 10l78 78q15 26 69.5 120t85.5 144v-2l62 153l37 58q2 4 14 8l-12 -4l47 164q0 1 4 9.5t4 12.5l43 139v27l66 438v148q-4 32 -4 74q-2 10 -8.5 30.5t-8.5 30.5q-3 12 -9 40l-9 38l2 -6 q-10 15 -25 30l-10 -6l-31 -10l-2 -2l-20 -16l-21 -17q-4 -2 -18 -2v-2l2 2q-55 -48 -55 -51q-31 -52 -31 -66q0 -15 -12 -18q-20 -80 -25 -119q0 -1 -4 -51q-2 -26 -5 -78t-3 -59v-53q-1 -3 -2 -3q11 -34 -2 -57q-39 -55 -86 -41q-15 4 -15 21v108q0 15 2 25l4 16v53l4 17 v51q0 8 -2 14l-2 4v29l7 31l4 12q0 33 6 57l78 189l-2 -6q0 7 10 22q141 187 307 150q15 -4 38.5 -16.5t31.5 -24.5l-2 2l90 -103q27 -31 30 -88q3 -39 17 -59q7 -61 20 -107q8 -48 4 -118q-1 -26 -3 -79.5t-3.5 -93.5t-1.5 -42l-65 -310l-156 -434l-16 -16l2 2 q-21 -40 -84 -154q-15 -9 -19 -28q-1 -3 -4 -13.5t-5 -15.5t-7.5 -12.5t-13.5 -12.5l-19 -45l2 4l-10 -28l-21 -23l-8 -8q-1 -6 -9.5 -21t-10.5 -20v2l-17 -33l-96 -100l-242 -168l-6 -6l-90 -35q-1 0 -9.5 2t-19 4.5t-14.5 3.5zM315 1618l-6 -4l8 4h-2zM317 2025q-4 5 -4 7 l-34 84q-8 21 18 53t49 26q28 -22 45 -57q6 -6 6 -16v-13q0 -1 3 -16t3 -16q-1 -1 -4 -9t-7 -18t-7 -14q-7 -14 -31 -16t-37 5zM555 2099q-12 18 -16 39q0 14 -7 35q0 13 7 22q15 20 34 39q1 3 8 7t9 4q18 0 35 -11q4 -4 16 -28q12 -17 12.5 -45.5t-2.5 -51.5 q-6 -28 -45 -32q-4 -1 -15 -1t-13 1q-1 0 -23 22z" />
<glyph unicode="&#xd0;" horiz-adv-x="1857" d="M274 -61q-15 5 -53.5 23.5t-46.5 25.5q-12 12 -54.5 60.5t-53.5 62.5q-57 102 -62 120q0 5 -4.5 21t-7.5 20l-6 7q-9 16 -9 37t4 35t13 40h-2q2 4 6 21l6 16q0 6 12 12q7 4 20 17t17 16q34 38 68 49q53 13 94 -8q10 -5 25 -35l6 -14q0 -64 -17 -86l-28 -35l-13 -55v-13 l7 -38l43 -76q0 -5 57 -25q10 0 22 -4l33 -8q4 0 16 -1t19 -1q23 -2 59 -2h54q32 3 96 16q21 6 65.5 23t47.5 20l331 266l348 539l107 309q0 35 2 43q2 4 2 19q-3 23 -9.5 90.5t-6.5 79.5v53q0 4 -4 20v3l-84 161l-7 4q-7 7 -51 36t-61 36q-4 3 -35.5 13t-40.5 12 q-5 5 -19.5 12t-15.5 8q-2 0 -10.5 2.5t-13.5 3.5h-43q-17 0 -23 2l-10 4q-16 -12 -25 -12q-4 -2 -24 -2t-29 2l-119 -33q-4 -2 -9 -6t-9 -6l-25 -10h4q-44 -25 -127 -73.5t-116 -67.5l-15 -9l6 2l-34 -20q-17 -10 -49 -31l-29 -28l-35 -17q-6 -6 -6 -2q0 -20 -21 -20l-4 -7 l-14 -14l-4 -8v2l-4 -12l-6 -11q-1 -3 -2.5 -8.5t-3 -9t-1.5 -4.5v-57q0 -4 23 -50l-2 5q62 -52 51 -72l-39 -62q-8 -8 -14 -8h-25q-14 1 -27.5 6.5t-19.5 9t-26 17.5q-130 112 -111 209q5 30 17.5 84.5t15.5 68.5l28 46l211 176q23 11 37 28l287 150l236 61q32 4 57 -2 q24 -4 39 -4l153 -29l238 -120l127 -121q7 -7 32 -43.5t31 -48.5l35 -103q0 -2 6 -8q5 -14 14.5 -68.5t10.5 -76.5q3 -21 2 -68.5t-4 -58.5l2 2l-37 -168l-111 -242l-12 -16l-47 -125l-207 -332q-5 -3 -10 -14l-270 -291l-232 -166q-13 -3 -24 -18q-12 -5 -101 -35v2 q-48 -12 -57 -12q-10 -7 -12 -7q-5 -1 -25.5 -4t-39 -5.5t-25.5 -2.5h-185q-8 0 -37.5 8t-40.5 13zM403 1569q0 -1 -1 -3t-1 -3q2 2 2 6zM598 -47q-3 0 -3 14.5t3 14.5t3 -14.5t-3 -14.5zM608 -47v33h8l80 20l15 6q11 0 26 6l25 11q40 16 57 43l15 -33q2 -2 0 -2h2 q-20 -10 -31 -10q-13 -15 -17 -15l-16 -10q-20 -9 -45 -12q-24 -3 -43 -13q-2 5 -2 7q-4 -19 -18 -19l-8 -1q-9 -1 -15 -1q-16 -4 -20 -4q-12 -6 -13 -6zM879 66v-3l-31 17l98 59l-4 -2q34 31 100.5 94.5t100.5 94.5l360 534v8l37 -10l-201 -323v2q-6 -12 -28 -25 q-12 -4 -17 -16l-207 -258q-11 -16 -30 -25q-9 -5 -15 -14l-8 -11q-6 -6 -14 -6q-1 0 -5 -2t-5 -2zM569 201v2q-25 8 -45.5 22t-32.5 26.5t-30 33.5l-17 16l-18 29q-6 16 -8 22q-4 12 -4 19q0 -1 -6 6q0 1 -1 6t-1 8l-5 47q-6 6 -6 15v114l47 344l193 586l37 72v4q0 2 1 8.5 t1 7.5l86 131l-2 -6q4 8 18.5 22t22.5 19l-2 -2q28 18 77 -7.5t60 -59.5v2q2 -3 5 -22.5t3 -25.5q-25 -112 -92 -221q0 -7 -12 -37v-2l-17 -65l-30 -105q1 -5 -0.5 -9.5t-3 -7.5t-5 -8t-4.5 -7l2 2l-67 -242q-7 -7 0 -27l-54 -219q2 -13 -6 -45v2l-4 -16l-4 -29 q-21 -176 -18 -248q4 -25 16 -41q3 -4 13.5 -14.5t15.5 -13.5q12 -11 7 -46.5t-24 -45.5q-53 -3 -86 6zM625 627q0 6 7.5 48t10.5 54v8l31 164q0 7 12 35l-2 -2l86 291l8 14q8 21 21 30.5t26 -1.5q6 -6 6 -15q0 -3 -4 -20t-4 -21q-2 -10 -12 -24v2q0 -1 -1 -2t-1 -2l2 2 q-2 0 -2 -2q-25 -75 -29 -107q-4 -12 -8 -14q-6 -23 -28.5 -106.5t-32.5 -127.5v-8l-39 -219l-13 -12q-11 -10 -22.5 -5t-11.5 19v21zM250 819q-71 27 -100.5 58t-20.5 73q0 3 5 8t9 5l746 57h155q9 -10 9 -16v-11q3 -1 7.5 -10.5t4.5 -11.5q0 -3 -4.5 -5.5t-7.5 -2.5 q-6 -4 -15 -20.5t-20 -20.5q-3 0 -23.5 -5t-23.5 -6q-6 -2 -29 -14t-41 -14l-557 -70q-11 -2 -47 -0.5t-47 6.5z" />
<glyph unicode="&#xd1;" horiz-adv-x="1456" d="M852 -203q-9 0 -33 19l4 -4q-17 8 -26 20l-23 21q-11 17 -16 33.5t-5.5 26t-0.5 34.5v80v-2q54 169 117.5 425.5t109.5 451.5t120.5 419.5t160.5 382.5l-222 -242v2l-4 -10q-56 -56 -65 -74q-99 -147 -99 -155v-23l-309 -567v2l-12 -29q-10 -20 -10 -28q-2 -10 -17 -25 l15 8l-13 -22l2 2q-8 -12 -10 -25q-69 -124 -88 -168q-12 -24 -25 -71l-12 -41v4q-3 -13 -29 -45l9 8q-3 -9 -8.5 -27.5t-6.5 -23.5q-17 -57 -28 -80v2l-13 -31q-28 -53 -49 -78l-35 -24q-2 6 -2 10q-3 -16 -20 -16q1 0 1 -1.5t-1 -3.5q-17 -10 -23 -10q-12 -6 -22 -6h-43 q-7 0 -15 8q-70 25 -106 68l-14 53l-11 39q-1 9 -1 51.5t1 61.5q7 52 19 96v10l98 426q0 14 6 29q-3 -3 -4 0l238 792l8 13l12 18l51 127q0 1 7 8q7 10 18 10q10 5 16 9l7 2q19 14 30 14q23 -10 27 -14t10 -4q63 -23 86 -54q20 -40 23 -49q4 -31 0 -53q-1 -2 -15 -31 l-237 -813l375 680q56 102 129 191t146 150.5t145.5 104t135 59.5t107.5 9q15 -4 21 -6h10q70 -35 90 -69.5t10 -116.5q-1 -13 -16 -40.5t-44.5 -91t-67.5 -160t-96 -282.5t-120 -424q-3 -8 -7 -25t-7 -29.5t-4 -14.5l2 6q-2 -15 -4 -23l-2 -10q-4 -10 -18.5 -73t-16.5 -76 q-6 -8 -23 -50v-24q0 -3 -3.5 -13.5t-6.5 -13.5l-29 -63h2l-88 -320q25 14 43 8l13 -10l10 -8q6 -6 6 -14q0 -9 -6 -21v-4q3 1 8 -8l4 -14q0 -64 -26 -82q-10 -8 -33 -23.5t-25 -15.5q-6 -4 -23 -11.5t-22 -7.5h-92zM424 471l-53 -172l420 852l-121 -203v-22zM1337 1790 q-30 -3 -16 -21q0 5 2 7q4 11 14 14zM1169 1700v-2l13 -6v12q-13 0 -13 -4zM420 1720l-2 -2q0 2 2 2zM958 37q-4 -35 -9 -71l-2 -22l1 1l23 -33q-22 -13 -38 3.5t-13 43.5l155 524q-2 19 4 45l6 25v27q7 12 11 18l-2 -4l4 4q0 10 4 10q-2 -1 -1.5 -7t3.5 -7l24 12l-10 -20h2 l-125 -455v4q-1 -4 -3.5 -8.5t-4.5 -6.5l-2 -3v-13q-6 -16 -10 -28q-5 -9 -13 -30zM150 -43l22 16q-10 4 -16 -1t-6 -15zM1147 643l-12 -25l-5 15q-8 -4 -12 0l10 4l-2 8q7 -3 7 -8zM1139 670q-5 0 -5 14t5 14t5 -14t-5 -14zM1139 680q-5 0 -5 14.5t5 14.5t5 -14.5t-5 -14.5 zM1171 737l-41 -6q0 5 7 19l1 2q1 2 1 6l26 -17q6 3 6 -4zM1176 793q-3 0 -3 14t3 14q4 0 4 -14t-4 -14zM561 868l2 -8q0 7 6 15t11 8q-8 3 -13.5 -2.5t-5.5 -12.5zM567 854q-4 4 -4 6zM588 864q-4 0 -4 15.5t4 15.5t4 -15.5t-4 -15.5zM1221 911q-5 0 -5 14.5t5 14.5 t5 -14.5t-5 -14.5zM1251 1038q-1 0 -1 13.5t1 13.5q3 0 3 -13.5t-3 -13.5zM1012 1968q-2 1 -7.5 3.5t-10 4.5t-5.5 2q-57 46 -67 58h-13q-36 -16 -51 -35q-4 -10 -6 -10q-2 -3 -8.5 -10t-7.5 -7q-2 -2 -14.5 -2t-18.5 2q-60 5 -19 90q4 8 13 17q30 23 55 35q69 32 160 -64 q8 -2 33.5 -2t33.5 2q3 0 35 16q4 3 27.5 20.5t27.5 20.5h29q2 -5 2 -20t-2 -21q-1 -6 -12.5 -27.5t-16.5 -27.5q-1 -4 -16.5 -19t-22.5 -20q-2 -2 -22 -12h-80q-12 4 -16 6z" />
</font>
</defs>
</svg>
